Menbere.glyphspackage
{
glyphname = exclam;
layers = (
{
layerId = "9E010061-AAF6-435A-AC72-EA6F5DDC7760";
shapes = (
{
closed = 1;
nodes = (
(242,286,l),
(271,858,l),
(64,858,l),
(91,286,l)
);
},
{
closed = 1;
nodes = (
(223,-16,o),
(268,13,o),
(268,87,cs),
(268,161,o),
(223,186,o),
(166,186,cs),
(108,186,o),
(63,161,o),
(63,87,cs),
(63,14,o),
(108,-16,o),
(166,-16,cs)
);
}
);
vertWidth = 1538.9;
width = 333;
},
{
layerId = "953CDB83-177D-4B72-9B41-8425D0D02E2F";
shapes = (
{
closed = 1;
nodes = (
(171,229,l),
(189,858,l),
(100,858,l),
(119,229,l)
);
},
{
closed = 1;
nodes = (
(178,-13,o),
(198,8,o),
(198,50,cs),
(198,90,o),
(178,112,o),
(144,112,cs),
(110,112,o),
(89,90,o),
(89,50,cs),
(89,8,o),
(110,-13,o),
(144,-13,cs)
);
}
);
vertWidth = 873.4;
width = 287;
},
{
layerId = "C85E24C5-F5D5-436B-96A2-CB17661C75AE";
shapes = (
{
closed = 1;
nodes = (
(204,253,l),
(232,858,l),
(84,858,l),
(113,253,l)
);
},
{
closed = 1;
nodes = (
(201,-18,o),
(239,9,o),
(239,70,cs),
(239,133,o),
(201,156,o),
(157,156,cs),
(113,156,o),
(77,133,o),
(77,70,cs),
(77,9,o),
(113,-18,o),
(157,-18,cs)
);
}
);
vertWidth = 235.4;
width = 316;
}
);
note = exclam;
unicode = 33;
userData = {
KernOnSpecialSpacing = {
L = "spaced-off";
};
};
}
{
color = 6;
glyphname = quotedbl;
kernLeft = KO_quotedbl;
kernRight = KO_quotedbl;
layers = (
{
layerId = "9E010061-AAF6-435A-AC72-EA6F5DDC7760";
shapes = (
{
closed = 1;
nodes = (
(216.7,548.9,l),
(240.9,858,l),
(74.8,858,l),
(96.8,548.9,l)
);
},
{
closed = 1;
nodes = (
(457.6,548.9,l),
(481.8,858,l),
(316.8,858,l),
(339.9,548.9,l)
);
}
);
vertWidth = 1538.9;
width = 555.5;
},
{
layerId = "953CDB83-177D-4B72-9B41-8425D0D02E2F";
shapes = (
{
closed = 1;
nodes = (
(336.6,548.9,l),
(353.1,858,l),
(272.8,858,l),
(289.3,548.9,l)
);
},
{
closed = 1;
nodes = (
(141.9,548.9,l),
(158.4,858,l),
(78.1,858,l),
(93.5,548.9,l)
);
}
);
vertWidth = 873.4;
width = 430.1;
},
{
layerId = "C85E24C5-F5D5-436B-96A2-CB17661C75AE";
shapes = (
{
closed = 1;
nodes = (
(177.1,548.9,l),
(201.3,858,l),
(74.8,858,l),
(96.8,548.9,l)
);
},
{
closed = 1;
nodes = (
(397.1,548.9,l),
(419.1,858,l),
(293.7,858,l),
(317.9,548.9,l)
);
}
);
vertWidth = 235.4;
width = 493.9;
}
);
note = quotedbl;
unicode = 34;
userData = {
KernOnSpecialSpacing = {
L = quotes;
R = quotes;
};
};
}
{
glyphname = numbersign;
layers = (
{
layerId = "9E010061-AAF6-435A-AC72-EA6F5DDC7760";
shapes = (
{
closed = 1;
nodes = (
(540.022,464.436,l),
(440.322,464.436,l),
(472.21,643.67,l),
(376.07,643.67,l),
(344.556,464.436,l),
(268.163,464.436,l),
(299.677,643.67,l),
(202.52,643.67,l),
(169.004,464.436,l),
(49.154,464.436,l),
(49.154,370.692,l),
(152.517,370.692,l),
(134.844,271.385,l),
(18.658,271.385,l),
(18.658,177.64,l),
(117.475,177.64,l),
(86.096,0,l),
(183.118,0,l),
(213.75,177.64,l),
(288.379,177.64,l),
(256.865,0,l),
(354.395,0,l),
(387.538,177.64,l),
(510.916,177.64,l),
(510.916,271.385,l),
(404.907,271.385,l),
(422.953,370.692,l),
(540.022,370.692,l)
);
},
{
closed = 1;
nodes = (
(326.305,370.692,l),
(307.003,271.385,l),
(231.492,271.385,l),
(249.539,370.692,l)
);
}
);
vertWidth = 1156;
width = 559.188;
},
{
layerId = "953CDB83-177D-4B72-9B41-8425D0D02E2F";
shapes = (
{
closed = 1;
nodes = (
(535.556,446.989,l),
(419.213,446.989,l),
(455.035,644.836,l),
(409.326,644.836,l),
(373.346,446.989,l),
(230.785,446.989,l),
(267.483,644.836,l),
(220.413,644.836,l),
(184.742,446.989,l),
(55.056,446.989,l),
(55.056,403.507,l),
(176.843,403.507,l),
(146.117,239.38,l),
(21.874,239.38,l),
(21.874,195.088,l),
(138.053,195.088,l),
(102.553,0,l),
(148.426,0,l),
(184.241,195.088,l),
(325.757,195.088,l),
(289.059,0,l),
(335.971,0,l),
(372.518,195.088,l),
(504.296,195.088,l),
(504.296,239.38,l),
(380.581,239.38,l),
(410.431,403.507,l),
(535.556,403.507,l)
);
},
{
closed = 1;
nodes = (
(364.401,403.507,l),
(333.826,239.38,l),
(192.147,239.38,l),
(222.716,403.507,l)
);
}
);
vertWidth = 656;
width = 559.188;
},
{
layerId = "C85E24C5-F5D5-436B-96A2-CB17661C75AE";
shapes = (
{
closed = 1;
nodes = (
(537.022,456.436,l),
(430.322,456.436,l),
(464.21,644.67,l),
(394.07,644.67,l),
(359.556,456.436,l),
(249.163,456.436,l),
(283.677,644.67,l),
(210.52,644.67,l),
(177.004,456.436,l),
(52.154,456.436,l),
(52.154,387.692,l),
(164.517,387.692,l),
(139.844,254.385,l),
(20.658,254.385,l),
(20.658,185.64,l),
(126.475,185.64,l),
(94.096,0,l),
(165.118,0,l),
(198.75,185.64,l),
(307.379,185.64,l),
(272.865,0,l),
(345.395,0,l),
(379.538,185.64,l),
(507.916,185.64,l),
(507.916,254.385,l),
(392.907,254.385,l),
(416.953,387.692,l),
(537.022,387.692,l)
);
},
{
closed = 1;
nodes = (
(345.305,387.692,l),
(321.003,254.385,l),
(211.492,254.385,l),
(235.539,387.692,l)
);
}
);
vertWidth = 177;
width = 559.188;
}
);
note = numbersign;
unicode = 35;
}
{
color = 6;
glyphname = dollar;
layers = (
{
layerId = "9E010061-AAF6-435A-AC72-EA6F5DDC7760";
shapes = (
{
closed = 1;
nodes = (
(278,-53,l),
(278,38,l),
(400,50,o),
(462,113,o),
(462,202,cs),
(462,272,o),
(423,312,o),
(365,340,cs),
(336,355,o),
(307,368,o),
(278,380,c),
(278,511,l),
(316,507,o),
(366,497,o),
(412,477,c),
(452,578,l),
(398,603,o),
(340,616,o),
(278,619,c),
(278,685,l),
(219,685,l),
(219,616,l),
(114,609,o),
(36,554,o),
(36,462,cs),
(36,404,o),
(57,363,o),
(111,329,cs),
(137,312,o),
(173,294,o),
(219,277,c),
(219,139,l),
(158,143,o),
(84,166,o),
(36,189,c),
(36,74,l),
(86,52,o),
(142,39,o),
(219,36,c),
(219,-53,l),
(219,-53,l),
(219,-53,l),
(219,-53,l)
);
},
{
closed = 1;
nodes = (
(310,236,o),
(331,220,o),
(331,196,cs),
(331,166,o),
(314,149,o),
(278,142,c),
(278,254,l),
(278,254,l),
(278,254,l),
(278,254,l)
);
},
{
closed = 1;
nodes = (
(183,422,o),
(167,436,o),
(167,462,cs),
(167,487,o),
(187,504,o),
(219,509,c),
(219,404,l),
(219,404,l),
(219,404,l),
(219,404,l)
);
}
);
vertWidth = 1156;
width = 496;
},
{
layerId = "953CDB83-177D-4B72-9B41-8425D0D02E2F";
shapes = (
{
closed = 1;
nodes = (
(258,-53,l),
(258,29,l),
(362,39,o),
(427,90,o),
(427,183,cs),
(427,246,o),
(400,282,o),
(349,308,cs),
(324,321,o),
(294,333,o),
(258,345,c),
(258,575,l),
(301,573,o),
(346,562,o),
(388,544,c),
(405,588,l),
(361,607,o),
(313,619,o),
(258,621,c),
(258,685,l),
(219,685,l),
(219,621,l),
(116,615,o),
(55,559,o),
(55,471,cs),
(55,410,o),
(82,371,o),
(131,345,cs),
(155,331,o),
(184,319,o),
(219,307,c),
(219,73,l),
(158,74,o),
(95,89,o),
(56,106,c),
(56,54,l),
(92,40,o),
(151,28,o),
(219,27,c),
(219,-53,l),
(219,-53,l),
(219,-53,l)
);
},
{
closed = 1;
nodes = (
(313,275,o),
(348,257,o),
(364,231,cs),
(372,218,o),
(377,201,o),
(377,181,cs),
(377,116,o),
(333,81,o),
(258,75,c),
(258,293,l),
(258,293,l),
(258,293,l)
);
},
{
closed = 1;
nodes = (
(148,383,o),
(105,409,o),
(105,475,cs),
(105,533,o),
(147,570,o),
(219,574,c),
(219,359,l),
(219,359,l),
(219,359,l)
);
}
);
vertWidth = 656;
width = 495;
},
{
layerId = "C85E24C5-F5D5-436B-96A2-CB17661C75AE";
shapes = (
{
closed = 1;
nodes = (
(273,-53,l),
(273,43,l),
(386,55,o),
(448,111,o),
(448,198,cs),
(448,261,o),
(419,297,o),
(366,323,cs),
(339,336,o),
(308,349,o),
(273,361,c),
(273,536,l),
(317,532,o),
(363,520,o),
(404,504,c),
(431,576,l),
(386,597,o),
(335,610,o),
(273,611,c),
(273,685,l),
(219,685,l),
(219,611,l),
(121,604,o),
(49,554,o),
(49,461,cs),
(49,403,o),
(72,363,o),
(121,334,cs),
(146,319,o),
(179,305,o),
(219,292,c),
(219,115,l),
(159,117,o),
(90,135,o),
(49,155,c),
(49,71,l),
(89,54,o),
(151,42,o),
(219,40,c),
(219,-53,l),
(219,-53,l),
(219,-53,l)
);
},
{
closed = 1;
nodes = (
(336,254,o),
(360,235,o),
(360,192,cs),
(360,151,o),
(333,126,o),
(273,119,c),
(273,273,l),
(273,273,l),
(273,273,l)
);
},
{
closed = 1;
nodes = (
(161,398,o),
(137,420,o),
(137,466,cs),
(137,503,o),
(165,530,o),
(219,534,c),
(219,381,l),
(219,381,l),
(219,381,l)
);
}
);
vertWidth = 177;
width = 496;
}
);
note = dollar;
unicode = 36;
}
{
glyphname = percent;
layers = (
{
layerId = "9E010061-AAF6-435A-AC72-EA6F5DDC7760";
shapes = (
{
closed = 1;
nodes = (
(320,0,l),
(721,757,l),
(599,757,l),
(197,0,l)
);
},
{
closed = 1;
nodes = (
(324,292,o),
(378,381,o),
(378,531,cs),
(378,681,o),
(319,767,o),
(202,767,cs),
(83,767,o),
(29,681,o),
(29,531,cs),
(29,381,o),
(90,292,o),
(202,292,cs)
);
},
{
closed = 1;
nodes = (
(163,398,o),
(160,464,o),
(160,530,cs),
(160,594,o),
(163,660,o),
(203,660,cs),
(244,660,o),
(248,597,o),
(248,530,cs),
(248,464,o),
(243,398,o),
(203,398,cs)
);
},
{
closed = 1;
nodes = (
(837,-10,o),
(890,79,o),
(890,230,cs),
(890,379,o),
(830,464,o),
(716,464,cs),
(595,464,o),
(543,379,o),
(543,230,cs),
(543,79,o),
(603,-10,o),
(716,-10,cs)
);
},
{
closed = 1;
nodes = (
(675,96,o),
(672,162,o),
(672,229,cs),
(672,293,o),
(675,358,o),
(716,358,cs),
(756,358,o),
(761,292,o),
(761,229,cs),
(761,161,o),
(756,96,o),
(716,96,cs)
);
}
);
vertWidth = 1357.3098;
width = 921;
},
{
layerId = "953CDB83-177D-4B72-9B41-8425D0D02E2F";
shapes = (
{
closed = 1;
nodes = (
(240,0,l),
(641,757,l),
(586,757,l),
(185,0,l)
);
},
{
closed = 1;
nodes = (
(294,292,o),
(345,376,o),
(345,531,cs),
(345,682,o),
(297,767,o),
(198,767,cs),
(104,767,o),
(56,683,o),
(56,531,cs),
(56,378,o),
(106,292,o),
(197,292,cs)
);
},
{
closed = 1;
nodes = (
(138,339,o),
(107,405,o),
(107,531,cs),
(107,609,o),
(119,722,o),
(198,722,cs),
(263,722,o),
(292,655,o),
(292,531,cs),
(292,405,o),
(261,339,o),
(197,339,cs)
);
},
{
closed = 1;
nodes = (
(721,-11,o),
(770,74,o),
(770,229,cs),
(770,379,o),
(722,464,o),
(625,464,cs),
(530,464,o),
(482,381,o),
(482,229,cs),
(482,75,o),
(532,-11,o),
(624,-11,cs)
);
},
{
closed = 1;
nodes = (
(545,37,o),
(533,148,o),
(533,229,cs),
(533,308,o),
(545,419,o),
(625,419,cs),
(689,419,o),
(719,352,o),
(719,229,cs),
(719,101,o),
(688,37,o),
(624,37,cs)
);
}
);
vertWidth = 770.3388;
width = 825;
},
{
layerId = "C85E24C5-F5D5-436B-96A2-CB17661C75AE";
shapes = (
{
closed = 1;
nodes = (
(275,0,l),
(677,757,l),
(589,757,l),
(185,0,l)
);
},
{
closed = 1;
nodes = (
(308,292,o),
(357,380,o),
(357,531,cs),
(357,681,o),
(303,767,o),
(198,767,cs),
(94,767,o),
(45,681,o),
(45,531,cs),
(45,380,o),
(100,292,o),
(198,292,cs)
);
},
{
closed = 1;
nodes = (
(138,367,o),
(132,469,o),
(132,531,cs),
(132,585,o),
(134,694,o),
(200,694,cs),
(265,694,o),
(270,586,o),
(270,531,cs),
(270,474,o),
(265,367,o),
(200,367,cs)
);
},
{
closed = 1;
nodes = (
(768,-11,o),
(817,77,o),
(817,230,cs),
(817,378,o),
(764,464,o),
(660,464,cs),
(553,464,o),
(507,379,o),
(507,230,cs),
(507,77,o),
(560,-11,o),
(660,-11,cs)
);
},
{
closed = 1;
nodes = (
(599,64,o),
(593,167,o),
(593,229,cs),
(593,290,o),
(598,390,o),
(660,390,cs),
(726,390,o),
(731,291,o),
(731,229,cs),
(731,170,o),
(727,64,o),
(660,64,cs)
);
}
);
vertWidth = 207.6228;
width = 862;
}
);
note = percent;
unicode = 37;
userData = {
KernOnSpecialSpacing = {
L = "spaced-off";
};
};
}
{
glyphname = ampersand;
layers = (
{
layerId = "9E010061-AAF6-435A-AC72-EA6F5DDC7760";
shapes = (
{
closed = 1;
nodes = (
(387,-11,o),
(458,17,o),
(516,60,c),
(572,0,l),
(762,0,l),
(613,152,l),
(677,230,o),
(715,326,o),
(734,405,c),
(572,405,l),
(571,350,o),
(550,298,o),
(513,249,c),
(375,395,l),
(457,444,o),
(521,507,o),
(521,603,cs),
(521,704,o),
(442,767,o),
(314,767,cs),
(186,767,o),
(101,700,o),
(101,593,cs),
(101,529,o),
(118,476,o),
(172,419,c),
(86,371,o),
(40,309,o),
(40,204,cs),
(40,78,o),
(136,-11,o),
(306,-11,cs)
);
},
{
closed = 1;
nodes = (
(253,122,o),
(204,157,o),
(204,220,cs),
(204,264,o),
(227,296,o),
(262,327,c),
(423,153,l),
(392,133,o),
(356,122,o),
(316,122,cs)
);
},
{
closed = 1;
nodes = (
(263,513,o),
(245,545,o),
(245,582,cs),
(245,631,o),
(282,647,o),
(314,647,cs),
(341,647,o),
(375,628,o),
(375,586,cs),
(375,544,o),
(346,512,o),
(289,482,c)
);
}
);
vertWidth = 1357.3098;
width = 764;
},
{
layerId = "953CDB83-177D-4B72-9B41-8425D0D02E2F";
shapes = (
{
closed = 1;
nodes = (
(401,-11,o),
(475,40,o),
(536,100,c),
(631,0,l),
(711,0,l),
(575,141,l),
(625,200,o),
(659,275,o),
(679,363,c),
(617,363,l),
(602,291,o),
(575,227,o),
(536,180,c),
(318,409,l),
(413,463,o),
(475,518,o),
(475,610,cs),
(475,707,o),
(413,768,o),
(309,768,cs),
(200,768,o),
(132,707,o),
(132,608,cs),
(132,530,o),
(174,477,o),
(230,419,c),
(125,365,o),
(59,311,o),
(59,194,cs),
(59,64,o),
(148,-11,o),
(284,-11,cs)
);
},
{
closed = 1;
nodes = (
(188,44,o),
(122,101,o),
(122,195,cs),
(122,287,o),
(177,333,o),
(267,380,c),
(498,139,l),
(446,84,o),
(384,44,o),
(284,44,cs)
);
},
{
closed = 1;
nodes = (
(223,508,o),
(191,550,o),
(191,608,cs),
(191,676,o),
(237,717,o),
(307,717,cs),
(374,717,o),
(416,676,o),
(416,610,cs),
(416,539,o),
(370,494,o),
(280,446,c)
);
}
);
vertWidth = 770.3388;
width = 728;
},
{
layerId = "C85E24C5-F5D5-436B-96A2-CB17661C75AE";
shapes = (
{
closed = 1;
nodes = (
(391,-11,o),
(465,28,o),
(527,83,c),
(608,0,l),
(743,0,l),
(597,149,l),
(650,212,o),
(684,294,o),
(705,382,c),
(598,382,l),
(582,319,o),
(561,262,o),
(529,216,c),
(347,404,l),
(430,455,o),
(493,514,o),
(493,605,cs),
(493,707,o),
(420,768,o),
(311,768,cs),
(192,768,o),
(117,707,o),
(117,601,cs),
(117,529,o),
(155,474,o),
(201,419,c),
(107,365,o),
(50,307,o),
(50,198,cs),
(50,67,o),
(142,-11,o),
(289,-11,cs)
);
},
{
closed = 1;
nodes = (
(214,80,o),
(160,128,o),
(160,204,cs),
(160,273,o),
(200,314,o),
(264,356,c),
(464,148,l),
(423,111,o),
(369,80,o),
(293,80,cs)
);
},
{
closed = 1;
nodes = (
(242,513,o),
(217,551,o),
(217,599,cs),
(217,655,o),
(257,684,o),
(308,684,cs),
(357,684,o),
(392,652,o),
(392,602,cs),
(392,546,o),
(358,509,o),
(285,464,c)
);
}
);
vertWidth = 207.6228;
width = 747;
}
);
note = ampersand;
unicode = 38;
userData = {
KernOnSpecialSpacing = {
L = symbols;
R = symbols;
};
};
}
{
color = 6;
glyphname = quotesingle;
kernLeft = KO_quotesingle;
kernRight = KO_quotedbl;
layers = (
{
layerId = "9E010061-AAF6-435A-AC72-EA6F5DDC7760";
shapes = (
{
closed = 1;
nodes = (
(216.7,548.9,l),
(240.9,858,l),
(74.8,858,l),
(96.8,548.9,l)
);
}
);
vertWidth = 1538.9;
width = 314.6;
},
{
layerId = "953CDB83-177D-4B72-9B41-8425D0D02E2F";
shapes = (
{
closed = 1;
nodes = (
(141.9,548.9,l),
(158.4,858,l),
(78.1,858,l),
(93.5,548.9,l)
);
}
);
vertWidth = 873.4;
width = 234.3;
},
{
layerId = "C85E24C5-F5D5-436B-96A2-CB17661C75AE";
shapes = (
{
closed = 1;
nodes = (
(177.1,548.9,l),
(201.3,858,l),
(74.8,858,l),
(96.8,548.9,l)
);
}
);
vertWidth = 235.4;
width = 273.9;
}
);
note = quotesingle;
unicode = 39;
userData = {
KernOnSpecialSpacing = {
L = quotes;
R = quotes;
};
};
}
{
glyphname = parenleft;
layers = (
{
layerId = "9E010061-AAF6-435A-AC72-EA6F5DDC7760";
shapes = (
{
closed = 1;
nodes = (
(61.74,35.927,o),
(118.188,-89.356,o),
(161.406,-142.786,q),
(272.404,-142.786,l),
(233.969,-86.842,o),
(181.422,40.284,o),
(154.08,178.713,o),
(154.08,247.803,qs),
(154.08,355.583,o),
(214.938,560.09,o),
(273.286,644.84,q),
(161.406,644.84,l),
(118.188,590.489,o),
(61.74,462.442,o),
(34.398,321.499,o),
(34.398,246.882,qs),
(34.398,175.028,o)
);
}
);
vertWidth = 1156;
width = 298.86386;
},
{
layerId = "953CDB83-177D-4B72-9B41-8425D0D02E2F";
shapes = (
{
closed = 1;
nodes = (
(63.177,32.681,o),
(119.625,-90.168,o),
(161.406,-142.786,q),
(216.603,-142.786,l),
(175.482,-86.487,o),
(119.532,39.016,o),
(91.471,176.279,o),
(91.471,247.803,qs),
(91.471,358.017,o),
(153.766,561.712,o),
(217.485,644.84,q),
(161.406,644.84,l),
(119.625,592.923,o),
(63.177,466.499,o),
(35.116,323.933,o),
(35.116,246.882,qs),
(35.116,172.594,o)
);
}
);
vertWidth = 656;
width = 244.49933;
},
{
layerId = "C85E24C5-F5D5-436B-96A2-CB17661C75AE";
shapes = (
{
closed = 1;
nodes = (
(61.74,35.927,o),
(118.188,-89.356,o),
(161.406,-142.786,q),
(244.404,-142.786,l),
(204.969,-85.842,o),
(151.422,41.284,o),
(124.08,178.713,o),
(124.08,247.803,qs),
(124.08,355.583,o),
(184.938,560.09,o),
(245.286,644.84,q),
(161.406,644.84,l),
(118.188,590.489,o),
(61.74,462.442,o),
(34.398,321.499,o),
(34.398,246.882,qs),
(34.398,175.028,o)
);
}
);
vertWidth = 177;
width = 270.86386;
}
);
note = parenleft;
unicode = 40;
}
{
glyphname = parenright;
kernLeft = parenright;
layers = (
{
layerId = "9E010061-AAF6-435A-AC72-EA6F5DDC7760";
shapes = (
{
closed = 1;
nodes = (
(238.379,462.442,o),
(181.558,590.489,o),
(137.458,644.84,q),
(25.578,644.84,l),
(66.15,588.647,o),
(118.697,458.758,o),
(145.666,319.656,o),
(145.666,247.803,qs),
(145.666,178.713,o),
(118.697,40.284,o),
(64.895,-86.842,o),
(26.46,-142.786,q),
(137.458,-142.786,l),
(181.558,-89.356,o),
(238.379,35.927,o),
(264.466,175.028,o),
(264.466,246.882,qs),
(264.466,321.499,o)
);
}
);
vertWidth = 1156;
width = 298.86386;
},
{
layerId = "953CDB83-177D-4B72-9B41-8425D0D02E2F";
shapes = (
{
closed = 1;
nodes = (
(181.329,466.499,o),
(125.757,592.112,o),
(83.812,644.84,q),
(27.733,644.84,l),
(69.741,589.458,o),
(124.974,462.003,o),
(153.192,323.713,o),
(153.192,250.237,qs),
(153.192,178.713,o),
(124.974,39.827,o),
(69.735,-87.298,o),
(27.897,-142.786,q),
(83.812,-142.786,l),
(125.757,-90.979,o),
(181.329,33.493,o),
(210.101,175.028,o),
(210.101,250.127,qs),
(210.101,327.179,o)
);
}
);
vertWidth = 656;
width = 244.49933;
},
{
layerId = "C85E24C5-F5D5-436B-96A2-CB17661C75AE";
shapes = (
{
closed = 1;
nodes = (
(209.379,462.442,o),
(153.558,590.489,o),
(109.458,644.84,q),
(25.578,644.84,l),
(66.15,588.647,o),
(119.697,458.758,o),
(147.666,319.656,o),
(147.666,247.803,qs),
(147.666,178.713,o),
(119.697,41.284,o),
(65.895,-85.842,o),
(26.46,-142.786,q),
(109.458,-142.786,l),
(153.558,-89.356,o),
(209.379,35.927,o),
(236.466,175.028,o),
(236.466,246.882,qs),
(236.466,321.499,o)
);
}
);
vertWidth = 177;
width = 270.86386;
}
);
note = parenright;
unicode = 41;
}
{
glyphname = asterisk;
layers = (
{
layerId = "9E010061-AAF6-435A-AC72-EA6F5DDC7760";
shapes = (
{
closed = 1;
nodes = (
(274,482,l),
(348,308,l),
(465,373,l),
(343,528,l),
(522,537,l),
(507,670,l),
(314,601,l),
(342,806,l),
(209,806,l),
(238,601,l),
(50,670,l),
(28,539,l),
(211,528,l),
(85,371,l),
(207,307,l)
);
}
);
vertWidth = 1357.3098;
width = 553;
},
{
layerId = "953CDB83-177D-4B72-9B41-8425D0D02E2F";
shapes = (
{
closed = 1;
nodes = (
(276,536,l),
(375,350,l),
(437,386,l),
(309,556,l),
(507,591,l),
(493,659,l),
(295,591,l),
(313,805,l),
(241,805,l),
(258,591,l),
(62,659,l),
(50,591,l),
(246,556,l),
(118,386,l),
(184,350,l)
);
}
);
vertWidth = 770.3388;
width = 560;
},
{
layerId = "C85E24C5-F5D5-436B-96A2-CB17661C75AE";
shapes = (
{
closed = 1;
nodes = (
(276,512,l),
(358,324,l),
(455,376,l),
(327,544,l),
(518,554,l),
(503,661,l),
(306,596,l),
(331,806,l),
(222,806,l),
(249,596,l),
(55,661,l),
(38,554,l),
(227,544,l),
(101,376,l),
(201,324,l)
);
}
);
vertWidth = 207.6228;
width = 558;
}
);
note = asterisk;
unicode = 42;
userData = {
KernOnSpecialSpacing = {
L = quotes;
R = quotes;
};
};
}
{
glyphname = plus;
layers = (
{
layerId = "9E010061-AAF6-435A-AC72-EA6F5DDC7760";
shapes = (
{
closed = 1;
nodes = (
(198.638,538.114,l),
(198.638,366.656,l),
(36.641,366.656,l),
(36.641,269.893,l),
(198.638,269.893,l),
(198.638,100.411,l),
(294.4,100.411,l),
(294.4,269.893,l),
(456.397,269.893,l),
(456.397,366.656,l),
(294.4,366.656,l),
(294.4,538.114,l)
);
}
);
vertWidth = 1156;
width = 495.684;
},
{
layerId = "953CDB83-177D-4B72-9B41-8425D0D02E2F";
shapes = (
{
closed = 1;
nodes = (
(225.168,531.532,l),
(225.168,339.708,l),
(44.907,339.708,l),
(44.907,296.841,l),
(225.168,296.841,l),
(225.168,105.92,l),
(267.87,105.92,l),
(267.87,296.841,l),
(448.131,296.841,l),
(448.131,339.708,l),
(267.87,339.708,l),
(267.87,531.532,l)
);
}
);
vertWidth = 656;
width = 494.87119;
},
{
layerId = "C85E24C5-F5D5-436B-96A2-CB17661C75AE";
shapes = (
{
closed = 1;
nodes = (
(211.875,536.568,l),
(211.875,352.589,l),
(41.507,352.589,l),
(41.507,283.96,l),
(211.875,283.96,l),
(211.875,101.051,l),
(281.163,101.051,l),
(281.163,283.96,l),
(451.531,283.96,l),
(451.531,352.589,l),
(281.163,352.589,l),
(281.163,536.568,l)
);
}
);
vertWidth = 177;
width = 495.58949;
}
);
note = plus;
unicode = 43;
}
{
glyphname = comma;
kernLeft = period;
kernRight = period;
layers = (
{
layerId = "9E010061-AAF6-435A-AC72-EA6F5DDC7760";
shapes = (
{
closed = 1;
nodes = (
(66.692,105.017,l),
(62.282,73.945,o),
(49.052,-1.344,o),
(33.176,-79.646,o),
(24.356,-116.071,q),
(124.126,-116.071,l),
(139.493,-82.659,o),
(166.462,-9.884,o),
(191.531,63.563,o),
(198.214,94.884,q),
(189.529,105.017,l)
);
}
);
vertWidth = 1156;
width = 249.16572;
},
{
layerId = "953CDB83-177D-4B72-9B41-8425D0D02E2F";
shapes = (
{
closed = 1;
nodes = (
(78.839,105.017,l),
(74.429,71.967,o),
(61.917,-1.243,o),
(44.605,-77.922,o),
(34.348,-116.071,q),
(76.724,-116.071,l),
(90.124,-83.825,o),
(114.751,-11.862,o),
(136.416,62.751,o),
(143.629,94.884,q),
(138.879,105.017,l)
);
}
);
vertWidth = 656;
width = 202.0427;
},
{
layerId = "C85E24C5-F5D5-436B-96A2-CB17661C75AE";
shapes = (
{
closed = 1;
nodes = (
(74.692,105.017,l),
(70.282,72.945,o),
(57.052,-3.344,o),
(41.176,-81.646,o),
(32.356,-116.071,q),
(101.126,-116.071,l),
(115.493,-83.659,o),
(143.462,-10.884,o),
(167.531,63.563,o),
(175.214,94.884,q),
(168.529,105.017,l)
);
}
);
vertWidth = 177;
width = 236.16572;
}
);
note = comma;
unicode = 44;
}
{
glyphname = hyphen;
layers = (
{
layerId = "9E010061-AAF6-435A-AC72-EA6F5DDC7760";
shapes = (
{
closed = 1;
nodes = (
(116,254,o),
(154,265,o),
(191,265,cs),
(216,265,o),
(233,263,o),
(252,257,c),
(267,323,l),
(253,328,o),
(233,333,o),
(204,333,cs),
(169,333,o),
(131,321,o),
(94,321,cs),
(69,321,o),
(52,324,o),
(33,330,c),
(18,263,l),
(32,259,o),
(52,254,o),
(81,254,cs)
);
}
);
width = 285;
},
{
layerId = "C85E24C5-F5D5-436B-96A2-CB17661C75AE";
shapes = (
{
closed = 1;
nodes = (
(116,254,o),
(154,265,o),
(191,265,cs),
(216,265,o),
(233,263,o),
(252,257,c),
(267,323,l),
(253,328,o),
(233,333,o),
(204,333,cs),
(169,333,o),
(131,321,o),
(94,321,cs),
(69,321,o),
(52,324,o),
(33,330,c),
(18,263,l),
(32,259,o),
(52,254,o),
(81,254,cs)
);
}
);
width = 285;
},
{
layerId = "953CDB83-177D-4B72-9B41-8425D0D02E2F";
shapes = (
{
closed = 1;
nodes = (
(116,254,o),
(154,265,o),
(191,265,cs),
(216,265,o),
(233,263,o),
(252,257,c),
(267,323,l),
(253,328,o),
(233,333,o),
(204,333,cs),
(169,333,o),
(131,321,o),
(94,321,cs),
(69,321,o),
(52,324,o),
(33,330,c),
(18,263,l),
(32,259,o),
(52,254,o),
(81,254,cs)
);
}
);
width = 285;
}
);
unicode = 45;
}
{
glyphname = period;
layers = (
{
anchors = (
{
name = "#entry";
},
{
name = "#exit";
pos = (259,0);
}
);
layerId = "9E010061-AAF6-435A-AC72-EA6F5DDC7760";
shapes = (
{
closed = 1;
nodes = (
(196,-14,o),
(237,12,o),
(237,77,cs),
(237,142,o),
(196,164,o),
(148,164,cs),
(95,164,o),
(56,142,o),
(56,77,cs),
(56,13,o),
(95,-14,o),
(148,-14,cs)
);
}
);
vertWidth = 1357.3098;
width = 292;
},
{
anchors = (
{
name = "#entry";
},
{
name = "#exit";
pos = (206,0);
}
);
layerId = "953CDB83-177D-4B72-9B41-8425D0D02E2F";
shapes = (
{
closed = 1;
nodes = (
(157,-12,o),
(175,7,o),
(175,44,cs),
(175,79,o),
(157,99,o),
(125,99,cs),
(97,99,o),
(78,79,o),
(78,44,cs),
(78,7,o),
(97,-12,o),
(125,-12,cs)
);
}
);
vertWidth = 770.3388;
width = 252;
},
{
anchors = (
{
name = "#entry";
},
{
name = "#exit";
pos = (237,0);
}
);
layerId = "C85E24C5-F5D5-436B-96A2-CB17661C75AE";
shapes = (
{
closed = 1;
nodes = (
(177,-16,o),
(211,8,o),
(211,62,cs),
(211,117,o),
(177,138,o),
(139,138,cs),
(100,138,o),
(68,117,o),
(68,62,cs),
(68,8,o),
(100,-16,o),
(139,-16,cs)
);
}
);
vertWidth = 207.6228;
width = 278;
}
);
note = period;
unicode = 46;
userData = {
KernOnName = period;
KernOnSpecialSpacing = {
L = period;
R = period;
};
};
}
{
glyphname = slash;
layers = (
{
layerId = "9E010061-AAF6-435A-AC72-EA6F5DDC7760";
shapes = (
{
closed = 1;
nodes = (
(5.054,0,l),
(129.622,0,l),
(359.824,644.84,l),
(235.63,644.84,l)
);
}
);
vertWidth = 1156;
width = 363.11428;
},
{
layerId = "953CDB83-177D-4B72-9B41-8425D0D02E2F";
shapes = (
{
closed = 1;
nodes = (
(9.52,0,l),
(64.703,0,l),
(295.623,644.84,l),
(239.564,644.84,l)
);
}
);
vertWidth = 656;
width = 304.81527;
},
{
layerId = "C85E24C5-F5D5-436B-96A2-CB17661C75AE";
shapes = (
{
closed = 1;
nodes = (
(8.054,0,l),
(96.622,0,l),
(326.824,644.84,l),
(237.63,644.84,l)
);
}
);
vertWidth = 177;
width = 333.11428;
}
);
note = slash;
unicode = 47;
}
{
glyphname = zero;
layers = (
{
layerId = "9E010061-AAF6-435A-AC72-EA6F5DDC7760";
shapes = (
{
closed = 1;
nodes = (
(45,95,o),
(102,-8,o),
(251,-8,cs),
(381,-8,o),
(464,103,o),
(464,309,cs),
(464,491,o),
(409,584,o),
(263,584,cs),
(133,584,o),
(45,483,o),
(45,277,cs)
);
},
{
closed = 1;
nodes = (
(136,429,o),
(176,509,o),
(262,509,cs),
(335,509,o),
(373,457,o),
(373,299,cs),
(373,157,o),
(338,67,o),
(252,67,cs),
(176,67,o),
(136,129,o),
(136,281,cs)
);
}
);
width = 497;
},
{
layerId = "C85E24C5-F5D5-436B-96A2-CB17661C75AE";
shapes = (
{
closed = 1;
nodes = (
(381,-8,o),
(464,103,o),
(464,309,cs),
(464,491,o),
(409,584,o),
(263,584,cs),
(133,584,o),
(45,483,o),
(45,277,cs),
(45,95,o),
(102,-8,o),
(251,-8,cs)
);
},
{
closed = 1;
nodes = (
(176,67,o),
(136,129,o),
(136,281,cs),
(136,429,o),
(176,509,o),
(262,509,cs),
(335,509,o),
(373,457,o),
(373,299,cs),
(373,157,o),
(338,67,o),
(252,67,cs)
);
}
);
width = 497;
},
{
layerId = "953CDB83-177D-4B72-9B41-8425D0D02E2F";
shapes = (
{
closed = 1;
nodes = (
(381,-8,o),
(464,103,o),
(464,309,cs),
(464,491,o),
(409,584,o),
(263,584,cs),
(133,584,o),
(45,483,o),
(45,277,cs),
(45,95,o),
(102,-8,o),
(251,-8,cs)
);
},
{
closed = 1;
nodes = (
(176,67,o),
(136,129,o),
(136,281,cs),
(136,429,o),
(176,509,o),
(262,509,cs),
(335,509,o),
(373,457,o),
(373,299,cs),
(373,157,o),
(338,67,o),
(252,67,cs)
);
}
);
width = 497;
}
);
unicode = 48;
}
{
glyphname = one;
layers = (
{
layerId = "9E010061-AAF6-435A-AC72-EA6F5DDC7760";
shapes = (
{
closed = 1;
nodes = (
(221,28,l),
(216,41,o),
(209,66,o),
(209,111,cs),
(209,197,o),
(230,357,o),
(230,479,cs),
(230,532,o),
(220,566,o),
(212,584,c),
(142,575,l),
(146,519,o),
(81,482,o),
(27,470,c),
(43,398,l),
(89,406,o),
(125,438,o),
(144,462,c),
(141,348,o),
(123,184,o),
(123,99,cs),
(123,47,o),
(132,18,o),
(140,2,c)
);
}
);
width = 279;
},
{
layerId = "C85E24C5-F5D5-436B-96A2-CB17661C75AE";
shapes = (
{
closed = 1;
nodes = (
(221,28,l),
(216,41,o),
(209,66,o),
(209,111,cs),
(209,197,o),
(230,357,o),
(230,479,cs),
(230,532,o),
(220,566,o),
(212,584,c),
(142,575,l),
(146,519,o),
(81,482,o),
(27,470,c),
(43,398,l),
(89,406,o),
(125,438,o),
(144,462,c),
(141,348,o),
(123,184,o),
(123,99,cs),
(123,47,o),
(132,18,o),
(140,2,c)
);
}
);
width = 279;
},
{
layerId = "953CDB83-177D-4B72-9B41-8425D0D02E2F";
shapes = (
{
closed = 1;
nodes = (
(221,28,l),
(216,41,o),
(209,66,o),
(209,111,cs),
(209,197,o),
(230,357,o),
(230,479,cs),
(230,532,o),
(220,566,o),
(212,584,c),
(142,575,l),
(146,519,o),
(81,482,o),
(27,470,c),
(43,398,l),
(89,406,o),
(125,438,o),
(144,462,c),
(141,348,o),
(123,184,o),
(123,99,cs),
(123,47,o),
(132,18,o),
(140,2,c)
);
}
);
width = 279;
}
);
unicode = 49;
}
{
glyphname = two;
layers = (
{
layerId = "9E010061-AAF6-435A-AC72-EA6F5DDC7760";
shapes = (
{
closed = 1;
nodes = (
(617,0,l),
(617,138.7,l),
(251,138.7,l),
(251,145.684,l),
(367,248.194,ls),
(461.536,331.736,o),
(529.838,402.483,o),
(565.059,475.938,cs),
(583,513.354,o),
(593,552.031,o),
(593,595.05,cs),
(593,722.753,o),
(493,813,o),
(335,813,cs),
(195,813,o),
(122,762.693,o),
(46,698.494,c),
(136,592.609,l),
(201,647.72,o),
(258,677.152,o),
(323,677.152,cs),
(389,677.152,o),
(429,643.676,o),
(429,577.851,cs),
(429,523.131,o),
(407,482.404,o),
(356.068,425.937,cs),
(328.602,395.486,o),
(296.902,360.873,o),
(255,319.692,cs),
(47,115.265,l),
(47,0,l)
);
}
);
vertWidth = 1357.3098;
width = 660;
},
{
layerId = "953CDB83-177D-4B72-9B41-8425D0D02E2F";
shapes = (
{
closed = 1;
nodes = (
(582,0,l),
(582,59.915,l),
(147,59.915,l),
(147,63.853,l),
(352,267.074,ls),
(431.91,346.29,o),
(491.204,409.107,o),
(521.922,482.103,cs),
(537,517.934,o),
(546,558.232,o),
(546,602.082,cs),
(546,727.182,o),
(458,813,o),
(312,813,cs),
(227,813,o),
(147,781.351,o),
(77,725.789,c),
(113,679.921,l),
(176,729.662,o),
(239,755.107,o),
(312,755.107,cs),
(415,755.107,o),
(477,698.986,o),
(477,598.945,cs),
(477,522.19,o),
(449,462.355,o),
(396.832,400.506,cs),
(372.15,371.243,o),
(336.436,333.584,o),
(297,293.947,cs),
(61,56.743,l),
(61,0,l)
);
}
);
vertWidth = 770.3388;
width = 659;
},
{
layerId = "C85E24C5-F5D5-436B-96A2-CB17661C75AE";
shapes = (
{
closed = 1;
nodes = (
(601,0,l),
(601,98.7,l),
(194,98.7,l),
(194,103.684,l),
(357,257.194,ls),
(442.582,337.793,o),
(509.007,408.653,o),
(543.655,480.147,cs),
(561,515.937,o),
(570,557.031,o),
(570,599.05,cs),
(570,728.753,o),
(473,813,o),
(319,813,cs),
(211,813,o),
(125,769.693,o),
(62,715.494,c),
(122,641.609,l),
(184,690.72,o),
(241,718.152,o),
(318,718.152,cs),
(401,718.152,o),
(457,675.676,o),
(457,589.851,cs),
(457,523.131,o),
(428,468.21,o),
(372.994,407.004,cs),
(345.132,376.002,o),
(308.711,340.102,o),
(268,299.692,cs),
(55,88.265,l),
(55,0,l)
);
}
);
vertWidth = 207.6228;
width = 660;
}
);
note = two;
unicode = 50;
userData = {
KernOnSpecialSpacing = {
L = NoKerning;
R = NoKerning;
};
};
}
{
color = 6;
glyphname = three;
layers = (
{
layerId = "9E010061-AAF6-435A-AC72-EA6F5DDC7760";
shapes = (
{
closed = 1;
nodes = (
(537,-13,o),
(691,78,o),
(691,271,cs),
(691,393,o),
(613,470,o),
(463,486,c),
(463,490,l),
(583,519,o),
(664,596,o),
(664,722,cs),
(664,861,o),
(546,944,o),
(355,944,cs),
(221,944,o),
(125,904,o),
(52,851,c),
(140,724,l),
(179,752,o),
(249,793,o),
(343,793,cs),
(439,793,o),
(481,752,o),
(481,684,cs),
(481,572,o),
(381,551,o),
(268,551,cs),
(195,551,l),
(195,407,l),
(267,407,ls),
(430,407,o),
(495,369,o),
(495,281,cs),
(495,189,o),
(444,135,o),
(299,135,cs),
(223,135,o),
(131,156,o),
(51,197,c),
(51,37,l),
(129,6,o),
(216,-13,o),
(318,-13,cs)
);
}
);
vertWidth = 1538.9;
width = 748;
},
{
layerId = "953CDB83-177D-4B72-9B41-8425D0D02E2F";
shapes = (
{
closed = 1;
nodes = (
(543,-13,o),
(658,97,o),
(658,260,cs),
(658,388,o),
(581,469,o),
(432,486,c),
(432,490,l),
(553,512,o),
(628,594,o),
(628,716,cs),
(628,855,o),
(530,944,o),
(355,944,cs),
(234,944,o),
(139,902,o),
(68,848,c),
(107,794,l),
(184,850,o),
(259,880,o),
(356,880,cs),
(474,880,o),
(551,823,o),
(551,712,cs),
(551,587,o),
(451,515,o),
(300,515,cs),
(202,515,l),
(202,450,l),
(300,450,ls),
(470,450,o),
(579,395,o),
(579,261,cs),
(579,132,o),
(495,52,o),
(318,52,cs),
(229,52,o),
(133,76,o),
(59,112,c),
(59,39,l),
(131,6,o),
(217,-13,o),
(318,-13,cs)
);
}
);
vertWidth = 873.4;
width = 747;
},
{
layerId = "C85E24C5-F5D5-436B-96A2-CB17661C75AE";
shapes = (
{
closed = 1;
nodes = (
(519,-13,o),
(674,67,o),
(674,266,cs),
(674,388,o),
(602,469,o),
(452,486,c),
(452,490,l),
(571,514,o),
(646,587,o),
(646,715,cs),
(646,849,o),
(549,944,o),
(355,944,cs),
(228,944,o),
(128,900,o),
(63,848,c),
(124,762,l),
(196,810,o),
(260,840,o),
(354,840,cs),
(457,840,o),
(519,790,o),
(519,703,cs),
(519,602,o),
(444,532,o),
(287,532,cs),
(200,532,l),
(200,427,l),
(287,427,ls),
(451,427,o),
(543,383,o),
(543,271,cs),
(543,158,o),
(476,91,o),
(312,91,cs),
(232,91,o),
(135,114,o),
(57,153,c),
(57,37,l),
(133,0,o),
(217,-13,o),
(315,-13,cs)
);
}
);
vertWidth = 235.4;
width = 748;
}
);
note = three;
unicode = 51;
userData = {
KernOnSpecialSpacing = {
L = NoKerning;
R = NoKerning;
};
};
}
{
glyphname = four;
layers = (
{
layerId = "9E010061-AAF6-435A-AC72-EA6F5DDC7760";
shapes = (
{
closed = 1;
nodes = (
(377,28,l),
(372,41,o),
(368,66,o),
(368,111,cs),
(368,120,o),
(368,133,o),
(369,145,c),
(394,145,o),
(420,139,o),
(445,134,c),
(467,202,l),
(441,211,o),
(406,217,o),
(371,220,c),
(371,272,o),
(366,306,o),
(358,324,c),
(279,310,l),
(283,297,o),
(291,270,o),
(293,223,c),
(232,222,o),
(163,218,o),
(130,215,c),
(186,266,o),
(232,366,o),
(232,466,cs),
(232,504,o),
(227,548,o),
(206,584,c),
(125,547,l),
(134,526,o),
(141,490,o),
(141,456,cs),
(141,358,o),
(103,281,o),
(11,199,c),
(31,134,l),
(101,141,o),
(174,151,o),
(239,151,cs),
(252,151,o),
(276,151,o),
(288,150,c),
(287,132,o),
(286,112,o),
(286,99,cs),
(286,47,o),
(292,18,o),
(300,2,c)
);
}
);
width = 488;
},
{
layerId = "C85E24C5-F5D5-436B-96A2-CB17661C75AE";
shapes = (
{
closed = 1;
nodes = (
(377,28,l),
(372,41,o),
(368,66,o),
(368,111,cs),
(368,120,o),
(368,133,o),
(369,145,c),
(394,145,o),
(420,139,o),
(445,134,c),
(467,202,l),
(441,211,o),
(406,217,o),
(371,220,c),
(371,272,o),
(366,306,o),
(358,324,c),
(279,310,l),
(283,297,o),
(291,270,o),
(293,223,c),
(232,222,o),
(163,218,o),
(130,215,c),
(186,266,o),
(232,366,o),
(232,466,cs),
(232,504,o),
(227,548,o),
(206,584,c),
(125,547,l),
(134,526,o),
(141,490,o),
(141,456,cs),
(141,358,o),
(103,281,o),
(11,199,c),
(31,134,l),
(101,141,o),
(174,151,o),
(239,151,cs),
(252,151,o),
(276,151,o),
(288,150,c),
(287,132,o),
(286,112,o),
(286,99,cs),
(286,47,o),
(292,18,o),
(300,2,c)
);
}
);
width = 488;
},
{
layerId = "953CDB83-177D-4B72-9B41-8425D0D02E2F";
shapes = (
{
closed = 1;
nodes = (
(377,28,l),
(372,41,o),
(368,66,o),
(368,111,cs),
(368,120,o),
(368,133,o),
(369,145,c),
(394,145,o),
(420,139,o),
(445,134,c),
(467,202,l),
(441,211,o),
(406,217,o),
(371,220,c),
(371,272,o),
(366,306,o),
(358,324,c),
(279,310,l),
(283,297,o),
(291,270,o),
(293,223,c),
(232,222,o),
(163,218,o),
(130,215,c),
(186,266,o),
(232,366,o),
(232,466,cs),
(232,504,o),
(227,548,o),
(206,584,c),
(125,547,l),
(134,526,o),
(141,490,o),
(141,456,cs),
(141,358,o),
(103,281,o),
(11,199,c),
(31,134,l),
(101,141,o),
(174,151,o),
(239,151,cs),
(252,151,o),
(276,151,o),
(288,150,c),
(287,132,o),
(286,112,o),
(286,99,cs),
(286,47,o),
(292,18,o),
(300,2,c)
);
}
);
width = 488;
}
);
unicode = 52;
}
{
glyphname = five;
layers = (
{
layerId = "9E010061-AAF6-435A-AC72-EA6F5DDC7760";
shapes = (
{
closed = 1;
nodes = (
(341,-10,o),
(441,59,o),
(441,195,cs),
(441,300,o),
(369,380,o),
(190,392,c),
(194,504,l),
(219,500,o),
(260,497,o),
(306,497,cs),
(350,497,o),
(395,502,o),
(425,516,c),
(403,584,l),
(363,577,o),
(304,571,o),
(248,571,cs),
(201,571,o),
(145,578,o),
(112,584,c),
(101,322,l),
(262,322,o),
(347,283,o),
(347,191,cs),
(347,108,o),
(296,65,o),
(218,65,cs),
(162,65,o),
(115,90,o),
(88,123,c),
(31,59,l),
(77,15,o),
(141,-10,o),
(213,-10,cs)
);
}
);
width = 464;
},
{
layerId = "C85E24C5-F5D5-436B-96A2-CB17661C75AE";
shapes = (
{
closed = 1;
nodes = (
(341,-10,o),
(441,59,o),
(441,195,cs),
(441,300,o),
(369,380,o),
(190,392,c),
(194,504,l),
(219,500,o),
(260,497,o),
(306,497,cs),
(350,497,o),
(395,502,o),
(425,516,c),
(403,584,l),
(363,577,o),
(304,571,o),
(248,571,cs),
(201,571,o),
(145,578,o),
(112,584,c),
(101,322,l),
(262,322,o),
(347,283,o),
(347,191,cs),
(347,108,o),
(296,65,o),
(218,65,cs),
(162,65,o),
(115,90,o),
(88,123,c),
(31,59,l),
(77,15,o),
(141,-10,o),
(213,-10,cs)
);
}
);
width = 464;
},
{
layerId = "953CDB83-177D-4B72-9B41-8425D0D02E2F";
shapes = (
{
closed = 1;
nodes = (
(341,-10,o),
(441,59,o),
(441,195,cs),
(441,300,o),
(369,380,o),
(190,392,c),
(194,504,l),
(219,500,o),
(260,497,o),
(306,497,cs),
(350,497,o),
(395,502,o),
(425,516,c),
(403,584,l),
(363,577,o),
(304,571,o),
(248,571,cs),
(201,571,o),
(145,578,o),
(112,584,c),
(101,322,l),
(262,322,o),
(347,283,o),
(347,191,cs),
(347,108,o),
(296,65,o),
(218,65,cs),
(162,65,o),
(115,90,o),
(88,123,c),
(31,59,l),
(77,15,o),
(141,-10,o),
(213,-10,cs)
);
}
);
width = 464;
}
);
unicode = 53;
}
{
glyphname = six;
layers = (
{
layerId = "9E010061-AAF6-435A-AC72-EA6F5DDC7760";
shapes = (
{
closed = 1;
nodes = (
(515,-11.714,o),
(617,94.388,o),
(617,267.099,cs),
(617,427.342,o),
(529,520.531,o),
(382,520.531,cs),
(293,520.531,o),
(236,482.611,o),
(202,426.894,c),
(195,426.894,l),
(201,579.845,o),
(259,682.186,o),
(460,682.186,cs),
(494,682.186,o),
(532,678.357,o),
(560,669.647,c),
(560,803.393,l),
(532,807.972,o),
(484,810,o),
(452,810,cs),
(151,810,o),
(44,623.633,o),
(44,339.483,cs),
(44,105.427,o),
(168,-11.714,o),
(340,-11.714,cs)
);
},
{
closed = 1;
nodes = (
(252,122.258,o),
(206,200.873,o),
(206,280.389,c),
(212,338.356,o),
(264,393.543,o),
(341,393.543,cs),
(419,393.543,o),
(459,343.46,o),
(459,263.944,cs),
(459,165.056,o),
(409,122.258,o),
(338,122.258,cs)
);
}
);
vertWidth = 1357.3098;
width = 660;
},
{
layerId = "953CDB83-177D-4B72-9B41-8425D0D02E2F";
shapes = (
{
closed = 1;
nodes = (
(504,-11.712,o),
(598,93.869,o),
(598,255.814,cs),
(598,406.394,o),
(507,497.022,o),
(358,497.022,cs),
(230,497.022,o),
(167,433.476,o),
(141,386.35,c),
(136,386.35,l),
(142,593.402,o),
(216,758.104,o),
(432,758.104,cs),
(473,758.104,o),
(510,752.283,o),
(539,742.523,c),
(539,802.299,l),
(510,812.024,o),
(469,813,o),
(430,813,cs),
(162,813,o),
(70,600.165,o),
(70,341.631,cs),
(70,127.997,o),
(173,-11.712,o),
(342,-11.712,cs)
);
},
{
closed = 1;
nodes = (
(195,46.077,o),
(141,185.125,o),
(141,282.829,c),
(164,371.786,o),
(243,443.172,o),
(347,443.172,cs),
(471,443.172,o),
(531,370.459,o),
(531,255.814,cs),
(531,119.696,o),
(460,46.077,o),
(342,46.077,cs)
);
}
);
vertWidth = 770.3388;
width = 659;
},
{
layerId = "C85E24C5-F5D5-436B-96A2-CB17661C75AE";
shapes = (
{
closed = 1;
nodes = (
(509,-11.714,o),
(605,98.388,o),
(605,259.099,cs),
(605,417.342,o),
(508,504.531,o),
(369,504.531,cs),
(272,504.531,o),
(212,464.611,o),
(176,409.894,c),
(168,409.894,l),
(178,592.845,o),
(240,723.186,o),
(444,723.186,cs),
(481,723.186,o),
(515,718.357,o),
(544,708.647,c),
(544,803.393,l),
(519,811.972,o),
(474,813,o),
(442,813,cs),
(147,813,o),
(60,599.633,o),
(60,342.483,cs),
(60,105.427,o),
(181,-11.714,o),
(342,-11.714,cs)
);
},
{
closed = 1;
nodes = (
(234,80.258,o),
(172,177.873,o),
(172,277.389,c),
(176,343.356,o),
(237,417.543,o),
(346,417.543,cs),
(447,417.543,o),
(497,358.46,o),
(497,258.944,cs),
(497,138.056,o),
(435,80.258,o),
(341,80.258,cs)
);
}
);
vertWidth = 207.6228;
width = 660;
}
);
note = six;
unicode = 54;
userData = {
KernOnSpecialSpacing = {
L = NoKerning;
R = NoKerning;
};
};
}
{
glyphname = seven;
layers = (
{
layerId = "9E010061-AAF6-435A-AC72-EA6F5DDC7760";
shapes = (
{
closed = 1;
nodes = (
(344.3,0,l),
(699.6,811.8,l),
(699.6,931.7,l),
(37.4,931.7,l),
(37.4,773.3,l),
(502.7,773.3,l),
(149.6,0,l)
);
}
);
vertWidth = 1538.9;
width = 748;
},
{
layerId = "953CDB83-177D-4B72-9B41-8425D0D02E2F";
shapes = (
{
closed = 1;
nodes = (
(290.4,0,l),
(673.2,875.6,l),
(673.2,931.7,l),
(67.1,931.7,l),
(67.1,862.4,l),
(591.8,862.4,l),
(207.9,0,l)
);
}
);
vertWidth = 873.4;
width = 746.9;
},
{
layerId = "C85E24C5-F5D5-436B-96A2-CB17661C75AE";
shapes = (
{
closed = 1;
nodes = (
(310.2,0,l),
(684.2,837.1,l),
(684.2,931.7,l),
(55,931.7,l),
(55,818.4,l),
(551.1,818.4,l),
(172.7,0,l)
);
}
);
vertWidth = 235.4;
width = 748;
}
);
note = seven;
unicode = 55;
userData = {
KernOnSpecialSpacing = {
L = NoKerning;
R = NoKerning;
};
};
}
{
glyphname = eight;
layers = (
{
layerId = "9E010061-AAF6-435A-AC72-EA6F5DDC7760";
shapes = (
{
closed = 1;
nodes = (
(374,-10,o),
(454,85,o),
(454,189,cs),
(454,267,o),
(411,322,o),
(347,342,c),
(393,364,o),
(409,408,o),
(409,453,cs),
(409,540,o),
(348,584,o),
(257,584,cs),
(161,584,o),
(94,528,o),
(94,442,cs),
(94,394,o),
(114,363,o),
(139,342,c),
(59,309,o),
(23,237,o),
(23,174,cs),
(23,63,o),
(94,-10,o),
(238,-10,cs)
);
},
{
closed = 1;
nodes = (
(162,65,o),
(114,102,o),
(114,175,cs),
(114,231,o),
(139,296,o),
(238,296,cs),
(319,296,o),
(363,251,o),
(363,180,cs),
(363,107,o),
(316,65,o),
(238,65,cs)
);
},
{
closed = 1;
nodes = (
(205,360,o),
(182,390,o),
(182,436,cs),
(182,483,o),
(213,512,o),
(251,512,cs),
(288,512,o),
(321,490,o),
(321,439,cs),
(321,406,o),
(304,360,o),
(251,360,cs)
);
}
);
width = 476;
},
{
layerId = "C85E24C5-F5D5-436B-96A2-CB17661C75AE";
shapes = (
{
closed = 1;
nodes = (
(374,-10,o),
(454,85,o),
(454,189,cs),
(454,267,o),
(411,322,o),
(347,342,c),
(393,364,o),
(409,408,o),
(409,453,cs),
(409,540,o),
(348,584,o),
(257,584,cs),
(161,584,o),
(94,528,o),
(94,442,cs),
(94,394,o),
(114,363,o),
(139,342,c),
(59,309,o),
(23,237,o),
(23,174,cs),
(23,63,o),
(94,-10,o),
(238,-10,cs)
);
},
{
closed = 1;
nodes = (
(162,65,o),
(114,102,o),
(114,175,cs),
(114,231,o),
(139,296,o),
(238,296,cs),
(319,296,o),
(363,251,o),
(363,180,cs),
(363,107,o),
(316,65,o),
(238,65,cs)
);
},
{
closed = 1;
nodes = (
(205,360,o),
(182,390,o),
(182,436,cs),
(182,483,o),
(213,512,o),
(251,512,cs),
(288,512,o),
(321,490,o),
(321,439,cs),
(321,406,o),
(304,360,o),
(251,360,cs)
);
}
);
width = 476;
},
{
layerId = "953CDB83-177D-4B72-9B41-8425D0D02E2F";
shapes = (
{
closed = 1;
nodes = (
(374,-10,o),
(454,85,o),
(454,189,cs),
(454,267,o),
(411,322,o),
(347,342,c),
(393,364,o),
(409,408,o),
(409,453,cs),
(409,540,o),
(348,584,o),
(257,584,cs),
(161,584,o),
(94,528,o),
(94,442,cs),
(94,394,o),
(114,363,o),
(139,342,c),
(59,309,o),
(23,237,o),
(23,174,cs),
(23,63,o),
(94,-10,o),
(238,-10,cs)
);
},
{
closed = 1;
nodes = (
(162,65,o),
(114,102,o),
(114,175,cs),
(114,231,o),
(139,296,o),
(238,296,cs),
(319,296,o),
(363,251,o),
(363,180,cs),
(363,107,o),
(316,65,o),
(238,65,cs)
);
},
{
closed = 1;
nodes = (
(205,360,o),
(182,390,o),
(182,436,cs),
(182,483,o),
(213,512,o),
(251,512,cs),
(288,512,o),
(321,490,o),
(321,439,cs),
(321,406,o),
(304,360,o),
(251,360,cs)
);
}
);
width = 476;
}
);
unicode = 56;
}
{
glyphname = nine;
layers = (
{
layerId = "9E010061-AAF6-435A-AC72-EA6F5DDC7760";
shapes = (
{
closed = 1;
nodes = (
(405,-11.714,o),
(516.995,75.166,o),
(568.345,195.508,cs),
(601,272.036,o),
(614,367.042,o),
(614,459.779,cs),
(614,700.754,o),
(485,810,o),
(318,810,cs),
(148,810,o),
(39,710.807,o),
(39,532.389,cs),
(39,375.225,o),
(130,280.834,o),
(272,280.834,cs),
(371,280.834,o),
(419,319.881,o),
(455,373.571,c),
(463,373.571,l),
(455,215.433,o),
(398,117.151,o),
(197,117.151,cs),
(163,117.151,o),
(127,122.933,o),
(97,128.564,c),
(97,-4.206,l),
(125,-9.912,o),
(175,-11.714,o),
(206,-11.714,cs)
);
},
{
closed = 1;
nodes = (
(236,406.921,o),
(198,453.699,o),
(198,535.544,cs),
(198,635.333,o),
(249,678.131,o),
(320,678.131,cs),
(405,678.131,o),
(452,603.123,o),
(452,522.103,cs),
(452,464.512,o),
(399,406.921,o),
(318,406.921,cs)
);
}
);
vertWidth = 1357.3098;
width = 660;
},
{
layerId = "953CDB83-177D-4B72-9B41-8425D0D02E2F";
shapes = (
{
closed = 1;
nodes = (
(376,-12.653,o),
(477.741,55.385,o),
(534.533,172.834,cs),
(571,248.249,o),
(588,348.148,o),
(588,461.574,cs),
(588,674.899,o),
(487,813,o),
(314,813,cs),
(155,813,o),
(60,707.628,o),
(60,546.346,cs),
(60,394.859,o),
(151,303.359,o),
(297,303.359,cs),
(409,303.359,o),
(484,357.459,o),
(515,415.844,c),
(520,415.844,l),
(514,181.948,o),
(423,44.125,o),
(224,44.125,cs),
(185,44.125,o),
(141,50.016,o),
(113,59.741,c),
(113,0,l),
(141,-7.808,o),
(190,-12.653,o),
(225,-12.653,cs)
);
},
{
closed = 1;
nodes = (
(186,359.022,o),
(125,431.805,o),
(125,546.346,cs),
(125,681.592,o),
(197,756.152,o),
(314,756.152,cs),
(465,756.152,o),
(516,615.954,o),
(516,520.342,cs),
(516,446.271,o),
(437,359.022,o),
(310,359.022,cs)
);
}
);
vertWidth = 770.3388;
width = 659;
},
{
layerId = "C85E24C5-F5D5-436B-96A2-CB17661C75AE";
shapes = (
{
closed = 1;
nodes = (
(405,-11.714,o),
(508.314,75.166,o),
(557.791,195.321,cs),
(590,273.542,o),
(601,367.042,o),
(601,459.779,cs),
(601,663.754,o),
(508,813,o),
(320,813,cs),
(156,813,o),
(56,708.807,o),
(56,540.389,cs),
(56,383.225,o),
(152,297.834,o),
(290,297.834,cs),
(387,297.834,o),
(449,336.881,o),
(484,390.571,c),
(491,390.571,l),
(485,219.433,o),
(429,78.151,o),
(214,78.151,cs),
(183,78.151,o),
(144,84.933,o),
(113,93.564,c),
(113,-0.206,l),
(142,-7.912,o),
(190,-11.714,o),
(219,-11.714,cs)
);
},
{
closed = 1;
nodes = (
(212,382.921,o),
(163,443.699,o),
(163,540.544,cs),
(163,663.333,o),
(230,721.131,o),
(320,721.131,cs),
(433,721.131,o),
(488,618.123,o),
(488,524.103,cs),
(488,453.512,o),
(423,382.921,o),
(314,382.921,cs)
);
}
);
vertWidth = 207.6228;
width = 660;
}
);
note = nine;
unicode = 57;
userData = {
KernOnSpecialSpacing = {
L = NoKerning;
R = NoKerning;
};
};
}
{
glyphname = colon;
layers = (
{
layerId = "9E010061-AAF6-435A-AC72-EA6F5DDC7760";
shapes = (
{
closed = 1;
nodes = (
(47,11,o),
(81,-12,o),
(126,-12,cs),
(167,-12,o),
(202,10,o),
(202,65,cs),
(202,121,o),
(167,140,o),
(126,140,cs),
(81,140,o),
(47,121,o),
(47,65,cs)
);
},
{
closed = 1;
nodes = (
(47,372,o),
(81,350,o),
(126,350,cs),
(167,350,o),
(202,372,o),
(202,426,cs),
(202,483,o),
(167,502,o),
(126,502,cs),
(81,502,o),
(47,483,o),
(47,426,cs)
);
}
);
vertWidth = 1156;
width = 249;
},
{
layerId = "953CDB83-177D-4B72-9B41-8425D0D02E2F";
shapes = (
{
closed = 1;
nodes = (
(67,6,o),
(83,-10,o),
(107,-10,cs),
(134,-10,o),
(149,6,o),
(149,37,cs),
(149,68,o),
(134,84,o),
(107,84,cs),
(83,84,o),
(67,68,o),
(67,37,cs)
);
},
{
closed = 1;
nodes = (
(67,411,o),
(83,396,o),
(107,396,cs),
(134,396,o),
(149,411,o),
(149,442,cs),
(149,476,o),
(134,489,o),
(107,489,cs),
(83,489,o),
(67,476,o),
(67,442,cs)
);
}
);
vertWidth = 656;
width = 215;
},
{
layerId = "C85E24C5-F5D5-436B-96A2-CB17661C75AE";
shapes = (
{
closed = 1;
nodes = (
(58,7,o),
(85,-13,o),
(118,-13,cs),
(151,-13,o),
(179,7,o),
(179,53,cs),
(179,100,o),
(151,117,o),
(118,117,cs),
(85,117,o),
(58,100,o),
(58,53,cs)
);
},
{
closed = 1;
nodes = (
(58,387,o),
(85,368,o),
(118,368,cs),
(151,368,o),
(179,387,o),
(179,433,cs),
(179,482,o),
(151,498,o),
(118,498,cs),
(85,498,o),
(58,482,o),
(58,433,cs)
);
}
);
vertWidth = 177;
width = 236;
}
);
note = colon;
unicode = 58;
}
{
color = 6;
glyphname = semicolon;
kernLeft = KO_semicolon;
layers = (
{
layerId = "9E010061-AAF6-435A-AC72-EA6F5DDC7760";
shapes = (
{
closed = 1;
nodes = (
(167.2,-154,l),
(202.4,-77,o),
(247.5,45.1,o),
(266.2,126.5,c),
(254.1,139.7,l),
(90.2,139.7,l),
(78.1,57.2,o),
(59.4,-45.1,o),
(34.1,-154,c)
);
},
{
closed = 1;
nodes = (
(221.1,466.4,o),
(268.4,495,o),
(268.4,566.5,cs),
(268.4,642.4,o),
(221.1,667.7,o),
(166.1,667.7,cs),
(108.9,667.7,o),
(63.8,642.4,o),
(63.8,566.5,cs),
(63.8,495,o),
(108.9,466.4,o),
(166.1,466.4,cs)
);
}
);
vertWidth = 1538.9;
width = 331.1;
},
{
layerId = "953CDB83-177D-4B72-9B41-8425D0D02E2F";
shapes = (
{
closed = 1;
nodes = (
(95.7,-154,l),
(130.9,-71.5,o),
(162.8,24.2,o),
(184.8,126.5,c),
(178.2,139.7,l),
(100.1,139.7,l),
(86.9,45.1,o),
(63.8,-59.4,o),
(38.5,-154,c)
);
},
{
closed = 1;
nodes = (
(177.1,526.9,o),
(196.9,546.7,o),
(196.9,588.5,cs),
(196.9,633.6,o),
(177.1,651.2,o),
(140.8,651.2,cs),
(108.9,651.2,o),
(88,633.6,o),
(88,588.5,cs),
(88,546.7,o),
(108.9,526.9,o),
(140.8,526.9,cs)
);
}
);
vertWidth = 873.4;
width = 286;
},
{
layerId = "C85E24C5-F5D5-436B-96A2-CB17661C75AE";
shapes = (
{
closed = 1;
nodes = (
(127.6,-154,l),
(165,-71.5,o),
(209,49.5,o),
(226.6,126.5,c),
(216.7,139.7,l),
(93.5,139.7,l),
(78.1,37.4,o),
(62.7,-42.9,o),
(34.1,-154,c)
);
},
{
closed = 1;
nodes = (
(200.2,489.5,o),
(235.4,514.8,o),
(235.4,576.4,cs),
(235.4,641.3,o),
(200.2,663.3,o),
(156.2,663.3,cs),
(112.2,663.3,o),
(75.9,641.3,o),
(75.9,576.4,cs),
(75.9,514.8,o),
(112.2,489.5,o),
(156.2,489.5,cs)
);
}
);
vertWidth = 235.4;
width = 314.6;
}
);
note = semicolon;
unicode = 59;
userData = {
KernOnSpecialSpacing = {
L = "spaced-off";
R = "spaced-off";
};
};
}
{
glyphname = less;
layers = (
{
layerId = "9E010061-AAF6-435A-AC72-EA6F5DDC7760";
shapes = (
{
closed = 1;
nodes = (
(536,230,l),
(201,375,l),
(536,541,l),
(536,662,l),
(44,407,l),
(44,331,l),
(536,105,l)
);
}
);
vertWidth = 1357.3098;
width = 582;
},
{
layerId = "953CDB83-177D-4B72-9B41-8425D0D02E2F";
shapes = (
{
closed = 1;
nodes = (
(526,191,l),
(122,378,l),
(526,578,l),
(526,633,l),
(55,395,l),
(55,358,l),
(526,134,l)
);
}
);
vertWidth = 770.3388;
width = 581;
},
{
layerId = "C85E24C5-F5D5-436B-96A2-CB17661C75AE";
shapes = (
{
closed = 1;
nodes = (
(531,209,l),
(158,374,l),
(531,558,l),
(531,647,l),
(50,397,l),
(50,342,l),
(531,122,l)
);
}
);
vertWidth = 207.6228;
width = 582;
}
);
note = less;
unicode = 60;
userData = {
KernOnSpecialSpacing = {
L = math;
R = math;
};
};
}
{
glyphname = equal;
kernRight = KO_equal;
layers = (
{
layerId = "9E010061-AAF6-435A-AC72-EA6F5DDC7760";
shapes = (
{
closed = 1;
nodes = (
(536,419,l),
(536,530,l),
(42,530,l),
(42,419,l)
);
},
{
closed = 1;
nodes = (
(536,217,l),
(536,329,l),
(42,329,l),
(42,217,l)
);
}
);
vertWidth = 1357.3098;
width = 578;
},
{
layerId = "953CDB83-177D-4B72-9B41-8425D0D02E2F";
shapes = (
{
closed = 1;
nodes = (
(521,455,l),
(521,507,l),
(58,507,l),
(58,455,l)
);
},
{
closed = 1;
nodes = (
(521,242,l),
(521,291,l),
(58,291,l),
(58,242,l)
);
}
);
vertWidth = 770.3388;
width = 579;
},
{
layerId = "C85E24C5-F5D5-436B-96A2-CB17661C75AE";
shapes = (
{
closed = 1;
nodes = (
(526,437,l),
(526,518,l),
(52,518,l),
(52,437,l)
);
},
{
closed = 1;
nodes = (
(526,229,l),
(526,309,l),
(52,309,l),
(52,229,l)
);
}
);
vertWidth = 207.6228;
width = 578;
}
);
metricRight = "=|";
note = equal;
unicode = 61;
userData = {
KernOnSpecialSpacing = {
L = math;
R = math;
};
};
}
{
color = 6;
glyphname = greater;
layers = (
{
layerId = "9E010061-AAF6-435A-AC72-EA6F5DDC7760";
shapes = (
{
closed = 1;
nodes = (
(607,376,l),
(607,461,l),
(50,750,l),
(50,613,l),
(429,425,l),
(50,260,l),
(50,119,l)
);
}
);
vertWidth = 1538.9;
width = 660;
},
{
layerId = "953CDB83-177D-4B72-9B41-8425D0D02E2F";
shapes = (
{
closed = 1;
nodes = (
(596,406,l),
(596,448,l),
(62,717,l),
(62,655,l),
(519,427,l),
(62,216,l),
(62,152,l)
);
}
);
vertWidth = 873.4;
width = 659;
},
{
layerId = "C85E24C5-F5D5-436B-96A2-CB17661C75AE";
shapes = (
{
closed = 1;
nodes = (
(602,388,l),
(602,450,l),
(56,734,l),
(56,633,l),
(476,424,l),
(56,237,l),
(56,138,l)
);
}
);
vertWidth = 235.4;
width = 660;
}
);
note = greater;
unicode = 62;
userData = {
KernOnSpecialSpacing = {
L = math;
R = math;
};
};
}
{
color = 6;
glyphname = question;
layers = (
{
layerId = "9E010061-AAF6-435A-AC72-EA6F5DDC7760";
shapes = (
{
closed = 1;
nodes = (
(315.7,286,l),
(315.7,324.5,ls),
(315.7,378.4,o),
(335.5,393.8,o),
(394.9,441.1,cs),
(477.4,501.6,o),
(530.2,551.1,o),
(530.2,656.7,cs),
(530.2,779.9,o),
(436.7,869,o),
(273.9,869,cs),
(169.4,869,o),
(80.3,840.4,o),
(1.1,796.4,c),
(67.1,664.4,l),
(134.2,699.6,o),
(198,722.7,o),
(260.7,722.7,cs),
(322.3,722.7,o),
(356.4,697.4,o),
(356.4,646.8,cs),
(356.4,599.5,o),
(324.5,562.1,o),
(261.8,515.9,cs),
(188.1,462,o),
(154,413.6,o),
(154,333.3,cs),
(154,286,l)
);
},
{
closed = 1;
nodes = (
(295.9,-16.5,o),
(343.2,13.2,o),
(343.2,86.9,cs),
(343.2,160.6,o),
(295.9,185.9,o),
(242,185.9,cs),
(184.8,185.9,o),
(138.6,160.6,o),
(138.6,86.9,cs),
(138.6,13.2,o),
(184.8,-16.5,o),
(242,-16.5,cs)
);
}
);
vertWidth = 1538.9;
width = 555.5;
},
{
layerId = "953CDB83-177D-4B72-9B41-8425D0D02E2F";
shapes = (
{
closed = 1;
nodes = (
(224.4,228.8,l),
(224.4,246.4,ls),
(224.4,339.9,o),
(253,376.2,o),
(312.4,425.7,cs),
(405.9,501.6,o),
(455.4,552.2,o),
(455.4,661.1,cs),
(455.4,794.2,o),
(371.8,869,o),
(232.1,869,cs),
(151.8,869,o),
(89.1,850.3,o),
(25.3,818.4,c),
(51.7,756.8,l),
(106.7,785.4,o),
(160.6,804.1,o),
(227.7,804.1,cs),
(323.4,804.1,o),
(381.7,755.7,o),
(381.7,660,cs),
(381.7,559.9,o),
(322.3,514.8,o),
(259.6,464.2,cs),
(181.5,400.4,o),
(162.8,350.9,o),
(162.8,253,cs),
(162.8,228.8,l)
);
},
{
closed = 1;
nodes = (
(232.1,-13.2,o),
(251.9,7.7,o),
(251.9,49.5,cs),
(251.9,90.2,o),
(232.1,112.2,o),
(196.9,112.2,cs),
(163.9,112.2,o),
(140.8,90.2,o),
(140.8,49.5,cs),
(140.8,7.7,o),
(163.9,-13.2,o),
(196.9,-13.2,cs)
);
}
);
vertWidth = 873.4;
width = 489.5;
},
{
layerId = "C85E24C5-F5D5-436B-96A2-CB17661C75AE";
shapes = (
{
closed = 1;
nodes = (
(264,253,l),
(264,278.3,ls),
(264,347.6,o),
(286,376.2,o),
(350.9,432.3,cs),
(433.4,502.7,o),
(487.3,551.1,o),
(487.3,658.9,cs),
(487.3,786.5,o),
(400.4,869,o),
(249.7,869,cs),
(154,869,o),
(75.9,843.7,o),
(11,806.3,c),
(55,711.7,l),
(112.2,739.2,o),
(170.5,762.3,o),
(242,762.3,cs),
(323.4,762.3,o),
(367.4,724.9,o),
(367.4,654.5,cs),
(367.4,585.2,o),
(334.4,551.1,o),
(258.5,488.4,cs),
(189.2,429,o),
(158.4,379.5,o),
(158.4,289.3,cs),
(158.4,253,l)
);
},
{
closed = 1;
nodes = (
(259.6,-17.6,o),
(295.9,8.8,o),
(295.9,70.4,cs),
(295.9,133.1,o),
(259.6,156.2,o),
(216.7,156.2,cs),
(170.5,156.2,o),
(135.3,133.1,o),
(135.3,70.4,cs),
(135.3,8.8,o),
(170.5,-17.6,o),
(216.7,-17.6,cs)
);
}
);
vertWidth = 235.4;
width = 514.8;
}
);
note = question;
unicode = 63;
userData = {
KernOnSpecialSpacing = {
L = "spaced-off";
};
};
}
{
color = 6;
glyphname = at;
layers = (
{
layerId = "9E010061-AAF6-435A-AC72-EA6F5DDC7760";
shapes = (
{
closed = 1;
nodes = (
(732,520,o),
(602,645,o),
(413,645,cs),
(187,645,o),
(43,474,o),
(43,256,cs),
(43,50,o),
(165,-76,o),
(384,-76,cs),
(460,-76,o),
(529,-61,o),
(585,-36,c),
(585,48,l),
(524,25,o),
(447,8,o),
(379,8,cs),
(224,8,o),
(138,98,o),
(138,259,cs),
(138,435,o),
(235,561,o),
(414,561,cs),
(545,561,o),
(637,473,o),
(637,324,cs),
(637,242,o),
(618,174,o),
(580,174,cs),
(573,174,o),
(567,179,o),
(560,187,cs),
(553,195,o),
(550,212,o),
(550,236,cs),
(550,238,o),
(550,242,o),
(550,249,cs),
(550,255,o),
(550,261,o),
(551,268,cs),
(560,452,l),
(527,464,o),
(462,476,o),
(407,476,cs),
(283,476,o),
(200,396,o),
(200,269,cs),
(200,166,o),
(258,95,o),
(364,95,cs),
(416,95,o),
(455,121,o),
(479,153,c),
(486,153,l),
(499,118,o),
(533,95,o),
(575,95,cs),
(681,95,o),
(732,210,o),
(732,323,cs)
);
},
{
closed = 1;
nodes = (
(301,339,o),
(335,396,o),
(411,396,cs),
(431,396,o),
(446,394,o),
(459,392,c),
(454,294,ls),
(450,223,o),
(430,174,o),
(372,174,cs),
(329,174,o),
(301,201,o),
(301,268,cs)
);
}
);
vertWidth = 1156;
width = 776;
},
{
layerId = "953CDB83-177D-4B72-9B41-8425D0D02E2F";
shapes = (
{
closed = 1;
nodes = (
(721,518,o),
(597,641,o),
(411,641,cs),
(187,641,o),
(48,486,o),
(48,254,cs),
(48,44,o),
(169,-85,o),
(367,-85,cs),
(438,-85,o),
(497,-71,o),
(548,-50,c),
(548,-6,l),
(495,-28,o),
(432,-45,o),
(367,-45,cs),
(192,-45,o),
(91,68,o),
(91,255,cs),
(91,468,o),
(216,600,o),
(411,600,cs),
(571,600,o),
(678,496,o),
(678,321,cs),
(678,214,o),
(644,137,o),
(581,137,cs),
(541,137,o),
(519,163,o),
(519,228,cs),
(519,245,o),
(520,264,o),
(521,285,cs),
(528,443,l),
(499,455,o),
(453,463,o),
(407,463,cs),
(297,463,o),
(223,379,o),
(223,262,cs),
(223,160,o),
(272,98,o),
(358,98,cs),
(417,98,o),
(462,129,o),
(485,185,c),
(488,185,l),
(494,134,o),
(524,98,o),
(579,98,cs),
(676,98,o),
(721,204,o),
(721,320,cs)
);
},
{
closed = 1;
nodes = (
(270,356,o),
(320,423,o),
(407,423,cs),
(435,423,o),
(462,419,o),
(482,412,c),
(476,288,ls),
(471,191,o),
(436,137,o),
(364,137,cs),
(304,137,o),
(270,178,o),
(270,261,cs)
);
}
);
vertWidth = 656;
width = 770;
},
{
layerId = "C85E24C5-F5D5-436B-96A2-CB17661C75AE";
shapes = (
{
closed = 1;
nodes = (
(728,520,o),
(598,644,o),
(415,644,cs),
(189,644,o),
(48,479,o),
(48,254,cs),
(48,48,o),
(167,-79,o),
(376,-79,cs),
(451,-79,o),
(514,-65,o),
(566,-42,c),
(566,23,l),
(512,2,o),
(443,-17,o),
(375,-17,cs),
(209,-17,o),
(117,81,o),
(117,256,cs),
(117,448,o),
(224,581,o),
(415,581,cs),
(558,581,o),
(659,488,o),
(659,323,cs),
(659,231,o),
(632,158,o),
(582,158,cs),
(556,158,o),
(534,173,o),
(534,233,cs),
(534,235,o),
(534,240,o),
(534,245,cs),
(534,250,o),
(534,258,o),
(535,267,cs),
(543,448,l),
(514,460,o),
(458,471,o),
(407,471,cs),
(291,471,o),
(217,387,o),
(217,266,cs),
(217,165,o),
(269,98,o),
(361,98,cs),
(420,98,o),
(459,130,o),
(482,172,c),
(487,172,l),
(495,132,o),
(526,98,o),
(577,98,cs),
(677,98,o),
(728,211,o),
(728,322,cs)
);
},
{
closed = 1;
nodes = (
(291,314,o),
(306,361,o),
(340,389,cs),
(358,403,o),
(380,410,o),
(408,410,cs),
(432,410,o),
(454,406,o),
(469,401,c),
(463,291,ls),
(459,211,o),
(434,158,o),
(371,158,cs),
(322,158,o),
(291,190,o),
(291,264,cs)
);
}
);
vertWidth = 177;
width = 777;
}
);
note = at;
unicode = 64;
}
{
color = 4;
glyphname = A;
kernLeft = KO_A;
kernRight = KO_A;
layers = (
{
anchors = (
{
name = bottom;
pos = (399.3,0);
},
{
name = ogonek;
pos = (718.3,13.2);
},
{
name = top;
pos = (399.3,858);
}
);
layerId = "9E010061-AAF6-435A-AC72-EA6F5DDC7760";
shapes = (
{
closed = 1;
nodes = (
(195.8,0,l),
(251.9,207.9,l),
(546.7,207.9,l),
(602.8,0,l),
(798.6,0,l),
(509.3,862.4,l),
(287.1,862.4,l),
(0,0,l)
);
},
{
closed = 1;
nodes = (
(350.9,557.7,l),
(399.3,728.2,l),
(447.7,557.7,l),
(506,357.5,l),
(295.9,357.5,l)
);
}
);
vertWidth = 1538.9;
width = 798.6;
},
{
anchors = (
{
name = bottom;
pos = (350.9,0);
},
{
name = ogonek;
pos = (632.5,13.2);
},
{
name = top;
pos = (350.9,858);
}
);
layerId = "953CDB83-177D-4B72-9B41-8425D0D02E2F";
shapes = (
{
closed = 1;
nodes = (
(70.4,0,l),
(179.3,297,l),
(520.3,297,l),
(629.2,0,l),
(699.6,0,l),
(385,862.4,l),
(322.3,862.4,l),
(0,0,l)
);
},
{
closed = 1;
nodes = (
(315.7,666.6,l),
(353.1,784.3,l),
(390.5,667.7,l),
(498.3,359.7,l),
(203.5,359.7,l)
);
}
);
vertWidth = 873.4;
width = 702.9;
},
{
anchors = (
{
name = bottom;
pos = (375.1,0);
},
{
name = ogonek;
pos = (676.5,13.2);
},
{
name = top;
pos = (375.1,858);
}
);
layerId = "C85E24C5-F5D5-436B-96A2-CB17661C75AE";
shapes = (
{
closed = 1;
nodes = (
(126.5,0,l),
(213.4,254.1,l),
(532.4,254.1,l),
(620.4,0,l),
(748,0,l),
(437.8,862.4,l),
(311.3,862.4,l),
(0,0,l)
);
},
{
closed = 1;
nodes = (
(334.4,610.5,l),
(374,748,l),
(415.8,612.7,l),
(499.4,360.8,l),
(249.7,360.8,l)
);
}
);
vertWidth = 235.4;
width = 750.2;
}
);
note = A;
unicode = 65;
userData = {
KernOnName = A;
};
}
{
color = 4;
glyphname = B;
kernLeft = KO_H;
kernRight = KO_B;
layers = (
{
anchors = (
{
name = bottom;
pos = (387.2,0);
},
{
name = center;
pos = (194.7,214.5);
},
{
name = top;
pos = (387.2,858);
}
);
layerId = "9E010061-AAF6-435A-AC72-EA6F5DDC7760";
shapes = (
{
closed = 1;
nodes = (
(412.5,0,ls),
(602.8,0,o),
(715,95.7,o),
(715,247.5,cs),
(715,379.5,o),
(651.2,435.6,o),
(569.8,448.8,c),
(569.8,455.4,l),
(644.6,468.6,o),
(693,539,o),
(693,640.2,cs),
(693,800.8,o),
(578.6,858,o),
(360.8,858,cs),
(102.3,858,l),
(102.3,0,l)
);
},
{
closed = 1;
nodes = (
(282.7,374,l),
(386.1,374,ls),
(490.6,374,o),
(528,335.5,o),
(528,266.2,cs),
(528,192.5,o),
(492.8,149.6,o),
(392.7,149.6,cs),
(282.7,149.6,l)
);
},
{
closed = 1;
nodes = (
(282.7,709.5,l),
(371.8,709.5,ls),
(466.4,709.5,o),
(509.3,683.1,o),
(509.3,617.1,cs),
(509.3,552.2,o),
(476.3,515.9,o),
(379.5,515.9,cs),
(282.7,515.9,l)
);
}
);
vertWidth = 1538.9;
width = 774.4;
},
{
anchors = (
{
name = bottom;
pos = (365.2,0);
},
{
name = center;
pos = (182.6,214.5);
},
{
name = top;
pos = (365.2,858);
}
);
layerId = "953CDB83-177D-4B72-9B41-8425D0D02E2F";
shapes = (
{
closed = 1;
nodes = (
(376.2,0,ls),
(550,0,o),
(664.4,80.3,o),
(664.4,243.1,cs),
(664.4,379.5,o),
(584.1,436.7,o),
(480.7,448.8,c),
(480.7,454.3,l),
(585.2,473,o),
(640.2,550,o),
(640.2,646.8,cs),
(640.2,796.4,o),
(545.6,858,o),
(343.2,858,cs),
(114.4,858,l),
(114.4,0,l)
);
},
{
closed = 1;
nodes = (
(183.7,419.1,l),
(360.8,419.1,ls),
(518.1,419.1,o),
(590.7,367.4,o),
(590.7,247.5,cs),
(590.7,126.5,o),
(520.3,59.4,o),
(369.6,59.4,cs),
(183.7,59.4,l)
);
},
{
closed = 1;
nodes = (
(183.7,796.4,l),
(343.2,796.4,ls),
(499.4,796.4,o),
(568.7,753.5,o),
(568.7,641.3,cs),
(568.7,534.6,o),
(511.5,479.6,o),
(357.5,479.6,cs),
(183.7,479.6,l)
);
}
);
vertWidth = 873.4;
width = 729.3;
},
{
anchors = (
{
name = bottom;
pos = (378.4,0);
},
{
name = center;
pos = (189.2,214.5);
},
{
name = top;
pos = (378.4,858);
}
);
layerId = "C85E24C5-F5D5-436B-96A2-CB17661C75AE";
shapes = (
{
closed = 1;
nodes = (
(400.4,0,ls),
(583,0,o),
(690.8,88,o),
(690.8,245.3,cs),
(690.8,376.2,o),
(616,435.6,o),
(518.1,448.8,c),
(518.1,455.4,l),
(613.8,474.1,o),
(665.5,543.4,o),
(665.5,644.6,cs),
(665.5,803,o),
(558.8,858,o),
(349.8,858,cs),
(108.9,858,l),
(108.9,0,l)
);
},
{
closed = 1;
nodes = (
(229.9,398.2,l),
(375.1,398.2,ls),
(511.5,398.2,o),
(564.3,346.5,o),
(564.3,255.2,cs),
(564.3,160.6,o),
(515.9,101.2,o),
(381.7,101.2,cs),
(229.9,101.2,l)
);
},
{
closed = 1;
nodes = (
(229.9,755.7,l),
(355.3,755.7,ls),
(484,755.7,o),
(541.2,720.5,o),
(541.2,629.2,cs),
(541.2,543.4,o),
(499.4,498.3,o),
(369.6,498.3,cs),
(229.9,498.3,l)
);
}
);
vertWidth = 235.4;
width = 754.6;
}
);
note = B;
unicode = 66;
}
{
glyphname = C;
kernLeft = C;
kernRight = C;
layers = (
{
layerId = "9E010061-AAF6-435A-AC72-EA6F5DDC7760";
shapes = (
{
closed = 1;
nodes = (
(441.813,516.613,o),
(477.753,498.578,q),
(520.637,608.116,l),
(477.384,629.702,o),
(384.886,653.131,o),
(338.397,653.131,qs),
(268.975,653.131,o),
(161.26,605.095,o),
(88.311,515.739,o),
(49.503,394.008,o),
(49.503,321.233,qs),
(49.503,222.009,o),
(107.826,72.908,o),
(231.675,-9.212,o),
(326.049,-9.212,qs),
(376.323,-9.212,o),
(456.105,6.847,o),
(497.08,23.695,q),
(497.08,138.104,l),
(451.549,120.857,o),
(377.205,104.01,o),
(338.653,104.01,qs),
(286.941,104.01,o),
(220.013,155.322,o),
(188.698,251.497,o),
(188.698,320.312,qs),
(188.698,372.022,o),
(208.068,453.202,o),
(245.925,510.041,o),
(302.415,540.83,o),
(338.397,540.83,qs),
(372.135,540.83,o)
);
}
);
vertWidth = 1156;
width = 551.13879;
},
{
layerId = "953CDB83-177D-4B72-9B41-8425D0D02E2F";
shapes = (
{
closed = 1;
nodes = (
(458.942,590.107,o),
(491.14,572.689,q),
(512.156,617.304,l),
(477.875,635.673,o),
(395.374,653.131,o),
(349.346,653.131,qs),
(278.759,653.131,o),
(168.36,605.25,o),
(92.62,516.811,o),
(53.812,396.152,o),
(53.812,324.296,qs),
(53.812,222.927,o),
(116.445,72.754,o),
(241.811,-9.212,o),
(335.372,-9.212,qs),
(386.459,-9.212,o),
(462.04,5.467,o),
(493.936,18.333,q),
(493.936,62.921,l),
(460.52,51.954,o),
(386.528,38.17,o),
(341.122,38.17,qs),
(263.8,38.17,o),
(160.206,108.314,o),
(108.403,237.564,o),
(108.403,323.375,qs),
(108.403,386.11,o),
(140.808,491.33,o),
(203.109,566.083,o),
(292.416,606.67,o),
(349.346,606.67,qs),
(388.451,606.67,o)
);
}
);
vertWidth = 656;
width = 540.32725;
},
{
layerId = "C85E24C5-F5D5-436B-96A2-CB17661C75AE";
shapes = (
{
closed = 1;
nodes = (
(454.738,553.273,o),
(485.557,538.434,q),
(518.87,613.87,l),
(482.127,632.739,o),
(393.134,653.131,o),
(345.917,653.131,qs),
(275.58,653.131,o),
(165.21,605.894,o),
(91.155,516.645,o),
(52.347,395.819,o),
(52.347,323.151,qs),
(52.347,222.116,o),
(113.514,72.109,o),
(239.101,-9.212,o),
(333.38,-9.212,qs),
(383.749,-9.212,o),
(459.138,4.344,o),
(495.152,19.166,q),
(495.152,97.342,l),
(458.059,84.731,o),
(384.536,69.801,o),
(344.407,69.801,qs),
(278.003,69.801,o),
(190.411,130.332,o),
(147.342,244.41,o),
(147.342,322.23,qs),
(147.342,379.908,o),
(173.694,474.036,o),
(225.327,539.987,o),
(298.909,575.039,o),
(345.917,575.039,qs),
(384.966,575.039,o)
);
}
);
vertWidth = 177;
width = 547.53875;
}
);
note = C;
unicode = 67;
}
{
color = 4;
glyphname = D;
kernLeft = KO_H;
kernRight = KO_D;
layers = (
{
anchors = (
{
name = bottom;
pos = (427,0);
},
{
name = center;
pos = (215,431);
},
{
name = top;
pos = (427,862);
}
);
layerId = "9E010061-AAF6-435A-AC72-EA6F5DDC7760";
shapes = (
{
closed = 1;
nodes = (
(336,0,ls),
(615,0,o),
(784,140,o),
(784,438,cs),
(784,723,o),
(608,858,o),
(361,858,cs),
(102,858,l),
(102,0,l)
);
},
{
closed = 1;
nodes = (
(283,710,l),
(374,710,ls),
(520,710,o),
(597,623,o),
(597,432,cs),
(597,245,o),
(520,150,o),
(354,150,cs),
(283,150,l)
);
}
);
vertWidth = 1538.9;
width = 855;
},
{
anchors = (
{
name = bottom;
pos = (411,0);
},
{
name = center;
pos = (205,431);
},
{
name = top;
pos = (411,862);
}
);
layerId = "953CDB83-177D-4B72-9B41-8425D0D02E2F";
shapes = (
{
closed = 1;
nodes = (
(319,0,ls),
(600,0,o),
(748,150,o),
(748,438,cs),
(748,712,o),
(601,858,o),
(347,858,cs),
(114,858,l),
(114,0,l)
);
},
{
closed = 1;
nodes = (
(184,796,l),
(333,796,ls),
(560,796,o),
(674,677,o),
(674,436,cs),
(674,186,o),
(553,62,o),
(315,62,cs),
(184,62,l)
);
}
);
vertWidth = 873.4;
width = 822;
},
{
anchors = (
{
name = bottom;
pos = (420,0);
},
{
name = center;
pos = (210,431);
},
{
name = top;
pos = (420,862);
}
);
layerId = "C85E24C5-F5D5-436B-96A2-CB17661C75AE";
shapes = (
{
closed = 1;
nodes = (
(337,0,ls),
(614,0,o),
(772,152,o),
(772,438,cs),
(772,717,o),
(606,858,o),
(362,858,cs),
(109,858,l),
(109,0,l)
);
},
{
closed = 1;
nodes = (
(230,756,l),
(354,756,ls),
(516,756,o),
(645,678,o),
(645,433,cs),
(645,215,o),
(540,102,o),
(333,102,cs),
(230,102,l)
);
}
);
vertWidth = 235.4;
width = 842;
}
);
note = D;
unicode = 68;
}
{
glyphname = E;
layers = (
{
layerId = "9E010061-AAF6-435A-AC72-EA6F5DDC7760";
shapes = (
{
closed = 1;
nodes = (
(211.998,111.247,l),
(211.998,279.494,l),
(417.075,279.494,l),
(417.075,389.686,l),
(211.998,389.686,l),
(211.998,533.726,l),
(432.951,533.726,l),
(432.951,644.84,l),
(77.213,644.84,l),
(77.213,0,l),
(432.951,0,l),
(432.951,111.247,l)
);
}
);
vertWidth = 1156;
width = 484.98879;
},
{
layerId = "953CDB83-177D-4B72-9B41-8425D0D02E2F";
shapes = (
{
closed = 1;
nodes = (
(138.098,46.479,l),
(138.098,315.323,l),
(409.514,315.323,l),
(409.514,361.82,l),
(138.098,361.82,l),
(138.098,597.422,l),
(425.39,597.422,l),
(425.39,644.84,l),
(86.292,644.84,l),
(86.292,0,l),
(425.39,0,l),
(425.39,46.479,l)
);
}
);
vertWidth = 656;
width = 479.05409;
},
{
layerId = "C85E24C5-F5D5-436B-96A2-CB17661C75AE";
shapes = (
{
closed = 1;
nodes = (
(172.948,77.944,l),
(172.948,297.718,l),
(413.853,297.718,l),
(413.853,375.513,l),
(172.948,375.513,l),
(172.948,566.124,l),
(429.729,566.124,l),
(429.729,644.84,l),
(82.174,644.84,l),
(82.174,0,l),
(429.729,0,l),
(429.729,77.944,l)
);
}
);
vertWidth = 177;
width = 481.95582;
}
);
note = E;
unicode = 69;
}
{
color = 4;
glyphname = F;
kernLeft = KO_H;
kernRight = KO_F;
layers = (
{
anchors = (
{
name = bottom;
pos = (191.4,0);
},
{
name = top;
pos = (363,858);
}
);
layerId = "9E010061-AAF6-435A-AC72-EA6F5DDC7760";
shapes = (
{
closed = 1;
nodes = (
(279.4,0,l),
(279.4,339.9,l),
(552.2,339.9,l),
(552.2,487.3,l),
(279.4,487.3,l),
(279.4,710.6,l),
(575.3,710.6,l),
(575.3,858,l),
(102.3,858,l),
(102.3,0,l)
);
}
);
vertWidth = 1538.9;
width = 634.7;
},
{
anchors = (
{
name = bottom;
pos = (151.8,0);
},
{
name = top;
pos = (341,858);
}
);
layerId = "953CDB83-177D-4B72-9B41-8425D0D02E2F";
shapes = (
{
closed = 1;
nodes = (
(183.7,0,l),
(183.7,379.5,l),
(544.5,379.5,l),
(544.5,442.2,l),
(183.7,442.2,l),
(183.7,794.2,l),
(566.5,794.2,l),
(566.5,858,l),
(114.4,858,l),
(114.4,0,l)
);
}
);
vertWidth = 873.4;
width = 583;
},
{
anchors = (
{
name = bottom;
pos = (169.4,0);
},
{
name = top;
pos = (350.9,858);
}
);
layerId = "C85E24C5-F5D5-436B-96A2-CB17661C75AE";
shapes = (
{
closed = 1;
nodes = (
(229.9,0,l),
(229.9,359.7,l),
(548.9,359.7,l),
(548.9,463.1,l),
(229.9,463.1,l),
(229.9,753.5,l),
(570.9,753.5,l),
(570.9,858,l),
(108.9,858,l),
(108.9,0,l)
);
}
);
vertWidth = 235.4;
width = 607.2;
}
);
note = F;
unicode = 70;
}
{
color = 4;
glyphname = G;
kernLeft = KO_O;
kernRight = KO_G;
layers = (
{
anchors = (
{
name = bottom;
pos = (448,0);
},
{
name = top;
pos = (494,858);
}
);
layerId = "9E010061-AAF6-435A-AC72-EA6F5DDC7760";
shapes = (
{
closed = 1;
nodes = (
(565,-12,o),
(653,8,o),
(739,36,c),
(739,482,l),
(411,482,l),
(411,330,l),
(564,330,l),
(564,151,l),
(537,144,o),
(505,139,o),
(458,139,cs),
(310,139,o),
(252,255,o),
(252,426,cs),
(252,604,o),
(349,721,o),
(494,721,cs),
(564,721,o),
(631,700,o),
(680,673,c),
(739,816,l),
(671,849,o),
(582,869,o),
(495,869,cs),
(222,869,o),
(67,703,o),
(67,430,cs),
(67,144,o),
(207,-12,o),
(448,-12,cs)
);
}
);
vertWidth = 1538.9;
width = 833;
},
{
anchors = (
{
name = bottom;
pos = (471,0);
},
{
name = top;
pos = (494,858);
}
);
layerId = "953CDB83-177D-4B72-9B41-8425D0D02E2F";
shapes = (
{
closed = 1;
nodes = (
(574,-12,o),
(664,4,o),
(746,37,c),
(746,437,l),
(449,437,l),
(449,373,l),
(677,373,l),
(677,80,l),
(624,63,o),
(565,50,o),
(486,50,cs),
(262,50,o),
(144,178,o),
(144,429,cs),
(144,657,o),
(273,810,o),
(488,810,cs),
(564,810,o),
(639,791,o),
(707,759,c),
(735,818,l),
(661,855,o),
(582,870,o),
(493,870,cs),
(234,870,o),
(72,697,o),
(72,427,cs),
(72,150,o),
(210,-12,o),
(471,-12,cs)
);
}
);
vertWidth = 873.4;
width = 835;
},
{
anchors = (
{
name = bottom;
pos = (466,0);
},
{
name = top;
pos = (496,858);
}
);
layerId = "C85E24C5-F5D5-436B-96A2-CB17661C75AE";
shapes = (
{
closed = 1;
nodes = (
(575,-12,o),
(661,2,o),
(748,33,c),
(748,458,l),
(450,458,l),
(450,353,l),
(628,353,l),
(628,110,l),
(590,100,o),
(545,91,o),
(480,91,cs),
(279,91,o),
(196,224,o),
(196,429,cs),
(196,639,o),
(311,766,o),
(490,766,cs),
(565,766,o),
(638,744,o),
(696,716,c),
(740,818,l),
(670,851,o),
(585,869,o),
(495,869,cs),
(228,869,o),
(69,699,o),
(69,429,cs),
(69,147,o),
(211,-12,o),
(459,-12,cs)
);
}
);
vertWidth = 235.4;
width = 837;
}
);
note = G;
unicode = 71;
}
{
color = 4;
glyphname = H;
layers = (
{
anchors = (
{
name = bottom;
pos = (332,0);
},
{
name = center;
pos = (332,484);
},
{
name = top;
pos = (332,645);
},
{
name = topleft;
pos = (20,645);
}
);
layerId = "9E010061-AAF6-435A-AC72-EA6F5DDC7760";
shapes = (
{
closed = 1;
nodes = (
(212,0,l),
(212,279,l),
(451,279,l),
(451,0,l),
(585,0,l),
(585,645,l),
(451,645,l),
(451,391,l),
(212,391,l),
(212,645,l),
(77,645,l),
(77,0,l)
);
}
);
vertWidth = 1156;
width = 663;
},
{
anchors = (
{
name = bottom;
pos = (313,0);
},
{
name = center;
pos = (313,484);
},
{
name = top;
pos = (313,645);
},
{
name = topleft;
pos = (20,645);
}
);
layerId = "953CDB83-177D-4B72-9B41-8425D0D02E2F";
shapes = (
{
closed = 1;
nodes = (
(138,0,l),
(138,314,l),
(487,314,l),
(487,0,l),
(540,0,l),
(540,645,l),
(487,645,l),
(487,361,l),
(138,361,l),
(138,645,l),
(86,645,l),
(86,0,l)
);
}
);
vertWidth = 656;
width = 626;
},
{
anchors = (
{
name = bottom;
pos = (323,0);
},
{
name = center;
pos = (323,484);
},
{
name = top;
pos = (323,645);
},
{
name = topleft;
pos = (20,645);
}
);
layerId = "C85E24C5-F5D5-436B-96A2-CB17661C75AE";
shapes = (
{
closed = 1;
nodes = (
(173,0,l),
(173,297,l),
(471,297,l),
(471,0,l),
(562,0,l),
(562,645,l),
(471,645,l),
(471,376,l),
(173,376,l),
(173,645,l),
(82,645,l),
(82,0,l)
);
}
);
vertWidth = 177;
width = 645;
}
);
note = H;
unicode = 72;
}
{
color = 4;
glyphname = I;
kernLeft = KO_I;
kernRight = KO_I;
layers = (
{
anchors = (
{
name = bottom;
pos = (227,0);
},
{
name = ogonek;
pos = (406,13);
},
{
name = top;
pos = (227,858);
},
{
name = topleft;
pos = (26,858);
}
);
layerId = "9E010061-AAF6-435A-AC72-EA6F5DDC7760";
shapes = (
{
closed = 1;
nodes = (
(416,0,l),
(416,150,l),
(317,150,l),
(317,708,l),
(416,708,l),
(416,858,l),
(36,858,l),
(36,708,l),
(138,708,l),
(138,150,l),
(36,150,l),
(36,0,l)
);
}
);
vertWidth = 1538.9;
width = 451;
},
{
anchors = (
{
name = bottom;
pos = (179,0);
},
{
name = ogonek;
pos = (323,13);
},
{
name = top;
pos = (179,858);
},
{
name = topleft;
pos = (26,858);
}
);
layerId = "953CDB83-177D-4B72-9B41-8425D0D02E2F";
shapes = (
{
closed = 1;
nodes = (
(304,0,l),
(304,57,l),
(215,57,l),
(215,800,l),
(304,800,l),
(304,858,l),
(57,858,l),
(57,800,l),
(145,800,l),
(145,57,l),
(57,57,l),
(57,0,l)
);
}
);
vertWidth = 873.4;
width = 360;
},
{
anchors = (
{
name = bottom;
pos = (202,0);
},
{
name = ogonek;
pos = (363,13);
},
{
name = top;
pos = (202,858);
},
{
name = topleft;
pos = (26,858);
}
);
layerId = "C85E24C5-F5D5-436B-96A2-CB17661C75AE";
shapes = (
{
closed = 1;
nodes = (
(360,0,l),
(360,99,l),
(262,99,l),
(262,759,l),
(360,759,l),
(360,858,l),
(44,858,l),
(44,759,l),
(141,759,l),
(141,99,l),
(44,99,l),
(44,0,l)
);
}
);
vertWidth = 235.4;
width = 404;
}
);
note = I;
unicode = 73;
userData = {
KernOnName = I;
};
}
{
color = 4;
glyphname = J;
kernRight = KO_J;
layers = (
{
anchors = (
{
name = bottom;
pos = (193,0);
},
{
name = top;
pos = (193,862);
}
);
layerId = "9E010061-AAF6-435A-AC72-EA6F5DDC7760";
shapes = (
{
closed = 1;
nodes = (
(183,-252,o),
(283,-158,o),
(283,53,cs),
(283,858,l),
(102,858,l),
(102,53,ls),
(102,-64,o),
(67,-101,o),
(-2,-101,cs),
(-33,-101,o),
(-59,-95,o),
(-85,-89,c),
(-85,-239,l),
(-59,-243,o),
(-27,-252,o),
(19,-252,cs)
);
}
);
vertWidth = 1538.9;
width = 385;
},
{
anchors = (
{
name = bottom;
pos = (145,0);
},
{
name = top;
pos = (145,862);
}
);
layerId = "953CDB83-177D-4B72-9B41-8425D0D02E2F";
shapes = (
{
closed = 1;
nodes = (
(113,-218,o),
(183,-137,o),
(183,8,cs),
(183,858,l),
(113,858,l),
(113,4,ls),
(113,-103,o),
(68,-156,o),
(-13,-156,cs),
(-46,-156,o),
(-77,-151,o),
(-100,-141,c),
(-100,-203,l),
(-80,-210,o),
(-51,-218,o),
(-12,-218,cs)
);
}
);
vertWidth = 873.4;
width = 290;
},
{
anchors = (
{
name = bottom;
pos = (166,0);
},
{
name = top;
pos = (166,862);
}
);
layerId = "C85E24C5-F5D5-436B-96A2-CB17661C75AE";
shapes = (
{
closed = 1;
nodes = (
(141,-233,o),
(227,-150,o),
(227,23,cs),
(227,858,l),
(107,858,l),
(107,17,ls),
(107,-91,o),
(57,-128,o),
(-7,-128,cs),
(-37,-128,o),
(-66,-121,o),
(-89,-115,c),
(-89,-217,l),
(-68,-228,o),
(-37,-233,o),
(0,-233,cs)
);
}
);
vertWidth = 235.4;
width = 331;
}
);
note = J;
unicode = 74;
}
{
color = 4;
glyphname = K;
kernRight = K;
layers = (
{
anchors = (
{
name = bottom;
pos = (289,0);
},
{
name = top;
pos = (289,645);
}
);
layerId = "9E010061-AAF6-435A-AC72-EA6F5DDC7760";
shapes = (
{
closed = 1;
nodes = (
(212,0,l),
(212,231,l),
(267,283,l),
(424,0,l),
(577,0,l),
(353,360,l),
(576,645,l),
(426,645,l),
(259,416,l),
(212,349,l),
(212,645,l),
(77,645,l),
(77,0,l),
(77,0,l)
);
}
);
vertWidth = 1156;
width = 577;
},
{
anchors = (
{
name = bottom;
pos = (256,0);
},
{
name = top;
pos = (256,648);
}
);
layerId = "953CDB83-177D-4B72-9B41-8425D0D02E2F";
shapes = (
{
closed = 1;
nodes = (
(138,0,l),
(138,257,l),
(214,334,l),
(448,0,l),
(511,0,l),
(252,370,l),
(503,645,l),
(439,645,l),
(217,396,l),
(138,309,l),
(138,645,l),
(86,645,l),
(86,0,l),
(86,0,l)
);
}
);
vertWidth = 656;
width = 511;
},
{
anchors = (
{
name = bottom;
pos = (273,0);
},
{
name = top;
pos = (273,648);
}
);
layerId = "C85E24C5-F5D5-436B-96A2-CB17661C75AE";
shapes = (
{
closed = 1;
nodes = (
(173,0,l),
(173,246,l),
(236,302,l),
(438,0,l),
(544,0,l),
(301,363,l),
(537,645,l),
(433,645,l),
(260,437,l),
(173,330,l),
(173,645,l),
(82,645,l),
(82,0,l),
(82,0,l)
);
}
);
vertWidth = 177;
width = 545;
}
);
note = K;
unicode = 75;
}
{
glyphname = L;
kernRight = L;
layers = (
{
layerId = "9E010061-AAF6-435A-AC72-EA6F5DDC7760";
shapes = (
{
closed = 1;
nodes = (
(461.021,111.114,l),
(211.998,111.114,l),
(211.998,644.84,l),
(77.213,644.84,l),
(77.213,0,l),
(461.021,0,l)
);
}
);
vertWidth = 1156;
width = 492.80791;
},
{
layerId = "953CDB83-177D-4B72-9B41-8425D0D02E2F";
shapes = (
{
closed = 1;
nodes = (
(426.089,46.5,l),
(138.098,46.5,l),
(138.098,644.84,l),
(86.292,644.84,l),
(86.292,0,l),
(426.089,0,l)
);
}
);
vertWidth = 656;
width = 445.65302;
},
{
layerId = "C85E24C5-F5D5-436B-96A2-CB17661C75AE";
shapes = (
{
closed = 1;
nodes = (
(438.997,78.61,l),
(172.948,78.61,l),
(172.948,644.84,l),
(82.174,644.84,l),
(82.174,0,l),
(438.997,0,l)
);
}
);
vertWidth = 177;
width = 463.8959;
}
);
note = L;
unicode = 76;
}
{
color = 4;
glyphname = M;
kernLeft = KO_H;
kernRight = KO_H;
layers = (
{
anchors = (
{
name = bottom;
pos = (545,0);
},
{
name = top;
pos = (545,862);
}
);
layerId = "9E010061-AAF6-435A-AC72-EA6F5DDC7760";
shapes = (
{
closed = 1;
nodes = (
(262,0,l),
(262,402,ls),
(262,491,o),
(255,595,o),
(252,677,c),
(257,677,l),
(450,0,l),
(615,0,l),
(823,674,l),
(826,674,l),
(825,659,o),
(818,516,o),
(818,408,cs),
(818,0,l),
(985,0,l),
(985,858,l),
(741,858,l),
(540,201,l),
(537,201,l),
(347,858,l),
(102,858,l),
(102,0,l)
);
}
);
vertWidth = 1538.9;
width = 1088;
},
{
anchors = (
{
name = bottom;
pos = (505,0);
},
{
name = top;
pos = (505,862);
}
);
layerId = "953CDB83-177D-4B72-9B41-8425D0D02E2F";
shapes = (
{
closed = 1;
nodes = (
(178,0,l),
(178,617,ls),
(178,682,o),
(178,746,o),
(176,784,c),
(177,784,l),
(473,0,l),
(528,0,l),
(824,782,l),
(828,782,l),
(825,741,o),
(823,685,o),
(823,626,cs),
(823,0,l),
(892,0,l),
(892,858,l),
(788,858,l),
(505,107,l),
(501,107,l),
(220,858,l),
(114,858,l),
(114,0,l)
);
}
);
vertWidth = 873.4;
width = 1008;
},
{
anchors = (
{
name = bottom;
pos = (526,0);
},
{
name = top;
pos = (526,862);
}
);
layerId = "C85E24C5-F5D5-436B-96A2-CB17661C75AE";
shapes = (
{
closed = 1;
nodes = (
(220,0,l),
(220,503,ls),
(220,589,o),
(216,673,o),
(211,737,c),
(216,737,l),
(468,0,l),
(571,0,l),
(828,736,l),
(833,736,l),
(831,689,o),
(825,594,o),
(825,509,cs),
(825,0,l),
(943,0,l),
(943,858,l),
(769,858,l),
(526,160,l),
(520,160,l),
(283,858,l),
(109,858,l),
(109,0,l)
);
}
);
vertWidth = 235.4;
width = 1052;
}
);
note = M;
unicode = 77;
}
{
glyphname = N;
layers = (
{
layerId = "9E010061-AAF6-435A-AC72-EA6F5DDC7760";
shapes = (
{
closed = 1;
nodes = (
(507.81,644.84,l),
(507.81,337.881,ls),
(507.81,308.4,o),
(511.595,248.401,o),
(513.102,189.311,o),
(513.984,160.08,q),
(511.595,160.08,l),
(248.632,644.84,l),
(77.213,644.84,l),
(77.213,0,l),
(196.97,0,l),
(196.97,304.329,ls),
(196.97,336.44,o),
(194.324,396.838,o),
(191.678,458.036,o),
(189.657,488.711,q),
(193.442,488.711,l),
(457.286,0,l),
(628.191,0,l),
(628.191,644.84,l)
);
}
);
vertWidth = 1156;
width = 707.68228;
},
{
layerId = "953CDB83-177D-4B72-9B41-8425D0D02E2F";
shapes = (
{
closed = 1;
nodes = (
(495.94,644.84,l),
(495.94,236.064,ls),
(495.94,210.259,o),
(497.747,153.923,o),
(499.607,100.496,o),
(499.676,83.215,q),
(496.934,83.215,l),
(142.835,644.84,l),
(86.292,644.84,l),
(86.292,0,l),
(134.479,0,l),
(134.479,406.909,ls),
(134.479,435.499,o),
(133.459,489.017,o),
(131.626,540.571,o),
(130.77,563.431,q),
(133.39,563.431,l),
(489.183,0,l),
(545.918,0,l),
(545.918,644.84,l)
);
}
);
vertWidth = 656;
width = 632.15679;
},
{
layerId = "C85E24C5-F5D5-436B-96A2-CB17661C75AE";
shapes = (
{
closed = 1;
nodes = (
(501.744,644.84,l),
(501.744,289.336,ls),
(501.744,260.285,o),
(504.518,196.024,o),
(506.847,138.374,o),
(507.634,119.903,q),
(504.423,119.903,l),
(191.034,644.84,l),
(82.174,644.84,l),
(82.174,0,l),
(164.713,0,l),
(164.713,352.181,ls),
(164.713,384.662,o),
(162.256,446.605,o),
(159.704,504.339,o),
(158.6,527.076,q),
(161.468,527.076,l),
(475.834,0,l),
(585.824,0,l),
(585.824,644.84,l)
);
}
);
vertWidth = 177;
width = 668.4427;
}
);
note = N;
unicode = 78;
}
{
color = 4;
glyphname = O;
kernLeft = KO_O;
kernRight = KO_O;
layers = (
{
anchors = (
{
name = bottom;
pos = (458.7,0);
},
{
name = center;
pos = (458.7,431.2);
},
{
name = ogonek;
pos = (556.6,13.2);
},
{
name = top;
pos = (458.7,862.4);
},
{
name = topleft;
pos = (26.4,862.4);
},
{
name = topright;
pos = (892.1,862.4);
}
);
layerId = "9E010061-AAF6-435A-AC72-EA6F5DDC7760";
shapes = (
{
closed = 1;
nodes = (
(722.7,-12.1,o),
(850.3,157.3,o),
(850.3,430.1,cs),
(850.3,704,o),
(723.8,870.1,o),
(458.7,870.1,cs),
(179.3,870.1,o),
(67.1,689.7,o),
(67.1,431.2,cs),
(67.1,162.8,o),
(190.3,-12.1,o),
(457.6,-12.1,cs)
);
},
{
closed = 1;
nodes = (
(315.7,139.7,o),
(255.2,247.5,o),
(255.2,430.1,cs),
(255.2,612.7,o),
(315.7,721.6,o),
(458.7,721.6,cs),
(602.8,721.6,o),
(661.1,612.7,o),
(661.1,430.1,cs),
(661.1,245.3,o),
(603.9,139.7,o),
(457.6,139.7,cs)
);
}
);
vertWidth = 1538.9;
width = 918.5;
},
{
anchors = (
{
name = bottom;
pos = (443.3,0);
},
{
name = center;
pos = (442.2,430.1);
},
{
name = ogonek;
pos = (556.6,13.2);
},
{
name = top;
pos = (443.3,862.4);
},
{
name = topleft;
pos = (26.4,862.4);
},
{
name = topright;
pos = (858,862.4);
}
);
layerId = "953CDB83-177D-4B72-9B41-8425D0D02E2F";
shapes = (
{
closed = 1;
nodes = (
(689.7,-12.1,o),
(811.8,169.4,o),
(811.8,430.1,cs),
(811.8,708.4,o),
(679.8,870.1,o),
(445.5,870.1,cs),
(202.4,870.1,o),
(71.5,701.8,o),
(71.5,431.2,cs),
(71.5,162.8,o),
(194.7,-12.1,o),
(442.2,-12.1,cs)
);
},
{
closed = 1;
nodes = (
(224.4,49.5,o),
(144.1,223.3,o),
(144.1,430.1,cs),
(144.1,663.3,o),
(243.1,809.6,o),
(445.5,809.6,cs),
(642.4,809.6,o),
(740.3,669.9,o),
(740.3,430.1,cs),
(740.3,196.9,o),
(642.4,49.5,o),
(442.2,49.5,cs)
);
}
);
vertWidth = 873.4;
width = 885.5;
},
{
anchors = (
{
name = bottom;
pos = (451,0);
},
{
name = center;
pos = (451,431.2);
},
{
name = ogonek;
pos = (556.6,13.2);
},
{
name = top;
pos = (451,862.4);
},
{
name = topleft;
pos = (26.4,862.4);
},
{
name = topright;
pos = (875.6,862.4);
}
);
layerId = "C85E24C5-F5D5-436B-96A2-CB17661C75AE";
shapes = (
{
closed = 1;
nodes = (
(701.8,-12.1,o),
(832.7,159.5,o),
(832.7,430.1,cs),
(832.7,708.4,o),
(697.4,870.1,o),
(452.1,870.1,cs),
(196.9,870.1,o),
(69.3,701.8,o),
(69.3,431.2,cs),
(69.3,167.2,o),
(190.3,-12.1,o),
(451,-12.1,cs)
);
},
{
closed = 1;
nodes = (
(257.4,91.3,o),
(196.9,248.6,o),
(196.9,430.1,cs),
(196.9,642.4,o),
(279.4,766.7,o),
(452.1,766.7,cs),
(628.1,766.7,o),
(705.1,641.3,o),
(705.1,430.1,cs),
(705.1,223.3,o),
(629.2,91.3,o),
(451,91.3,cs)
);
}
);
vertWidth = 235.4;
width = 902;
}
);
note = O;
unicode = 79;
userData = {
KernOnName = O;
};
}
{
glyphname = P;
kernRight = P;
layers = (
{
layerId = "9E010061-AAF6-435A-AC72-EA6F5DDC7760";
shapes = (
{
closed = 1;
nodes = (
(77.213,0,l),
(211.998,0,l),
(211.998,229.882,l),
(266.87,229.882,ls),
(333.645,229.882,o),
(425.484,263.967,o),
(481.932,325.165,o),
(505.233,400.969,o),
(505.233,443.743,qs),
(505.233,537.05,o),
(396.378,644.84,o),
(277.822,644.84,qs),
(77.213,644.84,l)
);
},
{
closed = 1;
nodes = (
(368.941,487.154,o),
(368.941,439.004,qs),
(368.941,404.407,o),
(341.008,360.863,o),
(288.817,340.208,o),
(253.751,340.208,qs),
(211.998,340.208,l),
(211.998,533.461,l),
(270.766,533.461,ls),
(321.93,533.461,o)
);
}
);
vertWidth = 1156;
width = 544.77688;
},
{
layerId = "953CDB83-177D-4B72-9B41-8425D0D02E2F";
shapes = (
{
closed = 1;
nodes = (
(86.292,0,l),
(138.098,0,l),
(138.098,262.802,l),
(227.628,262.802,ls),
(288.253,262.802,o),
(377.899,290.46,o),
(435.16,342.014,o),
(464.042,415.673,o),
(464.042,461.657,qs),
(464.042,553.738,o),
(352.857,644.84,o),
(240.911,644.84,qs),
(86.292,644.84,l)
);
},
{
closed = 1;
nodes = (
(409.563,531.862,o),
(409.563,459.827,qs),
(409.563,403.489,o),
(365.805,336.978,o),
(281.364,309.278,o),
(222.07,309.278,qs),
(138.098,309.278,l),
(138.098,598.383,l),
(235.481,598.383,ls),
(324.368,598.383,o)
);
}
);
vertWidth = 656;
width = 511.49953;
},
{
layerId = "C85E24C5-F5D5-436B-96A2-CB17661C75AE";
shapes = (
{
closed = 1;
nodes = (
(82.174,0,l),
(172.948,0,l),
(172.948,246.987,l),
(242.002,246.987,ls),
(308.843,246.987,o),
(402.77,280.324,o),
(459.313,338.057,o),
(484.824,412.05,o),
(484.824,452.855,qs),
(484.824,544.457,o),
(374.137,644.84,o),
(254.787,644.84,qs),
(82.174,644.84,l)
);
},
{
closed = 1;
nodes = (
(391.626,509.533,o),
(391.626,449.235,qs),
(391.626,404.3,o),
(355.606,348.714,o),
(284.045,324.116,o),
(232.105,324.116,qs),
(172.948,324.116,l),
(172.948,567.562,l),
(247.92,567.562,ls),
(322.214,567.562,o)
);
}
);
vertWidth = 177;
width = 528.41202;
}
);
note = P;
unicode = 80;
}
{
color = 4;
glyphname = Q;
kernLeft = C;
kernRight = D;
layers = (
{
layerId = "9E010061-AAF6-435A-AC72-EA6F5DDC7760";
shapes = (
{
closed = 1;
nodes = (
(637,-154,l),
(489,20,l),
(589,67,o),
(639,179,o),
(639,323,cs),
(639,529,o),
(544,654,o),
(345,654,cs),
(135,654,o),
(50,518,o),
(50,324,cs),
(50,122,o),
(143,-9,o),
(344,-9,cs),
(347,-9,o),
(350,-9,o),
(353,-9,c),
(466,-154,l)
);
},
{
closed = 1;
nodes = (
(237,105,o),
(192,186,o),
(192,323,cs),
(192,460,o),
(237,542,o),
(345,542,cs),
(453,542,o),
(497,460,o),
(497,323,cs),
(497,184,o),
(454,105,o),
(344,105,cs)
);
}
);
vertWidth = 1156;
width = 690;
},
{
layerId = "953CDB83-177D-4B72-9B41-8425D0D02E2F";
shapes = (
{
closed = 1;
nodes = (
(551,-154,l),
(415,2,l),
(540,33,o),
(610,155,o),
(610,323,cs),
(610,532,o),
(511,654,o),
(335,654,cs),
(152,654,o),
(54,527,o),
(54,324,cs),
(54,122,o),
(146,-9,o),
(332,-9,cs),
(343,-9,o),
(348,-9,o),
(359,-8,c),
(477,-154,l)
);
},
{
closed = 1;
nodes = (
(169,37,o),
(108,168,o),
(108,323,cs),
(108,498,o),
(183,608,o),
(335,608,cs),
(483,608,o),
(556,503,o),
(556,323,cs),
(556,148,o),
(483,37,o),
(332,37,cs)
);
}
);
vertWidth = 656;
width = 665;
},
{
layerId = "C85E24C5-F5D5-436B-96A2-CB17661C75AE";
shapes = (
{
closed = 1;
nodes = (
(599,-154,l),
(452,10,l),
(563,48,o),
(626,161,o),
(626,323,cs),
(626,532,o),
(524,654,o),
(340,654,cs),
(148,654,o),
(52,527,o),
(52,324,cs),
(52,126,o),
(143,-9,o),
(339,-9,cs),
(347,-9,o),
(355,-8,o),
(358,-8,c),
(475,-154,l)
);
},
{
closed = 1;
nodes = (
(193,69,o),
(148,187,o),
(148,323,cs),
(148,483,o),
(210,576,o),
(340,576,cs),
(472,576,o),
(530,482,o),
(530,323,cs),
(530,168,o),
(473,69,o),
(339,69,cs)
);
}
);
vertWidth = 177;
width = 678;
}
);
note = Q;
unicode = 81;
}
{
color = 4;
glyphname = R;
kernLeft = KO_H;
kernRight = KO_R;
layers = (
{
anchors = (
{
name = bottom;
pos = (382,0);
},
{
name = top;
pos = (382,858);
}
);
layerId = "9E010061-AAF6-435A-AC72-EA6F5DDC7760";
shapes = (
{
closed = 1;
nodes = (
(283,0,l),
(283,330,l),
(372,330,l),
(564,0,l),
(765,0,l),
(521,374,l),
(596,410,o),
(672,474,o),
(672,601,cs),
(672,773,o),
(567,858,o),
(342,858,cs),
(102,858,l),
(102,0,l)
);
},
{
closed = 1;
nodes = (
(283,711,l),
(329,711,ls),
(442,711,o),
(491,678,o),
(491,596,cs),
(491,516,o),
(448,476,o),
(334,476,cs),
(283,476,l)
);
}
);
vertWidth = 1538.9;
width = 765;
},
{
anchors = (
{
name = bottom;
pos = (348,0);
},
{
name = top;
pos = (348,858);
}
);
layerId = "953CDB83-177D-4B72-9B41-8425D0D02E2F";
shapes = (
{
closed = 1;
nodes = (
(184,0,l),
(184,370,l),
(376,370,l),
(587,0,l),
(668,0,l),
(443,388,l),
(547,422,o),
(617,494,o),
(617,622,cs),
(617,794,o),
(515,858,o),
(322,858,cs),
(114,858,l),
(114,0,l)
);
},
{
closed = 1;
nodes = (
(184,796,l),
(316,796,ls),
(470,796,o),
(546,750,o),
(546,619,cs),
(546,498,o),
(470,430,o),
(337,430,cs),
(184,430,l)
);
}
);
vertWidth = 873.4;
width = 693;
},
{
anchors = (
{
name = bottom;
pos = (363,0);
},
{
name = top;
pos = (363,858);
}
);
layerId = "C85E24C5-F5D5-436B-96A2-CB17661C75AE";
shapes = (
{
closed = 1;
nodes = (
(230,0,l),
(230,350,l),
(375,350,l),
(575,0,l),
(714,0,l),
(483,383,l),
(560,410,o),
(646,475,o),
(646,611,cs),
(646,780,o),
(546,858,o),
(337,858,cs),
(109,858,l),
(109,0,l)
);
},
{
closed = 1;
nodes = (
(230,755,l),
(330,755,ls),
(458,755,o),
(521,715,o),
(521,607,cs),
(521,506,o),
(464,451,o),
(337,451,cs),
(230,451,l)
);
}
);
vertWidth = 235.4;
width = 727;
}
);
note = R;
unicode = 82;
userData = {
KernOnName = R;
};
}
{
glyphname = S;
layers = (
{
layerId = "9E010061-AAF6-435A-AC72-EA6F5DDC7760";
shapes = (
{
closed = 1;
nodes = (
(406.011,297.424,o),
(339.896,347.435,o),
(292.928,371.785,qs),
(254.668,390.997,o),
(203.289,420.998,o),
(177.711,452.832,o),
(177.711,474.798,qs),
(177.711,495.188,o),
(195.574,523.992,o),
(229.021,540.83,o),
(251.259,540.83,qs),
(286.393,540.83,o),
(353.391,520.564,o),
(397.414,503.716,q),
(440.958,607.85,l),
(392.268,630.623,o),
(304.179,653.131,o),
(256.44,653.131,qs),
(192.533,653.131,o),
(98.013,610.357,o),
(46.6,528.361,o),
(46.6,471.636,qs),
(46.6,427.674,o),
(75.741,363.314,o),
(122.007,319.229,o),
(172.247,289.494,o),
(192.207,278.972,qs),
(225.508,260.681,o),
(276.998,231.079,o),
(310.035,197.137,o),
(310.035,172.141,qs),
(310.035,152.15,o),
(292.575,120.715,o),
(256.259,103.089,o),
(225.827,103.089,qs),
(178.455,103.089,o),
(84.963,135.34,o),
(39.801,155.35,q),
(39.801,29.355,l),
(64.386,17.113,o),
(120.98,0.266,o),
(182.463,-9.212,o),
(214.583,-9.212,qs),
(287.053,-9.212,o),
(388.997,37.247,o),
(442.799,121.475,o),
(442.799,178.456,qs),
(442.799,229.122,o)
);
}
);
vertWidth = 1156;
width = 477.67586;
},
{
layerId = "953CDB83-177D-4B72-9B41-8425D0D02E2F";
shapes = (
{
closed = 1;
nodes = (
(386.934,285.481,o),
(308.597,328.756,o),
(253.01,348.053,qs),
(205.887,365.583,o),
(140.201,399.719,o),
(106.495,450.54,o),
(106.495,490.266,qs),
(106.495,529.026,o),
(141.917,580.798,o),
(206.31,606.67,o),
(247.763,606.67,qs),
(285.933,606.67,o),
(361.088,590.077,o),
(395.896,574.455,q),
(413.83,618.265,l),
(377.147,635.676,o),
(296.618,653.131,o),
(249.447,653.131,qs),
(193.806,653.131,o),
(104.761,615.41,o),
(53.7,542.756,o),
(53.7,490.321,qs),
(53.7,451.721,o),
(75.496,394.713,o),
(118.374,353.228,o),
(180.022,321.805,o),
(218.277,307.911,qs),
(273.368,288.547,o),
(343.475,251.593,o),
(376.374,202.646,o),
(376.374,163.871,qs),
(376.374,122.293,o),
(336.341,65.9,o),
(264.525,37.249,o),
(216.856,37.249,qs),
(166.694,37.249,o),
(78.078,57.403,o),
(45.736,71.133,q),
(45.736,20.166,l),
(66.012,11.906,o),
(115.505,-1.879,o),
(178.154,-9.212,o),
(214.23,-9.212,qs),
(277.161,-9.212,o),
(373.523,31.275,o),
(428.951,109.532,o),
(428.951,167.586,qs),
(428.951,219.17,o)
);
}
);
vertWidth = 656;
width = 472.90659;
},
{
layerId = "C85E24C5-F5D5-436B-96A2-CB17661C75AE";
shapes = (
{
closed = 1;
nodes = (
(397.545,291.35,o),
(324.542,339.015,o),
(271.886,360.435,qs),
(225.567,380.232,o),
(167.839,413.057,o),
(141.316,454.908,o),
(141.316,485.187,qs),
(141.316,512.399,o),
(165.906,553.245,o),
(213.885,575.039,o),
(248.509,575.039,qs),
(287.121,575.039,o),
(360.533,555.199,o),
(395.675,540.056,q),
(424.527,615.308,l),
(385.824,633.554,o),
(300.957,653.131,o),
(250.941,653.131,qs),
(191.9,653.131,o),
(101.141,613.287,o),
(50.55,537.844,o),
(50.55,484.742,qs),
(50.55,445.309,o),
(73.369,386.489,o),
(115.337,341.926,o),
(172.37,308.09,o),
(206.172,294.051,qs),
(256.064,274.855,o),
(316.747,239.712,o),
(345.863,197.777,o),
(345.863,166.493,qs),
(345.863,136.964,o),
(317.188,92.474,o),
(261.125,68.88,o),
(219.317,68.88,qs),
(170.84,68.88,o),
(77.915,94.258,o),
(42.834,109.633,q),
(42.834,23.601,l),
(64.575,13.384,o),
(117.219,-1.545,o),
(179.619,-9.212,o),
(213.761,-9.212,qs),
(281.998,-9.212,o),
(381.731,34.21,o),
(435.722,115.4,o),
(435.722,173.288,qs),
(435.722,224.06,o)
);
}
);
vertWidth = 177;
width = 475.55937;
}
);
note = S;
unicode = 83;
}
{
color = 4;
glyphname = T;
kernLeft = KO_T;
kernRight = KO_T;
layers = (
{
anchors = (
{
name = bottom;
pos = (335.5,0);
},
{
name = center;
pos = (335.5,431.2);
},
{
name = top;
pos = (335.5,858);
}
);
layerId = "9E010061-AAF6-435A-AC72-EA6F5DDC7760";
shapes = (
{
closed = 1;
nodes = (
(424.6,0,l),
(424.6,708.4,l),
(644.6,708.4,l),
(644.6,858,l),
(25.3,858,l),
(25.3,708.4,l),
(243.1,708.4,l),
(243.1,0,l)
);
}
);
vertWidth = 1538.9;
width = 671;
},
{
anchors = (
{
name = bottom;
pos = (305.8,0);
},
{
name = center;
pos = (305.8,431.2);
},
{
name = top;
pos = (305.8,858);
}
);
layerId = "953CDB83-177D-4B72-9B41-8425D0D02E2F";
shapes = (
{
closed = 1;
nodes = (
(341,0,l),
(341,794.2,l),
(606.1,794.2,l),
(606.1,858,l),
(6.6,858,l),
(6.6,794.2,l),
(271.7,794.2,l),
(271.7,0,l)
);
}
);
vertWidth = 873.4;
width = 612.7;
},
{
anchors = (
{
name = bottom;
pos = (323.4,0);
},
{
name = center;
pos = (323.4,431.2);
},
{
name = top;
pos = (323.4,858);
}
);
layerId = "C85E24C5-F5D5-436B-96A2-CB17661C75AE";
shapes = (
{
closed = 1;
nodes = (
(382.8,0,l),
(382.8,753.5,l),
(629.2,753.5,l),
(629.2,858,l),
(14.3,858,l),
(14.3,753.5,l),
(261.8,753.5,l),
(261.8,0,l)
);
}
);
vertWidth = 235.4;
width = 645.7;
}
);
note = T;
unicode = 84;
userData = {
KernOnName = T;
};
}
{
color = 4;
glyphname = U;
kernLeft = U;
kernRight = U;
layers = (
{
anchors = (
{
name = bottom;
pos = (328,0);
},
{
name = ogonek;
pos = (590,10);
},
{
name = top;
pos = (328,648);
},
{
name = topright;
pos = (636,648);
}
);
layerId = "9E010061-AAF6-435A-AC72-EA6F5DDC7760";
shapes = (
{
closed = 1;
nodes = (
(515,-9,o),
(583,109,o),
(583,228,cs),
(583,645,l),
(448,645,l),
(448,250,ls),
(448,156,o),
(417,105,o),
(328,105,cs),
(248,105,o),
(208,144,o),
(208,249,cs),
(208,645,l),
(73,645,l),
(73,229,ls),
(73,86,o),
(160,-9,o),
(324,-9,cs)
);
}
);
vertWidth = 1156;
width = 656;
},
{
anchors = (
{
name = bottom;
pos = (313,0);
},
{
name = ogonek;
pos = (563,10);
},
{
name = top;
pos = (313,648);
},
{
name = topright;
pos = (605,648);
}
);
layerId = "953CDB83-177D-4B72-9B41-8425D0D02E2F";
shapes = (
{
closed = 1;
nodes = (
(458,-9,o),
(545,80,o),
(545,228,cs),
(545,645,l),
(493,645,l),
(493,224,ls),
(493,116,o),
(437,37,o),
(313,37,cs),
(196,37,o),
(132,104,o),
(132,228,cs),
(132,645,l),
(79,645,l),
(79,229,ls),
(79,80,o),
(160,-9,o),
(311,-9,cs)
);
}
);
vertWidth = 656;
width = 625;
},
{
anchors = (
{
name = bottom;
pos = (319,0);
},
{
name = ogonek;
pos = (574,10);
},
{
name = top;
pos = (319,648);
},
{
name = topright;
pos = (618,648);
}
);
layerId = "C85E24C5-F5D5-436B-96A2-CB17661C75AE";
shapes = (
{
closed = 1;
nodes = (
(486,-9,o),
(560,98,o),
(560,228,cs),
(560,645,l),
(470,645,l),
(470,232,ls),
(470,131,o),
(424,69,o),
(320,69,cs),
(219,69,o),
(167,125,o),
(167,232,cs),
(167,645,l),
(76,645,l),
(76,229,ls),
(76,85,o),
(159,-9,o),
(316,-9,cs)
);
}
);
vertWidth = 177;
width = 638;
}
);
note = U;
unicode = 85;
}
{
color = 4;
glyphname = V;
kernLeft = V;
kernRight = V;
layers = (
{
anchors = (
{
name = bottom;
pos = (283,0);
},
{
name = top;
pos = (283,648);
}
);
layerId = "9E010061-AAF6-435A-AC72-EA6F5DDC7760";
shapes = (
{
closed = 1;
nodes = (
(356,0,l),
(565,645,l),
(429,645,l),
(315,260,l),
(282,118,l),
(250,260,l),
(136,645,l),
(0,645,l),
(208,0,l)
);
}
);
vertWidth = 1156;
width = 566;
},
{
anchors = (
{
name = bottom;
pos = (252,0);
},
{
name = top;
pos = (252,648);
}
);
layerId = "953CDB83-177D-4B72-9B41-8425D0D02E2F";
shapes = (
{
closed = 1;
nodes = (
(277,0,l),
(503,645,l),
(448,645,l),
(288,181,l),
(252,61,l),
(216,180,l),
(55,645,l),
(0,645,l),
(226,0,l)
);
}
);
vertWidth = 656;
width = 504;
},
{
anchors = (
{
name = bottom;
pos = (266,0);
},
{
name = top;
pos = (266,648);
}
);
layerId = "C85E24C5-F5D5-436B-96A2-CB17661C75AE";
shapes = (
{
closed = 1;
nodes = (
(312,0,l),
(530,645,l),
(436,645,l),
(301,234,l),
(265,94,l),
(228,232,l),
(94,645,l),
(0,645,l),
(218,0,l)
);
}
);
vertWidth = 177;
width = 531;
}
);
note = V;
unicode = 86;
}
{
color = 4;
glyphname = W;
layers = (
{
anchors = (
{
name = bottom;
pos = (492,0);
},
{
name = top;
pos = (492,761);
}
);
layerId = "9E010061-AAF6-435A-AC72-EA6F5DDC7760";
shapes = (
{
closed = 1;
nodes = (
(365,0,l),
(459,398,l),
(455,371,o),
(491,545,o),
(491,576,c),
(500,518,o),
(518,435,o),
(525,399,cs),
(621,0,l),
(801,0,l),
(986,757,l),
(830,757,l),
(738,341,ls),
(733,320,o),
(707,185,o),
(704,144,c),
(698,194,o),
(676,311,o),
(671,331,cs),
(566,757,l),
(419,757,l),
(313,331,ls),
(302,289,o),
(284,212,o),
(281,144,c),
(281,178,o),
(241,365,o),
(245,341,cs),
(155,757,l),
(0,757,l),
(184,0,l)
);
}
);
vertWidth = 1357.3098;
width = 984;
},
{
anchors = (
{
name = bottom;
pos = (457,0);
},
{
name = top;
pos = (457,761);
}
);
layerId = "953CDB83-177D-4B72-9B41-8425D0D02E2F";
shapes = (
{
closed = 1;
nodes = (
(277,0,l),
(426,566,ls),
(438,610,o),
(448,648,o),
(453,680,c),
(464,630,o),
(467,617,o),
(484,558,cs),
(636,0,l),
(697,0,l),
(893,757,l),
(829,757,l),
(697,237,ls),
(682,175,o),
(670,133,o),
(664,84,c),
(655,122,o),
(649,173,o),
(629,237,c),
(485,757,l),
(423,757,l),
(284,241,ls),
(269,188,o),
(257,141,o),
(249,86,c),
(240,128,o),
(232,178,o),
(215,237,cs),
(85,757,l),
(22,757,l),
(216,0,l)
);
}
);
vertWidth = 770.3388;
width = 915;
},
{
anchors = (
{
name = bottom;
pos = (488,0);
},
{
name = top;
pos = (488,761);
}
);
layerId = "C85E24C5-F5D5-436B-96A2-CB17661C75AE";
shapes = (
{
closed = 1;
nodes = (
(325,0,l),
(451,479,ls),
(466,527,o),
(483,617,o),
(485,633,c),
(486,625,o),
(508,522,o),
(520,481,cs),
(650,0,l),
(763,0,l),
(953,757,l),
(845,757,l),
(738,300,l),
(721,241,o),
(710,175,o),
(701,118,c),
(692,186,o),
(677,256,o),
(665,298,cs),
(539,757,l),
(431,757,l),
(310,301,ls),
(301,269,o),
(282,191,o),
(274,118,c),
(264,172,o),
(254,240,o),
(239,300,cs),
(130,757,l),
(22,757,l),
(212,0,l)
);
}
);
vertWidth = 207.6228;
width = 975;
}
);
note = W;
unicode = 87;
userData = {
KernOnName = W;
};
}
{
color = 4;
glyphname = X;
kernLeft = KO_X;
kernRight = KO_X;
layers = (
{
anchors = (
{
name = bottom;
pos = (387,0);
},
{
name = top;
pos = (387,862);
}
);
layerId = "9E010061-AAF6-435A-AC72-EA6F5DDC7760";
shapes = (
{
closed = 1;
nodes = (
(193,0,l),
(380,326,l),
(570,0,l),
(776,0,l),
(496,433,l),
(756,858,l),
(562,858,l),
(391,549,l),
(216,858,l),
(18,858,l),
(273,443,l),
(0,0,l)
);
}
);
vertWidth = 1538.9;
width = 774;
},
{
anchors = (
{
name = bottom;
pos = (317,0);
},
{
name = top;
pos = (317,862);
}
);
layerId = "953CDB83-177D-4B72-9B41-8425D0D02E2F";
shapes = (
{
closed = 1;
nodes = (
(76,0,l),
(316,397,l),
(551,0,l),
(633,0,l),
(358,448,l),
(613,858,l),
(538,858,l),
(318,495,l),
(102,858,l),
(24,858,l),
(275,446,l),
(1,0,l)
);
}
);
vertWidth = 873.4;
width = 633;
},
{
anchors = (
{
name = bottom;
pos = (349,0);
},
{
name = top;
pos = (349,862);
}
);
layerId = "C85E24C5-F5D5-436B-96A2-CB17661C75AE";
shapes = (
{
closed = 1;
nodes = (
(132,0,l),
(344,365,l),
(557,0,l),
(695,0,l),
(420,444,l),
(677,858,l),
(547,858,l),
(351,525,l),
(154,858,l),
(21,858,l),
(275,448,l),
(4,0,l)
);
}
);
vertWidth = 235.4;
width = 697;
}
);
note = X;
unicode = 88;
userData = {
KernOnName = X;
};
}
{
glyphname = Y;
kernLeft = Y;
kernRight = Y;
layers = (
{
layerId = "9E010061-AAF6-435A-AC72-EA6F5DDC7760";
shapes = (
{
closed = 1;
nodes = (
(0,644.84,l),
(204.367,246.882,l),
(204.367,0,l),
(338.013,0,l),
(338.013,250.699,l),
(543.262,644.84,l),
(398.004,644.84,l),
(271.76,378.537,l),
(146.14,644.84,l)
);
}
);
vertWidth = 1156;
width = 544.14414;
},
{
layerId = "953CDB83-177D-4B72-9B41-8425D0D02E2F";
shapes = (
{
closed = 1;
nodes = (
(0,644.84,l),
(206.345,245.963,l),
(206.345,0,l),
(258.991,0,l),
(258.991,248.709,l),
(464.593,644.84,l),
(407.435,644.84,l),
(232.655,299.682,l),
(57.227,644.84,l)
);
}
);
vertWidth = 656;
width = 464.66218;
},
{
layerId = "C85E24C5-F5D5-436B-96A2-CB17661C75AE";
shapes = (
{
closed = 1;
nodes = (
(0,644.84,l),
(205.378,246.775,l),
(205.378,0,l),
(296.024,0,l),
(296.024,249.687,l),
(502.095,644.84,l),
(403.787,644.84,l),
(250.812,337.348,l),
(99.096,644.84,l)
);
}
);
vertWidth = 177;
width = 502.88258;
}
);
note = Y;
unicode = 89;
}
{
color = 4;
glyphname = Z;
kernLeft = Z;
kernRight = Z;
layers = (
{
anchors = (
{
name = bottom;
pos = (251,0);
},
{
name = center;
pos = (251,323);
},
{
name = top;
pos = (251,645);
}
);
layerId = "9E010061-AAF6-435A-AC72-EA6F5DDC7760";
shapes = (
{
closed = 1;
nodes = (
(481,0,l),
(481,111,l),
(181,111,l),
(474,557,l),
(474,645,l),
(27,645,l),
(27,533,l),
(313,533,l),
(21,88,l),
(21,0,l)
);
}
);
vertWidth = 1156;
width = 502;
},
{
anchors = (
{
name = bottom;
pos = (249,0);
},
{
name = center;
pos = (249,323);
},
{
name = top;
pos = (249,645);
}
);
layerId = "953CDB83-177D-4B72-9B41-8425D0D02E2F";
shapes = (
{
closed = 1;
nodes = (
(462,0,l),
(462,46,l),
(98,46,l),
(452,606,l),
(452,645,l),
(49,645,l),
(49,597,l),
(388,597,l),
(32,39,l),
(32,0,l)
);
}
);
vertWidth = 656;
width = 498;
},
{
anchors = (
{
name = bottom;
pos = (249,0);
},
{
name = center;
pos = (249,323);
},
{
name = top;
pos = (249,645);
}
);
layerId = "C85E24C5-F5D5-436B-96A2-CB17661C75AE";
shapes = (
{
closed = 1;
nodes = (
(467,0,l),
(467,79,l),
(139,79,l),
(458,579,l),
(458,645,l),
(39,645,l),
(39,565,l),
(349,565,l),
(29,66,l),
(29,0,l)
);
}
);
vertWidth = 177;
width = 498;
}
);
note = Z;
unicode = 90;
}
{
glyphname = bracketleft;
layers = (
{
layerId = "9E010061-AAF6-435A-AC72-EA6F5DDC7760";
shapes = (
{
closed = 1;
nodes = (
(174.909,-47.947,l),
(174.909,550,l),
(265.346,550,l),
(265.346,644.84,l),
(59.128,644.84,l),
(59.128,-142.786,l),
(265.346,-142.786,l),
(265.346,-47.947,l)
);
}
);
vertWidth = 1156;
width = 286.51442;
},
{
layerId = "953CDB83-177D-4B72-9B41-8425D0D02E2F";
shapes = (
{
closed = 1;
nodes = (
(125.883,-95.521,l),
(125.883,597.575,l),
(257.102,597.575,l),
(257.102,644.84,l),
(71.462,644.84,l),
(71.462,-142.786,l),
(257.102,-142.786,l),
(257.102,-95.521,l)
);
}
);
vertWidth = 656;
width = 278.27016;
},
{
layerId = "C85E24C5-F5D5-436B-96A2-CB17661C75AE";
shapes = (
{
closed = 1;
nodes = (
(152.909,-69.947,l),
(152.909,572,l),
(263.346,572,l),
(263.346,644.84,l),
(66.128,644.84,l),
(66.128,-142.786,l),
(263.346,-142.786,l),
(263.346,-69.947,l)
);
}
);
vertWidth = 177;
width = 284.51442;
}
);
note = bracketleft;
unicode = 91;
}
{
glyphname = backslash;
layers = (
{
layerId = "9E010061-AAF6-435A-AC72-EA6F5DDC7760";
shapes = (
{
closed = 1;
nodes = (
(234.374,0,l),
(358.195,0,l),
(128.367,644.84,l),
(5.054,644.84,l)
);
}
);
vertWidth = 1156;
width = 363.11428;
},
{
layerId = "953CDB83-177D-4B72-9B41-8425D0D02E2F";
shapes = (
{
closed = 1;
nodes = (
(239.558,0,l),
(296.493,0,l),
(64.697,644.84,l),
(9.52,644.84,l)
);
}
);
vertWidth = 656;
width = 304.81527;
},
{
layerId = "C85E24C5-F5D5-436B-96A2-CB17661C75AE";
shapes = (
{
closed = 1;
nodes = (
(237.374,0,l),
(327.195,0,l),
(96.367,644.84,l),
(8.054,644.84,l)
);
}
);
vertWidth = 177;
width = 333.11428;
}
);
note = backslash;
unicode = 92;
}
{
color = 6;
glyphname = bracketright;
layers = (
{
layerId = "9E010061-AAF6-435A-AC72-EA6F5DDC7760";
shapes = (
{
closed = 1;
nodes = (
(304,-190,l),
(304,858,l),
(29,858,l),
(29,733,l),
(149,733,l),
(149,-64,l),
(29,-64,l),
(29,-190,l)
);
}
);
vertWidth = 1538.9;
width = 382;
},
{
layerId = "953CDB83-177D-4B72-9B41-8425D0D02E2F";
shapes = (
{
closed = 1;
nodes = (
(275,-190,l),
(275,858,l),
(28,858,l),
(28,796,l),
(204,796,l),
(204,-128,l),
(28,-128,l),
(28,-190,l)
);
}
);
vertWidth = 873.4;
width = 370;
},
{
layerId = "C85E24C5-F5D5-436B-96A2-CB17661C75AE";
shapes = (
{
closed = 1;
nodes = (
(294,-190,l),
(294,858,l),
(30,858,l),
(30,761,l),
(178,761,l),
(178,-93,l),
(30,-93,l),
(30,-190,l)
);
}
);
vertWidth = 235.4;
width = 382;
}
);
metricLeft = "=|bracketleft";
metricRight = "=|bracketleft";
note = bracketright;
unicode = 93;
userData = {
KernOnSpecialSpacing = {
L = parenthesis;
R = NoKerning;
};
};
}
{
glyphname = asciicircum;
layers = (
{
layerId = "9E010061-AAF6-435A-AC72-EA6F5DDC7760";
shapes = (
{
closed = 1;
nodes = (
(237.001,514.106,l),
(371.107,230.025,l),
(475.578,230.025,l),
(265.885,648.392,l),
(204.076,648.392,l),
(19.481,230.025,l),
(120.278,230.025,l)
);
}
);
vertWidth = 1156;
width = 495.684;
},
{
layerId = "953CDB83-177D-4B72-9B41-8425D0D02E2F";
shapes = (
{
closed = 1;
nodes = (
(244.669,592.043,l),
(409.967,246.103,l),
(457.069,246.103,l),
(260.87,649.464,l),
(228.382,649.464,l),
(36.012,246.103,l),
(84.102,246.103,l)
);
}
);
vertWidth = 656;
width = 494.87119;
},
{
layerId = "C85E24C5-F5D5-436B-96A2-CB17661C75AE";
shapes = (
{
closed = 1;
nodes = (
(238.674,555.188,l),
(389.683,238.923,l),
(464.835,238.923,l),
(261.397,649.298,l),
(213.931,649.298,l),
(29.213,238.923,l),
(104.357,238.923,l)
);
}
);
vertWidth = 177;
width = 495.58949;
}
);
note = asciicircum;
unicode = 94;
}
{
color = 6;
glyphname = underscore;
kernLeft = KO_underscore;
layers = (
{
layerId = "9E010061-AAF6-435A-AC72-EA6F5DDC7760";
shapes = (
{
closed = 1;
nodes = (
(469,-190,l),
(469,-108,l),
(-2,-108,l),
(-2,-190,l)
);
}
);
vertWidth = 1538.9;
width = 464;
},
{
layerId = "953CDB83-177D-4B72-9B41-8425D0D02E2F";
shapes = (
{
closed = 1;
nodes = (
(487,-166,l),
(487,-108,l),
(-2,-108,l),
(-2,-166,l)
);
}
);
vertWidth = 873.4;
width = 483;
},
{
layerId = "C85E24C5-F5D5-436B-96A2-CB17661C75AE";
shapes = (
{
closed = 1;
nodes = (
(501,-186,l),
(501,-108,l),
(-2,-108,l),
(-2,-186,l)
);
}
);
vertWidth = 235.4;
width = 496;
}
);
note = underscore;
unicode = 95;
userData = {
KernOnSpecialSpacing = {
L = underscore;
R = underscore;
};
};
}
{
color = 6;
glyphname = grave;
layers = (
{
layerId = "9E010061-AAF6-435A-AC72-EA6F5DDC7760";
shapes = (
{
closed = 1;
nodes = (
(397,791,l),
(397,807,l),
(355,855,o),
(296,932,o),
(253,1000,c),
(52,1000,l),
(52,987,l),
(95,939,o),
(213,838,o),
(281,791,c)
);
}
);
vertWidth = 1538.9;
width = 448;
},
{
layerId = "953CDB83-177D-4B72-9B41-8425D0D02E2F";
shapes = (
{
closed = 1;
nodes = (
(290,791,l),
(290,803,l),
(230,861,o),
(166,945,o),
(133,1000,c),
(52,1000,l),
(52,988,l),
(95,930,o),
(167,850,o),
(241,791,c)
);
}
);
vertWidth = 873.4;
width = 341;
},
{
layerId = "C85E24C5-F5D5-436B-96A2-CB17661C75AE";
shapes = (
{
closed = 1;
nodes = (
(325,791,l),
(325,806,l),
(284,850,o),
(234,924,o),
(191,1000,c),
(52,1000,l),
(52,987,l),
(95,926,o),
(173,849,o),
(245,791,c)
);
}
);
vertWidth = 235.4;
width = 375;
}
);
note = grave;
unicode = 96;
}
{
color = 4;
glyphname = a;
kernLeft = a;
kernRight = a;
layers = (
{
anchors = (
{
name = bottom;
pos = (263,0);
},
{
name = ogonek;
pos = (473,10);
},
{
name = top;
pos = (263,493);
}
);
layerId = "9E010061-AAF6-435A-AC72-EA6F5DDC7760";
shapes = (
{
closed = 1;
nodes = (
(258,-9,o),
(299,12,o),
(338,67,c),
(341,67,l),
(368,0,l),
(461,0,l),
(461,329,ls),
(461,448,o),
(391,502,o),
(262,502,cs),
(194,502,o),
(129,484,o),
(80,459,c),
(124,368,l),
(167,388,o),
(211,404,o),
(256,404,cs),
(301,404,o),
(328,381,o),
(328,329,cs),
(328,307,l),
(245,304,ls),
(106,299,o),
(36,251,o),
(36,147,cs),
(36,40,o),
(98,-9,o),
(183,-9,cs)
);
},
{
closed = 1;
nodes = (
(195,88,o),
(172,105,o),
(172,146,cs),
(172,194,o),
(198,224,o),
(281,227,cs),
(329,228,l),
(329,188,ls),
(329,124,o),
(286,88,o),
(234,88,cs)
);
}
);
vertWidth = 1156;
width = 525;
},
{
anchors = (
{
name = bottom;
pos = (232,0);
},
{
name = ogonek;
pos = (418,10);
},
{
name = top;
pos = (232,493);
}
);
layerId = "953CDB83-177D-4B72-9B41-8425D0D02E2F";
shapes = (
{
closed = 1;
nodes = (
(270,-9,o),
(311,29,o),
(343,80,c),
(346,80,l),
(356,0,l),
(394,0,l),
(394,323,ls),
(394,439,o),
(344,488,o),
(240,488,cs),
(184,488,o),
(131,473,o),
(88,450,c),
(104,408,l),
(147,432,o),
(189,445,o),
(237,445,cs),
(306,445,o),
(344,410,o),
(344,315,cs),
(344,282,l),
(261,277,ls),
(116,269,o),
(41,221,o),
(41,125,cs),
(41,39,o),
(94,-9,o),
(184,-9,cs)
);
},
{
closed = 1;
nodes = (
(132,35,o),
(93,66,o),
(93,125,cs),
(93,198,o),
(150,234,o),
(267,239,cs),
(343,242,l),
(343,196,ls),
(343,95,o),
(288,35,o),
(192,35,cs)
);
}
);
vertWidth = 656;
width = 464;
},
{
anchors = (
{
name = bottom;
pos = (248,0);
},
{
name = ogonek;
pos = (446,10);
},
{
name = top;
pos = (248,493);
}
);
layerId = "C85E24C5-F5D5-436B-96A2-CB17661C75AE";
shapes = (
{
closed = 1;
nodes = (
(259,-9,o),
(301,15,o),
(341,69,c),
(344,69,l),
(362,0,l),
(425,0,l),
(425,329,ls),
(425,442,o),
(368,494,o),
(251,494,cs),
(190,494,o),
(131,477,o),
(87,452,c),
(115,387,l),
(156,407,o),
(199,423,o),
(247,423,cs),
(304,423,o),
(337,398,o),
(337,322,cs),
(337,294,l),
(257,291,ls),
(110,286,o),
(39,234,o),
(39,137,cs),
(39,38,o),
(100,-9,o),
(185,-9,cs)
);
},
{
closed = 1;
nodes = (
(163,61,o),
(131,84,o),
(131,136,cs),
(131,195,o),
(168,228,o),
(273,233,cs),
(337,236,l),
(337,192,ls),
(337,105,o),
(283,61,o),
(210,61,cs)
);
}
);
vertWidth = 177;
width = 495;
}
);
note = a;
unicode = 97;
}
{
color = 6;
glyphname = b;
kernLeft = b;
kernRight = ae;
layers = (
{
anchors = (
{
name = bottom;
pos = (275,0);
},
{
name = center;
pos = (137,838);
},
{
name = top;
pos = (275,493);
}
);
layerId = "9E010061-AAF6-435A-AC72-EA6F5DDC7760";
shapes = (
{
closed = 1;
nodes = (
(401,-9,o),
(456.5,30,o),
(486.5,106,cs),
(501.5,144,o),
(509,190.667,o),
(509,246,cs),
(509,415.333,o),
(437.333,502,o),
(332,502,cs),
(266.667,502,o),
(225.667,470.667,o),
(199,428,c),
(195,428,l),
(197.667,449.333,o),
(199,490,o),
(199,526,cs),
(199,686,l),
(67,686,l),
(67,0,l),
(168,0,l),
(191,54,l),
(199,54,l),
(225.667,20.667,o),
(261,-9,o),
(329,-9,cs)
);
},
{
closed = 1;
nodes = (
(220.333,100,o),
(199,152,o),
(199,248,cs),
(199,262,ls),
(199,343.468,o),
(221.762,396,o),
(290,396,cs),
(339.333,396,o),
(374,346.667,o),
(374,248,cs),
(374,153.333,o),
(341.667,100,o),
(291,100,cs)
);
}
);
vertWidth = 1156;
width = 549;
},
{
anchors = (
{
name = bottom;
pos = (260,0);
},
{
name = center;
pos = (130,838);
},
{
name = top;
pos = (260,493);
}
);
layerId = "953CDB83-177D-4B72-9B41-8425D0D02E2F";
shapes = (
{
closed = 1;
nodes = (
(399,-9,o),
(469,84,o),
(469,241,cs),
(469,405,o),
(399,489,o),
(282,489,cs),
(201,489,o),
(150,449,o),
(127,393,c),
(123,393,l),
(126,418,o),
(127,463,o),
(127,496,cs),
(127,686,l),
(127,686,l),
(75,686,l),
(75,0,l),
(113,0,l),
(123,77,l),
(127,77,l),
(150,29,o),
(198,-9,o),
(275,-9,cs)
);
},
{
closed = 1;
nodes = (
(166,35,o),
(127,106,o),
(127,235,cs),
(127,241,ls),
(127,329,o),
(145,390,o),
(189,422,cs),
(211,437,o),
(240,445,o),
(275,445,cs),
(371,445,o),
(417,377,o),
(417,242,cs),
(417,109,o),
(368,35,o),
(269,35,cs)
);
}
);
vertWidth = 656;
width = 520;
},
{
anchors = (
{
name = bottom;
pos = (268,0);
},
{
name = center;
pos = (134,838);
},
{
name = top;
pos = (268,493);
}
);
layerId = "C85E24C5-F5D5-436B-96A2-CB17661C75AE";
shapes = (
{
closed = 1;
nodes = (
(377,-9,o),
(435.167,29.333,o),
(466.5,104,cs),
(482.167,141.333,o),
(490,187.667,o),
(490,243,cs),
(490,409.667,o),
(415,494,o),
(303,494,cs),
(231,494,o),
(186.333,461.667,o),
(161,419,c),
(157,419,l),
(159.667,439,o),
(161,479.333,o),
(161,518,cs),
(161,686,l),
(71,686,l),
(71,0,l),
(138,0,l),
(155,62,l),
(161,62,l),
(186.333,23.333,o),
(229,-9,o),
(301,-9,cs)
);
},
{
closed = 1;
nodes = (
(189.667,65,o),
(161,127.333,o),
(161,242,cs),
(161,248,ls),
(161,364.27,o),
(192.255,421,o),
(282,421,cs),
(359.333,421,o),
(398,361.333,o),
(398,244,cs),
(398,129.333,o),
(359,65,o),
(283,65,cs)
);
}
);
vertWidth = 177;
width = 536;
}
);
note = b;
unicode = 98;
}
{
glyphname = c;
kernLeft = agrave;
layers = (
{
layerId = "9E010061-AAF6-435A-AC72-EA6F5DDC7760";
shapes = (
{
closed = 1;
nodes = (
(374.037,7.768,o),
(404.685,27.778,q),
(404.685,141.266,l),
(374.294,120.99,o),
(312.922,99.138,o),
(271.579,99.138,qs),
(239.494,99.138,o),
(195.831,131.371,o),
(173.301,195.836,o),
(173.301,244.517,qs),
(173.301,294.119,o),
(194.692,360.693,o),
(238.098,393.713,o),
(271.691,393.713,qs),
(297.525,393.713,o),
(349.932,378.974,o),
(381.093,365.546,q),
(419.199,469.157,l),
(392.594,481.265,o),
(320.749,502.196,o),
(271.177,502.196,qs),
(201.978,502.196,o),
(97.242,447.58,o),
(37.635,334.006,o),
(37.635,243.596,qs),
(37.635,157.003,o),
(90.298,44.351,o),
(188.713,-9.212,o),
(259.308,-9.212,qs),
(309.873,-9.212,o)
);
}
);
vertWidth = 1156;
width = 447.68019;
},
{
layerId = "953CDB83-177D-4B72-9B41-8425D0D02E2F";
shapes = (
{
closed = 1;
nodes = (
(356.095,4.551,o),
(378.125,16.445,q),
(378.125,61.948,l),
(354.374,50.097,o),
(294.52,36.361,o),
(259.112,36.361,qs),
(205.158,36.361,o),
(135.318,87.117,o),
(102.085,178.531,o),
(102.085,238.545,qs),
(102.085,301.317,o),
(140.222,393.613,o),
(215.034,443.476,o),
(268.409,443.476,qs),
(293.079,443.476,o),
(346.19,431.491,o),
(369.654,421.433,q),
(384.374,466.094,l),
(361.617,476.212,o),
(302.915,489.027,o),
(269.414,489.027,qs),
(203.604,489.027,o),
(105.048,431.046,o),
(49.396,318.699,o),
(49.396,237.624,qs),
(49.396,159.295,o),
(99.161,48.787,o),
(193.62,-9.212,o),
(260.121,-9.212,qs),
(298.112,-9.212,o)
);
}
);
vertWidth = 656;
width = 410.06384;
},
{
layerId = "C85E24C5-F5D5-436B-96A2-CB17661C75AE";
shapes = (
{
closed = 1;
nodes = (
(361.017,5.051,o),
(385.977,20.213,q),
(385.977,97.681,l),
(360.263,83.851,o),
(300.63,66.847,o),
(262.32,66.847,qs),
(220.663,66.847,o),
(164.585,106.701,o),
(136.906,185.233,o),
(136.906,241.48,qs),
(136.906,298.861,o),
(164.929,377.797,o),
(222.14,419.024,o),
(265.842,419.024,qs),
(290.761,419.024,o),
(344.811,404.605,o),
(368.829,394.692,q),
(395.626,467.239,l),
(372.591,478.335,o),
(306.18,494.417,o),
(267.067,494.417,qs),
(202.167,494.417,o),
(102.836,440.971,o),
(45.25,329.102,o),
(45.25,240.558,qs),
(45.25,154.926,o),
(98.357,44.085,o),
(194.751,-9.212,o),
(259.403,-9.212,qs),
(302.258,-9.212,o)
);
}
);
vertWidth = 177;
width = 423.00116;
}
);
note = c;
unicode = 99;
}
{
color = 4;
glyphname = d;
kernLeft = KO_d;
kernRight = KO_i;
layers = (
{
anchors = (
{
name = bottom;
pos = (366.3,0);
},
{
name = center;
pos = (548.9,777.7);
},
{
name = top;
pos = (553.3,913);
},
{
name = topright;
pos = (696.3,913);
}
);
layerId = "9E010061-AAF6-435A-AC72-EA6F5DDC7760";
shapes = (
{
closed = 1;
nodes = (
(375.1,-12.1,o),
(430.1,30.8,o),
(464.2,84.7,c),
(469.7,84.7,l),
(504.9,0,l),
(641.3,0,l),
(641.3,913,l),
(464.2,913,l),
(464.2,701.8,ls),
(464.2,652.3,o),
(470.8,596.2,o),
(477.4,570.9,c),
(470.8,570.9,l),
(436.7,629.2,o),
(376.2,667.7,o),
(292.6,667.7,cs),
(149.6,667.7,o),
(50.6,551.1,o),
(50.6,325.6,cs),
(50.6,102.3,o),
(149.6,-12.1,o),
(286,-12.1,cs)
);
},
{
closed = 1;
nodes = (
(273.9,128.7,o),
(228.8,192.5,o),
(228.8,324.5,cs),
(228.8,452.1,o),
(273.9,523.6,o),
(347.6,523.6,cs),
(447.7,523.6,o),
(476.3,454.3,o),
(476.3,325.6,cs),
(476.3,305.8,ls),
(476.3,189.2,o),
(442.2,128.7,o),
(349.8,128.7,cs)
);
}
);
vertWidth = 1538.9;
width = 730.4;
},
{
anchors = (
{
name = bottom;
pos = (346.5,0);
},
{
name = center;
pos = (555.5,777.7);
},
{
name = top;
pos = (562.1,913);
},
{
name = topright;
pos = (657.8,913);
}
);
layerId = "953CDB83-177D-4B72-9B41-8425D0D02E2F";
shapes = (
{
closed = 1;
nodes = (
(431.2,-12.1,o),
(492.8,49.5,o),
(523.6,112.2,c),
(526.9,112.2,l),
(534.6,0,l),
(590.7,0,l),
(590.7,913,l),
(523.6,913,l),
(523.6,653.4,ls),
(523.6,644.6,o),
(525.8,565.4,o),
(526.9,530.2,c),
(523.6,530.2,l),
(489.5,595.1,o),
(433.4,651.2,o),
(324.5,651.2,cs),
(163.9,651.2,o),
(64.9,532.4,o),
(64.9,314.6,cs),
(64.9,100.1,o),
(157.3,-12.1,o),
(321.2,-12.1,cs)
);
},
{
closed = 1;
nodes = (
(200.2,46.2,o),
(135.3,138.6,o),
(135.3,312.4,cs),
(135.3,489.5,o),
(204.6,591.8,o),
(331.1,591.8,cs),
(468.6,591.8,o),
(523.6,495,o),
(523.6,319,cs),
(523.6,308,ls),
(523.6,138.6,o),
(468.6,46.2,o),
(328.9,46.2,cs)
);
}
);
vertWidth = 873.4;
width = 691.9;
},
{
anchors = (
{
name = bottom;
pos = (356.4,0);
},
{
name = center;
pos = (559.9,772.2);
},
{
name = top;
pos = (562.1,913);
},
{
name = topright;
pos = (663.3,913);
}
);
layerId = "C85E24C5-F5D5-436B-96A2-CB17661C75AE";
shapes = (
{
closed = 1;
nodes = (
(413.6,-12.1,o),
(470.8,46.2,o),
(498.3,89.1,c),
(502.7,89.1,l),
(523.6,0,l),
(616,0,l),
(616,913,l),
(498.3,913,l),
(498.3,666.6,ls),
(498.3,619.3,o),
(501.6,608.3,o),
(506,559.9,c),
(499.4,559.9,l),
(469.7,606.1,o),
(418,657.8,o),
(310.2,657.8,cs),
(159.5,657.8,o),
(59.4,544.5,o),
(59.4,322.3,cs),
(59.4,99,o),
(158.4,-12.1,o),
(308,-12.1,cs)
);
},
{
closed = 1;
nodes = (
(234.3,84.7,o),
(181.5,170.5,o),
(181.5,319,cs),
(181.5,468.6,o),
(234.3,559.9,o),
(335.5,559.9,cs),
(462,559.9,o),
(501.6,475.2,o),
(501.6,322.3,cs),
(501.6,303.6,ls),
(501.6,158.4,o),
(457.6,84.7,o),
(336.6,84.7,cs)
);
}
);
vertWidth = 235.4;
width = 713.9;
}
);
note = d;
unicode = 100;
}
{
glyphname = e;
kernLeft = agrave;
kernRight = ae;
layers = (
{
layerId = "9E010061-AAF6-435A-AC72-EA6F5DDC7760";
shapes = (
{
closed = 1;
nodes = (
(95.367,443.505,o),
(37.635,329.144,o),
(37.635,242.674,qs),
(37.635,157.525,o),
(100.659,45.927,o),
(210.062,-9.212,o),
(281.649,-9.212,qs),
(336.111,-9.212,o),
(413.505,8.557,o),
(448.785,25.271,q),
(448.785,129.272,l),
(409.463,109.661,o),
(333.833,89.917,o),
(287.455,89.917,qs),
(235.486,89.917,o),
(174.183,155.958,o),
(172.419,213.177,q),
(475.647,213.177,l),
(475.647,277.68,ls),
(475.647,350.198,o),
(422.95,448.767,o),
(328.798,502.196,o),
(263.127,502.196,qs),
(194.811,502.196,o)
);
},
{
closed = 1;
nodes = (
(331.854,380.047,o),
(352.252,332.686,o),
(352.252,301.508,q),
(175.065,301.508,l),
(180.357,355.716,o),
(228.687,406.753,o),
(263.384,406.753,qs),
(293.595,406.753,o)
);
}
);
vertWidth = 1156;
width = 513.7907;
},
{
layerId = "953CDB83-177D-4B72-9B41-8425D0D02E2F";
shapes = (
{
closed = 1;
nodes = (
(97.238,423.601,o),
(49.396,309.393,o),
(49.396,236.703,qs),
(49.396,160.28,o),
(99.279,50.672,o),
(195.646,-9.212,o),
(264.198,-9.212,qs),
(308.416,-9.212,o),
(376.378,6.412,o),
(410.846,22.054,q),
(410.846,68.639,l),
(373.042,50.254,o),
(308.469,36.482,o),
(266.047,36.482,qs),
(187.196,36.482,o),
(102.154,138.044,o),
(102.016,233.236,q),
(429.443,233.236,l),
(429.443,268.954,ls),
(429.443,333.356,o),
(389.427,432.843,o),
(309.584,489.027,o),
(250.553,489.027,qs),
(187.25,489.027,o)
);
},
{
closed = 1;
nodes = (
(349.413,402.707,o),
(376.558,327.023,o),
(376.558,276.248,q),
(103.036,276.248,l),
(109.954,357.398,o),
(186.547,445.182,o),
(249.644,445.182,qs),
(292.537,445.182,o)
);
}
);
vertWidth = 656;
width = 479.46112;
},
{
layerId = "C85E24C5-F5D5-436B-96A2-CB17661C75AE";
shapes = (
{
closed = 1;
nodes = (
(97.928,433.381,o),
(45.25,319.818,o),
(45.25,239.637,qs),
(45.25,157.845,o),
(102.842,47.26,o),
(205.262,-9.212,o),
(273.372,-9.212,qs),
(321.957,-9.212,o),
(393.568,6.745,o),
(428.754,22.554,q),
(428.754,98.792,l),
(391.17,80.886,o),
(321.512,64.179,o),
(277.156,64.179,qs),
(211.128,64.179,o),
(137.693,146.846,o),
(136.118,224.1,q),
(450.751,224.1,l),
(450.751,274.323,ls),
(450.751,341.992,o),
(404.213,440.667,o),
(316.411,494.417,o),
(255.418,494.417,qs),
(191.589,494.417,o)
);
},
{
closed = 1;
nodes = (
(338.582,390.492,o),
(362.107,331.247,o),
(362.107,291.542,q),
(138.575,291.542,l),
(144.056,355.131,o),
(204.263,424.498,o),
(254.758,424.498,qs),
(291.129,424.498,o)
);
}
);
vertWidth = 177;
width = 494.9606;
}
);
note = e;
unicode = 101;
}
{
color = 4;
glyphname = f;
kernRight = f;
layers = (
{
anchors = (
{
name = bottom;
pos = (155,0);
},
{
name = top;
pos = (168,1047);
}
);
layerId = "9E010061-AAF6-435A-AC72-EA6F5DDC7760";
shapes = (
{
closed = 1;
nodes = (
(221,0,l),
(221,393,l),
(332,393,l),
(332,493,l),
(221,493,l),
(221,523,ls),
(221,559,o),
(236.667,585,o),
(270,585,cs),
(300.667,585,o),
(322,578.667,o),
(342,572,c),
(376,670,l),
(352,680.667,o),
(308.333,691,o),
(255,691,cs),
(151.058,691,o),
(88,651.383,o),
(88,528,cs),
(88,493,l),
(18,457,l),
(18,393,l),
(88,393,l),
(88,0,l)
);
}
);
vertWidth = 1156;
width = 336;
},
{
anchors = (
{
name = bottom;
pos = (125,0);
},
{
name = top;
pos = (135,1047);
}
);
layerId = "953CDB83-177D-4B72-9B41-8425D0D02E2F";
shapes = (
{
closed = 1;
nodes = (
(147,0,l),
(147,439,l),
(258,439,l),
(258,480,l),
(147,480,l),
(147,530,ls),
(147,613,o),
(173,647,o),
(234,647,cs),
(258,647,o),
(283,642,o),
(303,634,c),
(315,677,l),
(294,685,o),
(267,691,o),
(234,691,cs),
(140,691,o),
(96,637,o),
(96,529,cs),
(96,482,l),
(12,466,l),
(12,439,l),
(96,439,l),
(96,0,l)
);
}
);
vertWidth = 656;
width = 269;
},
{
anchors = (
{
name = bottom;
pos = (137,0);
},
{
name = top;
pos = (153,1047);
}
);
layerId = "C85E24C5-F5D5-436B-96A2-CB17661C75AE";
shapes = (
{
closed = 1;
nodes = (
(182,0,l),
(182,418,l),
(296,418,l),
(296,485,l),
(182,485,l),
(182,519,ls),
(182,585.667,o),
(203,618,o),
(251,618,cs),
(277.667,618,o),
(302.333,610.333,o),
(321,605,c),
(344,673,l),
(322.667,683.667,o),
(287,691,o),
(247,691,cs),
(147.199,691,o),
(93,638.933,o),
(93,520,cs),
(93,487,l),
(14,460,l),
(14,418,l),
(93,418,l),
(93,0,l)
);
}
);
vertWidth = 177;
width = 305;
}
);
note = f;
unicode = 102;
}
{
color = 4;
glyphname = g;
kernLeft = KO_d;
kernRight = KO_u;
layers = (
{
anchors = (
{
name = bottom;
pos = (323.4,-280.5);
},
{
name = top;
pos = (341,656.7);
}
);
layerId = "9E010061-AAF6-435A-AC72-EA6F5DDC7760";
shapes = (
{
closed = 1;
nodes = (
(532.4,-287.1,o),
(641.3,-185.9,o),
(641.3,-1.1,cs),
(641.3,656.7,l),
(489.5,656.7,l),
(477.4,570.9,l),
(473,570.9,l),
(430.1,635.8,o),
(367.4,667.7,o),
(292.6,667.7,cs),
(141.9,667.7,o),
(50.6,543.4,o),
(50.6,325.6,cs),
(50.6,114.4,o),
(137.5,-12.1,o),
(286,-12.1,cs),
(360.8,-12.1,o),
(420.2,16.5,o),
(464.2,84.7,c),
(469.7,84.7,l),
(464.2,5.5,l),
(464.2,-7.7,ls),
(464.2,-108.9,o),
(423.5,-158.4,o),
(334.4,-158.4,cs),
(247.5,-158.4,o),
(166.1,-144.1,o),
(88,-107.8,c),
(88,-249.7,l),
(158.4,-278.3,o),
(233.2,-287.1,o),
(323.4,-287.1,cs)
);
},
{
closed = 1;
nodes = (
(267.3,126.5,o),
(229.9,191.4,o),
(229.9,324.5,cs),
(229.9,456.5,o),
(272.8,523.6,o),
(348.7,523.6,cs),
(442.2,523.6,o),
(477.4,460.9,o),
(477.4,325.6,cs),
(477.4,179.3,o),
(442.2,126.5,o),
(350.9,126.5,cs)
);
}
);
vertWidth = 1538.9;
width = 730.4;
},
{
anchors = (
{
name = bottom;
pos = (327.8,-267.3);
},
{
name = top;
pos = (330,639.1);
}
);
layerId = "953CDB83-177D-4B72-9B41-8425D0D02E2F";
shapes = (
{
closed = 1;
nodes = (
(520.3,-287.1,o),
(589.6,-178.2,o),
(589.6,-19.8,cs),
(589.6,639.1,l),
(534.6,639.1,l),
(524.7,541.2,l),
(520.3,541.2,l),
(481.8,610.5,o),
(419.1,651.2,o),
(323.4,651.2,cs),
(158.4,651.2,o),
(64.9,521.4,o),
(64.9,315.7,cs),
(64.9,103.4,o),
(158.4,-12.1,o),
(316.8,-12.1,cs),
(413.6,-12.1,o),
(484,29.7,o),
(521.4,113.3,c),
(525.8,113.3,l),
(521.4,13.2,l),
(521.4,-25.3,ls),
(521.4,-149.6,o),
(460.9,-229.9,o),
(328.9,-229.9,cs),
(239.8,-229.9,o),
(163.9,-207.9,o),
(106.7,-179.3,c),
(106.7,-246.4,l),
(165,-272.8,o),
(234.3,-287.1,o),
(324.5,-287.1,cs)
);
},
{
closed = 1;
nodes = (
(203.5,46.2,o),
(135.3,139.7,o),
(135.3,314.6,cs),
(135.3,475.2,o),
(192.5,591.8,o),
(331.1,591.8,cs),
(486.2,591.8,o),
(523.6,475.2,o),
(523.6,336.6,cs),
(523.6,130.9,o),
(469.7,46.2,o),
(325.6,46.2,cs)
);
}
);
vertWidth = 873.4;
width = 691.9;
},
{
anchors = (
{
name = bottom;
pos = (328.9,-280.5);
},
{
name = top;
pos = (342.1,645.7);
}
);
layerId = "C85E24C5-F5D5-436B-96A2-CB17661C75AE";
shapes = (
{
closed = 1;
nodes = (
(523.6,-287.1,o),
(616,-192.5,o),
(616,-8.8,cs),
(616,645.7,l),
(519.2,645.7,l),
(506,559.9,l),
(500.5,559.9,l),
(456.5,625.9,o),
(391.6,657.8,o),
(310.2,657.8,cs),
(154,657.8,o),
(59.4,530.2,o),
(59.4,322.3,cs),
(59.4,108.9,o),
(152.9,-12.1,o),
(309.1,-12.1,cs),
(392.7,-12.1,o),
(455.4,19.8,o),
(498.3,89.1,c),
(501.6,89.1,l),
(498.3,6.6,l),
(498.3,-17.6,ls),
(498.3,-127.6,o),
(442.2,-194.7,o),
(336.6,-194.7,cs),
(247.5,-194.7,o),
(167.2,-176,o),
(105.6,-141.9,c),
(105.6,-247.5,l),
(165,-275,o),
(239.8,-287.1,o),
(330,-287.1,cs)
);
},
{
closed = 1;
nodes = (
(235.4,83.6,o),
(182.6,166.1,o),
(182.6,319,cs),
(182.6,475.2,o),
(236.5,559.9,o),
(335.5,559.9,cs),
(470.8,559.9,o),
(501.6,458.7,o),
(501.6,323.4,cs),
(501.6,145.2,o),
(457.6,83.6,o),
(336.6,83.6,cs)
);
}
);
vertWidth = 235.4;
width = 713.9;
}
);
note = g;
unicode = 103;
}
{
glyphname = h;
kernLeft = b;
kernRight = a;
layers = (
{
layerId = "9E010061-AAF6-435A-AC72-EA6F5DDC7760";
shapes = (
{
closed = 1;
nodes = (
(66.629,686.294,l),
(66.629,0,l),
(199.393,0,l),
(199.393,232.124,ls),
(199.393,285.021,o),
(218.652,357.131,o),
(261.176,395.556,o),
(299.178,395.556,qs),
(337.549,395.556,o),
(372.392,342.658,o),
(372.392,288.839,qs),
(372.392,0,l),
(505.67,0,l),
(505.67,321.242,ls),
(505.67,384.938,o),
(463.445,464.427,o),
(387.336,502.196,o),
(336.326,502.196,qs),
(308.359,502.196,o),
(257.091,485.748,o),
(216.665,454.56,o),
(200.532,428.633,q),
(193.844,428.633,l),
(195.608,442.451,o),
(199.393,509.338,o),
(199.393,544.495,qs),
(199.393,686.294,l)
);
}
);
vertWidth = 1156;
width = 571.67405;
},
{
layerId = "953CDB83-177D-4B72-9B41-8425D0D02E2F";
shapes = (
{
closed = 1;
nodes = (
(74.895,686.294,l),
(74.895,0,l),
(126.659,0,l),
(126.659,260.908,ls),
(126.659,321.768,o),
(159.52,403.831,o),
(226.135,445.318,o),
(276.605,445.318,qs),
(334.65,445.318,o),
(394.045,379.867,o),
(394.045,310.741,qs),
(394.045,0,l),
(444.805,0,l),
(444.805,314.044,ls),
(444.805,374.832,o),
(407.702,452.176,o),
(335.197,489.027,o),
(281.963,489.027,qs),
(243.89,489.027,o),
(182.624,465.079,o),
(139.161,423.637,o),
(126.632,396.947,q),
(123.901,396.947,l),
(124.852,413.519,o),
(126.659,447.17,o),
(126.659,465.325,qs),
(126.659,686.294,l)
);
}
);
vertWidth = 656;
width = 517.09632;
},
{
layerId = "C85E24C5-F5D5-436B-96A2-CB17661C75AE";
shapes = (
{
closed = 1;
nodes = (
(71.495,686.294,l),
(71.495,0,l),
(161.259,0,l),
(161.259,246.404,ls),
(161.259,303.352,o),
(185.223,380.524,o),
(240.701,420.866,o),
(287.963,420.866,qs),
(337.993,420.866,o),
(385.062,363.385,o),
(385.062,304.662,qs),
(385.062,0,l),
(473.602,0,l),
(473.602,316.501,ls),
(473.602,379.077,o),
(434.315,456.755,o),
(359.406,494.417,o),
(305.014,494.417,qs),
(275.091,494.417,o),
(220.318,476.316,o),
(176.415,443.155,o),
(161.482,417.92,q),
(156.816,417.92,l),
(158.485,432.058,o),
(161.259,475.556,o),
(161.259,497.022,qs),
(161.259,686.294,l)
);
}
);
vertWidth = 177;
width = 543.46084;
}
);
note = h;
unicode = 104;
}
{
glyphname = i;
layers = (
{
layerId = "9E010061-AAF6-435A-AC72-EA6F5DDC7760";
shapes = (
{
closed = 1;
nodes = (
(66.629,0,l),
(199.393,0,l),
(199.393,492.984,l),
(66.629,492.984,l)
);
},
{
closed = 1;
nodes = (
(62.733,657.756,o),
(62.733,619.578,qs),
(62.733,583.376,o),
(103.485,554.42,o),
(134.022,554.42,qs),
(162.537,554.42,o),
(205.567,583.376,o),
(205.567,619.578,qs),
(205.567,657.756,o),
(162.537,685.791,o),
(134.022,685.791,qs),
(103.485,685.791,o)
);
}
);
vertWidth = 1156;
width = 266.0227;
},
{
layerId = "953CDB83-177D-4B72-9B41-8425D0D02E2F";
shapes = (
{
closed = 1;
nodes = (
(74.895,0,l),
(126.659,0,l),
(126.659,479.815,l),
(74.895,479.815,l)
);
},
{
closed = 1;
nodes = (
(67.042,637.234,o),
(67.042,618.043,qs),
(67.042,599.756,o),
(85.221,579.525,o),
(101.205,579.525,qs),
(117.958,579.525,o),
(135.271,599.756,o),
(135.271,618.043,qs),
(135.271,637.234,o),
(117.958,657.461,o),
(101.205,657.461,qs),
(85.221,657.461,o)
);
}
);
vertWidth = 656;
width = 202.36661;
},
{
layerId = "C85E24C5-F5D5-436B-96A2-CB17661C75AE";
shapes = (
{
closed = 1;
nodes = (
(71.495,0,l),
(161.259,0,l),
(161.259,485.205,l),
(71.495,485.205,l)
);
},
{
closed = 1;
nodes = (
(65.577,644.436,o),
(65.577,616.276,qs),
(65.577,589.185,o),
(95.114,563.587,o),
(116.929,563.587,qs),
(137.83,563.587,o),
(167.717,589.185,o),
(167.717,616.276,qs),
(167.717,644.436,o),
(137.83,669.22,o),
(116.929,669.22,qs),
(95.114,669.22,o)
);
}
);
vertWidth = 177;
width = 232.84906;
}
);
note = i;
unicode = 105;
}
{
glyphname = j;
layers = (
{
layerId = "9E010061-AAF6-435A-AC72-EA6F5DDC7760";
shapes = (
{
closed = 1;
nodes = (
(166.871,-172.122,o),
(199.393,-99.471,o),
(199.393,-54.332,qs),
(199.393,492.984,l),
(66.629,492.984,l),
(66.629,-34.303,ls),
(66.629,-78.521,o),
(30.467,-109.709,o),
(5.403,-109.709,qs),
(-12.494,-109.709,o),
(-39.836,-105.235,o),
(-56.483,-101.551,q),
(-56.483,-205.428,l),
(-39.579,-210.034,o),
(8.229,-216.482,o),
(30.279,-216.482,qs),
(91.832,-216.482,o)
);
},
{
closed = 1;
nodes = (
(104.367,554.42,o),
(134.022,554.42,qs),
(162.537,554.42,o),
(205.567,583.376,o),
(205.567,619.578,qs),
(205.567,657.756,o),
(162.537,685.791,o),
(134.022,685.791,qs),
(104.367,685.791,o),
(62.733,657.756,o),
(62.733,619.578,qs),
(62.733,583.376,o)
);
}
);
vertWidth = 1156;
width = 266.0227;
},
{
layerId = "953CDB83-177D-4B72-9B41-8425D0D02E2F";
shapes = (
{
closed = 1;
nodes = (
(100.071,-188.046,o),
(126.659,-131.01,o),
(126.659,-90.462,qs),
(126.659,479.815,l),
(74.895,479.815,l),
(74.895,-89.889,ls),
(74.895,-133.189,o),
(40.359,-172.794,o),
(9.712,-172.794,qs),
(-5.394,-172.794,o),
(-32.736,-168.167,o),
(-45.886,-163.564,q),
(-45.886,-206.346,l),
(-34.457,-210.034,o),
(-4.345,-216.482,o),
(15.266,-216.482,qs),
(50.289,-216.482,o)
);
},
{
closed = 1;
nodes = (
(85.29,579.525,o),
(101.205,579.525,qs),
(117.958,579.525,o),
(135.271,599.756,o),
(135.271,618.043,qs),
(135.271,637.234,o),
(117.958,657.461,o),
(101.205,657.461,qs),
(85.29,657.461,o),
(67.042,637.234,o),
(67.042,618.043,qs),
(67.042,599.756,o)
);
}
);
vertWidth = 656;
width = 202.36661;
},
{
layerId = "C85E24C5-F5D5-436B-96A2-CB17661C75AE";
shapes = (
{
closed = 1;
nodes = (
(131.769,-180.221,o),
(161.259,-114.072,o),
(161.259,-69.467,qs),
(161.259,485.205,l),
(71.495,485.205,l),
(71.495,-66.538,ls),
(71.495,-110.649,o),
(35.522,-143.597,o),
(8.247,-143.597,qs),
(-8.544,-143.597,o),
(-35.886,-138.325,o),
(-49.784,-134.533,q),
(-49.784,-205.534,l),
(-36.64,-210.034,o),
(0.52,-216.482,o),
(22.286,-216.482,qs),
(70.601,-216.482,o)
);
},
{
closed = 1;
nodes = (
(95.901,563.587,o),
(116.929,563.587,qs),
(137.83,563.587,o),
(167.717,589.185,o),
(167.717,616.276,qs),
(167.717,644.436,o),
(137.83,669.22,o),
(116.929,669.22,qs),
(95.901,669.22,o),
(65.577,644.436,o),
(65.577,616.276,qs),
(65.577,589.185,o)
);
}
);
vertWidth = 177;
width = 232.84906;
}
);
note = j;
unicode = 106;
}
{
color = 4;
glyphname = k;
kernLeft = KO_i;
kernRight = KO_k;
layers = (
{
anchors = (
{
name = bottom;
pos = (362,0);
},
{
name = top;
pos = (175,913);
}
);
layerId = "9E010061-AAF6-435A-AC72-EA6F5DDC7760";
shapes = (
{
closed = 1;
nodes = (
(266,0,l),
(266,205,l),
(340,267,l),
(518,0,l),
(723,0,l),
(457,372,l),
(707,657,l),
(508,657,l),
(333,455,l),
(260,355,l),
(257,355,l),
(266,505,l),
(266,913,l),
(89,913,l),
(89,0,l)
);
}
);
vertWidth = 1538.9;
width = 723;
},
{
anchors = (
{
name = bottom;
pos = (286,0);
},
{
name = top;
pos = (134,913);
}
);
layerId = "953CDB83-177D-4B72-9B41-8425D0D02E2F";
shapes = (
{
closed = 1;
nodes = (
(169,0,l),
(169,222,l),
(259,321,l),
(487,0,l),
(569,0,l),
(305,365,l),
(549,639,l),
(468,639,l),
(237,375,l),
(167,287,l),
(165,287,l),
(169,448,l),
(169,913,l),
(100,913,l),
(100,0,l)
);
}
);
vertWidth = 873.4;
width = 572;
},
{
anchors = (
{
name = bottom;
pos = (321,0);
},
{
name = top;
pos = (161,913);
}
);
layerId = "C85E24C5-F5D5-436B-96A2-CB17661C75AE";
shapes = (
{
closed = 1;
nodes = (
(215,0,l),
(215,227,l),
(287,294,l),
(493,0,l),
(633,0,l),
(367,369,l),
(616,646,l),
(480,646,l),
(285,427,l),
(211,333,l),
(209,333,l),
(215,455,l),
(215,913,l),
(95,913,l),
(95,0,l)
);
}
);
vertWidth = 235.4;
width = 641;
}
);
note = k;
unicode = 107;
}
{
color = 6;
glyphname = l;
kernLeft = b;
layers = (
{
anchors = (
{
name = bottom;
pos = (133,0);
},
{
name = center;
pos = (133,342.938);
},
{
name = top;
pos = (133,687);
},
{
name = topright;
pos = (246,687);
}
);
layerId = "9E010061-AAF6-435A-AC72-EA6F5DDC7760";
shapes = (
{
closed = 1;
nodes = (
(199,0,l),
(199,686,l),
(67,686,l),
(67,0,l),
(67,0,l)
);
}
);
vertWidth = 1156;
width = 266;
},
{
anchors = (
{
name = bottom;
pos = (101,0);
},
{
name = center;
pos = (102,342.938);
},
{
name = top;
pos = (102,687);
},
{
name = topright;
pos = (215,687);
}
);
layerId = "953CDB83-177D-4B72-9B41-8425D0D02E2F";
shapes = (
{
closed = 1;
nodes = (
(127,0,l),
(127,686,l),
(76,686,l),
(76,0,l)
);
}
);
vertWidth = 656;
width = 202;
},
{
anchors = (
{
name = bottom;
pos = (117,0);
},
{
name = center;
pos = (117,342.938);
},
{
name = top;
pos = (117,687);
},
{
name = topright;
pos = (230,687);
}
);
layerId = "C85E24C5-F5D5-436B-96A2-CB17661C75AE";
shapes = (
{
closed = 1;
nodes = (
(161,0,l),
(161,686,l),
(72,686,l),
(72,0,l)
);
}
);
vertWidth = 177;
width = 233;
}
);
note = l;
unicode = 108;
}
{
glyphname = m;
kernLeft = m;
kernRight = a;
layers = (
{
layerId = "9E010061-AAF6-435A-AC72-EA6F5DDC7760";
shapes = (
{
closed = 1;
nodes = (
(507.725,467.723,o),
(486.814,428.377,q),
(474.945,428.377,l),
(454.771,466.668,o),
(382.19,502.196,o),
(330.666,502.196,qs),
(304.463,502.196,o),
(251.286,486.536,o),
(207.811,454.427,o),
(193.956,428.5,q),
(185.872,428.5,l),
(167.829,492.984,l),
(66.629,492.984,l),
(66.629,0,l),
(199.393,0,l),
(199.393,233.045,ls),
(199.393,284.888,o),
(216.888,357.131,o),
(257.536,395.556,o),
(291.129,395.556,qs),
(316.047,395.556,o),
(345.23,370.683,o),
(361.217,324.367,o),
(361.217,288.573,qs),
(361.217,0,l),
(494.238,0,l),
(494.238,247.518,ls),
(494.238,319.761,o),
(536.137,395.556,o),
(585.46,395.556,qs),
(620.817,395.556,o),
(654.409,341.604,o),
(654.409,288.573,qs),
(654.409,0,l),
(787.687,0,l),
(787.687,321.242,ls),
(787.687,416.259,o),
(705.773,502.196,o),
(625.254,502.196,qs),
(583.431,502.196,o)
);
}
);
vertWidth = 1156;
width = 851.6707;
},
{
layerId = "953CDB83-177D-4B72-9B41-8425D0D02E2F";
shapes = (
{
closed = 1;
nodes = (
(426.97,442,o),
(406.519,399.592,q),
(402.916,399.592,l),
(389.489,443.855,o),
(319.699,489.027,o),
(268.283,489.027,qs),
(233.599,489.027,o),
(179.149,466.021,o),
(139.278,428.249,o),
(127.508,404.313,q),
(124.899,404.313,l),
(116.748,479.815,l),
(74.895,479.815,l),
(74.895,0,l),
(126.659,0,l),
(126.659,271.929,ls),
(126.659,330.971,o),
(157.756,406.585,o),
(218.187,445.318,o),
(261.808,445.318,qs),
(293.719,445.318,o),
(339.433,417.691,o),
(364.606,361.422,o),
(364.606,318.129,qs),
(364.606,0,l),
(415.462,0,l),
(415.462,280.284,ls),
(415.462,364.162,o),
(484.35,445.318,o),
(551.615,445.318,qs),
(599.439,445.318,o),
(654.439,382.64,o),
(654.439,318.129,qs),
(654.439,0,l),
(705.199,0,l),
(705.199,320.472,ls),
(705.199,408.907,o),
(627.594,489.027,o),
(557.994,489.027,qs),
(505.713,489.027,o)
);
}
);
vertWidth = 656;
width = 775.8225;
},
{
layerId = "C85E24C5-F5D5-436B-96A2-CB17661C75AE";
shapes = (
{
closed = 1;
nodes = (
(467.097,455.36,o),
(445.458,414.096,q),
(438.455,414.096,l),
(421.408,455.425,o),
(349.933,494.417,o),
(296.859,494.417,qs),
(268.889,494.417,o),
(216.345,477.903,o),
(174.07,444.354,o),
(159.676,419.44,q),
(155.353,419.44,l),
(142.365,485.205,l),
(71.495,485.205,l),
(71.495,0,l),
(161.259,0,l),
(161.259,248.5,ls),
(161.259,305.085,o),
(183.459,380.844,o),
(234.218,420.866,o),
(276.786,420.866,qs),
(307.203,420.866,o),
(346.118,395.674,o),
(365.516,344.295,o),
(365.516,306.848,qs),
(365.516,0,l),
(454.621,0,l),
(454.621,263.823,ls),
(454.621,340.543,o),
(509.029,420.866,o),
(571.372,420.866,qs),
(615.988,420.866,o),
(659.88,363.557,o),
(659.88,306.848,qs),
(659.88,0,l),
(748.419,0,l),
(748.419,317.248,ls),
(748.419,410.718,o),
(669.348,494.417,o),
(590.88,494.417,qs),
(546.28,494.417,o)
);
}
);
vertWidth = 177;
width = 817.07937;
}
);
note = m;
unicode = 109;
}
{
color = 4;
glyphname = n;
kernLeft = KO_n;
kernRight = KO_n;
layers = (
{
anchors = (
{
name = bottom;
pos = (336,0);
},
{
name = top;
pos = (336,580);
}
);
layerId = "9E010061-AAF6-435A-AC72-EA6F5DDC7760";
shapes = (
{
closed = 1;
nodes = (
(234,0,l),
(234,274,ls),
(234,396,o),
(261,464,o),
(351,464,cs),
(413,464,o),
(437,423,o),
(437,339,cs),
(437,0,l),
(594,0,l),
(594,376,ls),
(594,526,o),
(514,590,o),
(397,590,cs),
(326,590,o),
(263,563,o),
(229,504,c),
(219,504,l),
(197,580,l),
(78,580,l),
(78,0,l)
);
}
);
vertWidth = 1357.3098;
width = 671;
},
{
anchors = (
{
name = bottom;
pos = (303,0);
},
{
name = top;
pos = (303,580);
}
);
layerId = "953CDB83-177D-4B72-9B41-8425D0D02E2F";
shapes = (
{
closed = 1;
nodes = (
(149,0,l),
(149,308,ls),
(149,449,o),
(206,522,o),
(326,522,cs),
(416,522,o),
(464,473,o),
(464,365,cs),
(464,0,l),
(522,0,l),
(522,369,ls),
(522,510,o),
(455,574,o),
(331,574,cs),
(243,574,o),
(178,527,o),
(151,467,c),
(147,467,l),
(138,563,l),
(88,563,l),
(88,0,l)
);
}
);
vertWidth = 770.3388;
width = 608;
},
{
anchors = (
{
name = bottom;
pos = (320,0);
},
{
name = top;
pos = (320,580);
}
);
layerId = "C85E24C5-F5D5-436B-96A2-CB17661C75AE";
shapes = (
{
closed = 1;
nodes = (
(190,0,l),
(190,290,ls),
(190,423,o),
(227,494,o),
(338,494,cs),
(418,494,o),
(453,448,o),
(453,358,cs),
(453,0,l),
(556,0,l),
(556,373,ls),
(556,518,o),
(486,581,o),
(360,581,cs),
(287,581,o),
(223,551,o),
(188,492,c),
(183,492,l),
(167,570,l),
(84,570,l),
(84,0,l)
);
}
);
vertWidth = 207.6228;
width = 638;
}
);
note = n;
unicode = 110;
userData = {
KernOnName = n;
};
}
{
glyphname = o;
kernLeft = agrave;
kernRight = ae;
layers = (
{
layerId = "9E010061-AAF6-435A-AC72-EA6F5DDC7760";
shapes = (
{
closed = 1;
nodes = (
(439.305,442.185,o),
(336.333,502.196,o),
(269.413,502.196,qs),
(198.082,502.196,o),
(94.228,442.185,o),
(37.635,328.479,o),
(37.635,247.28,qs),
(37.635,185.56,o),
(71.664,90.411,o),
(133.293,23.951,o),
(217.743,-9.212,o),
(266.767,-9.212,qs),
(320.457,-9.212,o),
(406.414,23.951,o),
(464.883,90.411,o),
(497.149,185.56,o),
(497.149,246.359,qs),
(497.149,328.479,o)
);
},
{
closed = 1;
nodes = (
(217.958,394.502,o),
(267.649,394.502,qs),
(300.984,394.502,o),
(342.626,361.747,o),
(362.621,296.228,o),
(362.621,246.359,qs),
(362.621,198.466,o),
(343.508,132.292,o),
(302.123,98.483,o),
(268.531,98.483,qs),
(234.938,98.483,o),
(193.81,132.292,o),
(173.301,198.466,o),
(173.301,246.359,qs),
(173.301,320.568,o)
);
}
);
vertWidth = 1156;
width = 537.0613;
},
{
layerId = "953CDB83-177D-4B72-9B41-8425D0D02E2F";
shapes = (
{
closed = 1;
nodes = (
(414.861,427.334,o),
(323.759,489.027,o),
(257.896,489.027,qs),
(193.313,489.027,o),
(99.703,430.088,o),
(49.396,318.681,o),
(49.396,241.309,qs),
(49.396,183.261,o),
(77.844,92.093,o),
(131.1,25.788,o),
(206.931,-9.212,o),
(254.437,-9.212,qs),
(304.632,-9.212,o),
(381.51,25.788,o),
(434.749,92.093,o),
(462.246,184.179,o),
(462.246,241.306,qs),
(462.246,315.926,o)
);
},
{
closed = 1;
nodes = (
(179.666,445.336,o),
(256.945,445.336,qs),
(311.228,445.336,o),
(376.962,391.758,o),
(408.718,300.363,o),
(408.718,241.306,qs),
(408.718,179.48,o),
(376.218,86.202,o),
(308.763,35.397,o),
(255.388,35.397,qs),
(203.639,35.397,o),
(134.463,86.202,o),
(102.085,179.48,o),
(102.085,241.306,qs),
(102.085,336.338,o)
);
}
);
vertWidth = 656;
width = 512.40212;
},
{
layerId = "C85E24C5-F5D5-436B-96A2-CB17661C75AE";
shapes = (
{
closed = 1;
nodes = (
(425.529,434.992,o),
(328.624,494.417,o),
(264.169,494.417,qs),
(195.965,494.417,o),
(97.989,435.312,o),
(45.25,324.216,o),
(45.25,244.243,qs),
(45.25,182.95,o),
(77.069,89.825,o),
(135.381,24.165,o),
(214.143,-9.212,o),
(261.428,-9.212,qs),
(312.37,-9.212,o),
(393.366,24.165,o),
(450.446,89.825,o),
(480.595,183.057,o),
(480.595,243.429,qs),
(480.595,323.896,o)
);
},
{
closed = 1;
nodes = (
(197.105,420.718,o),
(262.499,420.718,qs),
(306.861,420.718,o),
(361.457,377.732,o),
(389.067,299.051,o),
(389.067,243.429,qs),
(389.067,188.449,o),
(362.15,107.408,o),
(306.8,64.594,o),
(263.098,64.594,qs),
(219.584,64.594,o),
(163.48,107.408,o),
(136.906,188.449,o),
(136.906,243.429,qs),
(136.906,327.869,o)
);
}
);
vertWidth = 177;
width = 526.38433;
}
);
note = o;
unicode = 111;
}
{
glyphname = p;
kernLeft = m;
kernRight = ae;
layers = (
{
layerId = "9E010061-AAF6-435A-AC72-EA6F5DDC7760";
shapes = (
{
closed = 1;
nodes = (
(248.271,481.93,o),
(212.623,448.767,o),
(199.393,428.5,q),
(193.587,428.5,l),
(175.288,492.984,l),
(66.629,492.984,l),
(66.629,-216.482,l),
(199.393,-216.482,l),
(199.393,-18.424,ls),
(199.393,0.133,o),
(197.004,36.706,o),
(192.962,54.474,q),
(199.393,54.474,l),
(212.623,38.292,o),
(247.133,8.946,o),
(296.122,-9.212,o),
(329.124,-9.212,qs),
(383.037,-9.212,o),
(462.897,48.957,o),
(509.386,163.451,o),
(509.386,246.359,qs),
(509.386,372.564,o),
(411.261,502.196,o),
(333.166,502.196,qs),
(299.539,502.196,o)
);
},
{
closed = 1;
nodes = (
(373.719,321.888,o),
(373.719,248.202,qs),
(373.719,201.097,o),
(356.37,133.868,o),
(320.277,99.537,o),
(291.351,99.537,qs),
(257.134,99.537,o),
(216.631,133.479,o),
(199.393,199.919,o),
(199.393,247.28,qs),
(199.393,262.02,ls),
(199.393,306.762,o),
(218.138,365.954,o),
(256.877,395.556,o),
(289.587,395.556,qs),
(333.105,395.556,o)
);
}
);
vertWidth = 1156;
width = 549.29809;
},
{
layerId = "953CDB83-177D-4B72-9B41-8425D0D02E2F";
shapes = (
{
closed = 1;
nodes = (
(179.494,461.415,o),
(138.263,416.316,o),
(127.472,390.541,q),
(124.81,390.541,l),
(118.379,479.815,l),
(75.708,479.815,l),
(75.708,-212.809,l),
(127.472,-212.809,l),
(127.472,-16.588,ls),
(127.472,7.324,o),
(125.543,59.975,o),
(123.832,82.944,q),
(127.472,82.944,l),
(138.263,57.117,o),
(177.894,16.6,o),
(238.401,-9.212,o),
(278.61,-9.212,qs),
(337.645,-9.212,o),
(423.332,48.802,o),
(470.174,161.152,o),
(470.174,243.142,qs),
(470.174,365.674,o),
(370.746,489.027,o),
(282.76,489.027,qs),
(240.759,489.027,o)
);
},
{
closed = 1;
nodes = (
(417.485,340.868,o),
(417.485,244.067,qs),
(417.485,178.592,o),
(384.311,85.333,o),
(320.522,35.379,o),
(272.274,35.379,qs),
(222.798,35.379,o),
(158.664,80.654,o),
(127.472,171.134,o),
(127.472,240.391,qs),
(127.472,248.703,ls),
(127.472,312.42,o),
(159.711,399.182,o),
(225.333,445.318,o),
(275.387,445.318,qs),
(346.492,445.318,o)
);
}
);
vertWidth = 656;
width = 519.51702;
},
{
layerId = "C85E24C5-F5D5-436B-96A2-CB17661C75AE";
shapes = (
{
closed = 1;
nodes = (
(212.159,473.297,o),
(174.3,438.746,o),
(161.354,417.839,q),
(157.475,417.839,l),
(145.242,485.205,l),
(71.59,485.205,l),
(71.59,-216.055,l),
(161.354,-216.055,l),
(161.354,-18.21,ls),
(161.354,0.188,o),
(158.237,45.659,o),
(156.028,62.471,q),
(161.354,62.471,l),
(174.3,42.823,o),
(211.748,11.398,o),
(265.981,-9.212,o),
(301.383,-9.212,qs),
(358.235,-9.212,o),
(442.677,48.158,o),
(489.988,160.841,o),
(489.988,243.642,qs),
(489.988,369.42,o),
(387.026,494.417,o),
(303.876,494.417,qs),
(266.932,494.417,o)
);
},
{
closed = 1;
nodes = (
(398.332,327.219,o),
(398.332,245.378,qs),
(398.332,191.451,o),
(372.895,110.262,o),
(322.649,64.743,o),
(282.885,64.743,qs),
(238.303,64.743,o),
(184.119,106.25,o),
(161.354,185.639,o),
(161.354,244.136,qs),
(161.354,258.128,ls),
(161.354,312.877,o),
(186.353,384.656,o),
(239.151,420.866,o),
(281.689,420.866,qs),
(340.909,420.866,o)
);
}
);
vertWidth = 177;
width = 535.68266;
}
);
note = p;
unicode = 112;
}
{
glyphname = q;
kernLeft = agrave;
layers = (
{
layerId = "9E010061-AAF6-435A-AC72-EA6F5DDC7760";
shapes = (
{
closed = 1;
nodes = (
(482.044,-216.482,l),
(482.044,492.984,l),
(368.059,492.984,l),
(357.732,428.5,l),
(354.204,428.5,l),
(335.056,459.821,o),
(269.677,502.196,o),
(218.41,502.196,qs),
(164.865,502.196,o),
(84.124,444.028,o),
(37.635,329.4,o),
(37.635,245.438,qs),
(37.635,119.234,o),
(136.273,-9.212,o),
(215.507,-9.212,qs),
(266.774,-9.212,o),
(329.619,34.084,o),
(349.023,64.351,q),
(354.315,64.351,l),
(351.669,46.582,o),
(349.023,8.557,o),
(349.023,-10.133,qs),
(349.023,-216.482,l)
);
},
{
closed = 1;
nodes = (
(173.301,169.387,o),
(173.301,243.596,qs),
(173.301,315.829,o),
(217.846,393.448,o),
(261.877,393.448,qs),
(317.117,393.448,o),
(357.62,317.007,o),
(357.62,244.517,qs),
(357.62,227.935,ls),
(357.62,184.252,o),
(338.619,124,o),
(298.116,95.32,o),
(263.641,95.32,qs),
(217.589,95.32,o)
);
}
);
vertWidth = 1156;
width = 549.29809;
},
{
layerId = "953CDB83-177D-4B72-9B41-8425D0D02E2F";
shapes = (
{
closed = 1;
nodes = (
(442.019,-212.809,l),
(442.019,479.815,l),
(401.366,479.815,l),
(393.937,400.64,l),
(391.222,400.64,l),
(373.348,437.47,o),
(299.596,489.027,o),
(241.581,489.027,qs),
(180.368,489.027,o),
(92.987,427.34,o),
(47.771,315.011,o),
(47.771,239.467,qs),
(47.771,116.017,o),
(147.82,-9.212,o),
(234.967,-9.212,qs),
(294.607,-9.212,o),
(374.198,46.02,o),
(391.163,87.459,q),
(394.83,87.459,l),
(392.997,68.163,o),
(391.163,14.676,o),
(391.163,-3.706,qs),
(391.163,-212.809,l)
);
},
{
closed = 1;
nodes = (
(100.459,139.838,o),
(100.459,238.542,qs),
(100.459,334.508,o),
(174.433,445.354,o),
(247.785,445.354,qs),
(323.757,445.354,o),
(391.956,342.883,o),
(391.956,244.054,qs),
(391.956,231.145,ls),
(391.956,167.405,o),
(360.625,79.748,o),
(294.865,34.533,o),
(242.233,34.533,qs),
(171.277,34.533,o)
);
}
);
vertWidth = 656;
width = 519.51702;
},
{
layerId = "C85E24C5-F5D5-436B-96A2-CB17661C75AE";
shapes = (
{
closed = 1;
nodes = (
(462.551,-216.055,l),
(462.551,485.205,l),
(389.894,485.205,l),
(379.123,419.013,l),
(375.689,419.013,l),
(355.909,450.975,o),
(287.213,494.417,o),
(232.819,494.417,qs),
(177.601,494.417,o),
(92.183,436.621,o),
(45.061,324.603,o),
(45.061,242.401,qs),
(45.061,116.517,o),
(146.987,-9.212,o),
(230.265,-9.212,qs),
(284.849,-9.212,o),
(354.326,35.472,o),
(373.447,67.819,q),
(378.55,67.819,l),
(375.998,51.435,o),
(373.447,7.706,o),
(373.447,-9.386,qs),
(373.447,-216.055,l)
);
},
{
closed = 1;
nodes = (
(136.717,155.798,o),
(136.717,240.665,qs),
(136.717,324.249,o),
(194.055,420.569,o),
(252.429,420.569,qs),
(321.794,420.569,o),
(376.451,330.168,o),
(376.451,242.12,qs),
(376.451,225.966,ls),
(376.451,171.361,o),
(352.111,99.331,o),
(297.738,64.042,o),
(253.342,64.042,qs),
(194.242,64.042,o)
);
}
);
vertWidth = 177;
width = 535.68266;
}
);
note = q;
unicode = 113;
}
{
glyphname = r;
kernLeft = m;
kernRight = r;
layers = (
{
layerId = "9E010061-AAF6-435A-AC72-EA6F5DDC7760";
shapes = (
{
closed = 1;
nodes = (
(248.897,476.403,o),
(207.443,434.161,o),
(194.469,409.687,q),
(187.525,409.687,l),
(167.829,492.984,l),
(66.629,492.984,l),
(66.629,0,l),
(199.393,0,l),
(199.393,250.69,ls),
(199.393,286.484,o),
(221.7,335.032,o),
(258.487,363.969,o),
(304.719,377.512,o),
(330.297,377.512,qs),
(338.09,377.512,o),
(362.272,374.881,o),
(367.161,373.172,q),
(375.981,497.59,l),
(368.814,500.354,o),
(343.125,502.196,o),
(334.451,502.196,qs),
(303.837,502.196,o)
);
}
);
vertWidth = 1156;
width = 394.90591;
},
{
layerId = "953CDB83-177D-4B72-9B41-8425D0D02E2F";
shapes = (
{
closed = 1;
nodes = (
(178.033,462.315,o),
(138.204,418.083,o),
(127.317,390.392,q),
(124.681,390.392,l),
(119.186,479.815,l),
(75.708,479.815,l),
(75.708,0,l),
(127.472,0,l),
(127.472,262.633,ls),
(127.472,303.172,o),
(146.175,368.716,o),
(182.502,415.876,o),
(232.69,441.824,o),
(263.145,441.824,qs),
(279.663,441.824,o),
(306.989,437.203,o),
(320.957,433.503,q),
(328.151,480.748,l),
(315.049,484.43,o),
(283.425,488.109,o),
(266.025,488.109,qs),
(232.621,488.109,o)
);
}
);
vertWidth = 656;
width = 341.24856;
},
{
layerId = "C85E24C5-F5D5-436B-96A2-CB17661C75AE";
shapes = (
{
closed = 1;
nodes = (
(213.323,468.517,o),
(172.058,425.262,o),
(158.546,398.072,q),
(154.446,398.072,l),
(142.649,485.205,l),
(71.59,485.205,l),
(71.59,0,l),
(161.354,0,l),
(161.354,256.764,ls),
(161.354,293.891,o),
(182.461,351.444,o),
(219.975,391.091,o),
(268.229,413.105,o),
(294.374,413.105,qs),
(306.305,413.105,o),
(332.415,409.462,o),
(342.265,406.74,q),
(350.896,489.384,l),
(340.695,492.255,o),
(311.973,494.311,o),
(299.16,494.311,qs),
(267.442,494.311,o)
);
}
);
vertWidth = 177;
width = 365.2378;
}
);
note = r;
unicode = 114;
}
{
color = 4;
glyphname = s;
kernLeft = s;
layers = (
{
anchors = (
{
name = bottom;
pos = (215,0);
},
{
name = top;
pos = (215,493);
}
);
layerId = "9E010061-AAF6-435A-AC72-EA6F5DDC7760";
shapes = (
{
closed = 1;
nodes = (
(311.8,-9,o),
(399,31.4,o),
(399,146,cs),
(399,204.667,o),
(376.833,239.833,o),
(337.5,264.5,cs),
(317.833,276.833,o),
(294.667,288.333,o),
(268,299,cs),
(202.11,328.807,o),
(170,340.792,o),
(170,370,cs),
(170,391.333,o),
(189,404,o),
(225,404,cs),
(267.667,404,o),
(307.333,389,o),
(354,367,c),
(394,464,l),
(336.667,490.667,o),
(285.667,502,o),
(227,502,cs),
(112.333,502,o),
(39,455.667,o),
(39,365,cs),
(39,309,o),
(55.5,274.5,o),
(93.5,248.5,cs),
(112.5,235.5,o),
(136.667,222.667,o),
(166,210,cs),
(236.529,179.335,o),
(268,163.295,o),
(268,131,cs),
(268,104.333,o),
(248,88,o),
(200,88,cs),
(156,88,o),
(90.667,104.667,o),
(40,130,c),
(40,20,l),
(86.667,-1.333,o),
(129.667,-9,o),
(195,-9,cs)
);
}
);
vertWidth = 1156;
width = 430;
},
{
anchors = (
{
name = bottom;
pos = (202,0);
},
{
name = top;
pos = (202,480);
}
);
layerId = "953CDB83-177D-4B72-9B41-8425D0D02E2F";
shapes = (
{
closed = 1;
nodes = (
(302,-9,o),
(366,42,o),
(366,127,cs),
(366,183,o),
(338,215,o),
(294,237,cs),
(272,248,o),
(246.589,256.954,o),
(220,268,cs),
(138,302.064,o),
(96,307.172,o),
(96,368,cs),
(96,417,o),
(138,445,o),
(209,445,cs),
(256,445,o),
(301,434,o),
(337,417,c),
(355,460,l),
(316,477,o),
(268,489,o),
(212,489,cs),
(112,489,o),
(46,446,o),
(46,366,cs),
(46,310,o),
(72,280,o),
(116,259,cs),
(137,248,o),
(162,238,o),
(191,229,cs),
(249.881,206.92,o),
(316,185.885,o),
(316,123,cs),
(316,70,o),
(277,35,o),
(189,35,cs),
(134,35,o),
(81,50,o),
(40,71,c),
(40,22,l),
(75,3,o),
(124,-9,o),
(188,-9,cs)
);
}
);
vertWidth = 656;
width = 404;
},
{
anchors = (
{
name = bottom;
pos = (209,0);
},
{
name = top;
pos = (209,485);
}
);
layerId = "C85E24C5-F5D5-436B-96A2-CB17661C75AE";
shapes = (
{
closed = 1;
nodes = (
(312.19,-9,o),
(380,40.493,o),
(380,136,cs),
(380,189.333,o),
(358.5,223.167,o),
(316.5,246.5,cs),
(295.5,258.167,o),
(270.764,269.101,o),
(243,281,cs),
(185.22,305.763,o),
(129,318.844,o),
(129,369,cs),
(129,402.333,o),
(158.667,423,o),
(216,423,cs),
(260,423,o),
(303,410.667,o),
(343,392,c),
(372,461,l),
(325.333,482.333,o),
(277.333,494,o),
(220,494,cs),
(113.333,494,o),
(43,449,o),
(43,365,cs),
(43,311.667,o),
(64.5,279,o),
(106.5,255,cs),
(127.5,243,o),
(152.667,230.667,o),
(182,218,cs),
(261.986,186.006,o),
(294,166.647,o),
(294,127,cs),
(294,87,o),
(263.333,61,o),
(194,61,cs),
(142,61,o),
(84.333,78.667,o),
(43,100,c),
(43,22,l),
(80.333,2,o),
(126.667,-9,o),
(192,-9,cs)
);
}
);
vertWidth = 177;
width = 417;
}
);
note = s;
unicode = 115;
}
{
color = 4;
glyphname = t;
kernLeft = KO_t;
kernRight = KO_t;
layers = (
{
anchors = (
{
name = bottom;
pos = (305.8,0);
},
{
name = center;
pos = (200.2,366.3);
},
{
name = top;
pos = (223.3,796.4);
},
{
name = topright;
pos = (420.2,858);
}
);
layerId = "9E010061-AAF6-435A-AC72-EA6F5DDC7760";
shapes = (
{
closed = 1;
nodes = (
(372.9,-12.1,o),
(430.1,1.1,o),
(468.6,18.7,c),
(468.6,149.6,l),
(431.2,138.6,o),
(397.1,130.9,o),
(357.5,130.9,cs),
(314.6,130.9,o),
(286,152.9,o),
(286,204.6,cs),
(286,523.6,l),
(460.9,523.6,l),
(460.9,656.7,l),
(286,656.7,l),
(286,796.4,l),
(171.6,796.4,l),
(121,657.8,l),
(27.5,597.3,l),
(27.5,523.6,l),
(108.9,523.6,l),
(108.9,204.6,ls),
(108.9,45.1,o),
(188.1,-12.1,o),
(308,-12.1,cs)
);
}
);
vertWidth = 1538.9;
width = 504.9;
},
{
anchors = (
{
name = bottom;
pos = (243.1,0);
},
{
name = center;
pos = (141.9,366.3);
},
{
name = top;
pos = (151.8,792);
},
{
name = topright;
pos = (342.1,858);
}
);
layerId = "953CDB83-177D-4B72-9B41-8425D0D02E2F";
shapes = (
{
closed = 1;
nodes = (
(304.7,-12.1,o),
(341,-4.4,o),
(363,5.5,c),
(363,59.4,l),
(342.1,52.8,o),
(309.1,45.1,o),
(277.2,45.1,cs),
(206.8,45.1,o),
(172.7,91.3,o),
(172.7,181.5,cs),
(172.7,584.1,l),
(360.8,584.1,l),
(360.8,639.1,l),
(172.7,639.1,l),
(172.7,792,l),
(130.9,792,l),
(105.6,645.7,l),
(16.5,621.5,l),
(16.5,584.1,l),
(105.6,584.1,l),
(105.6,177.1,ls),
(105.6,45.1,o),
(165,-12.1,o),
(266.2,-12.1,cs)
);
}
);
vertWidth = 873.4;
width = 391.6;
},
{
anchors = (
{
name = bottom;
pos = (282.7,0);
},
{
name = center;
pos = (172.7,366.3);
},
{
name = top;
pos = (191.4,793.1);
},
{
name = topright;
pos = (366.3,858);
}
);
layerId = "C85E24C5-F5D5-436B-96A2-CB17661C75AE";
shapes = (
{
closed = 1;
nodes = (
(334.4,-12.1,o),
(381.7,-2.2,o),
(408.1,8.8,c),
(408.1,100.1,l),
(382.8,90.2,o),
(348.7,84.7,o),
(316.8,84.7,cs),
(259.6,84.7,o),
(224.4,119.9,o),
(224.4,192.5,cs),
(224.4,556.6,l),
(403.7,556.6,l),
(403.7,645.7,l),
(224.4,645.7,l),
(224.4,793.1,l),
(151.8,793.1,l),
(112.2,653.4,l),
(20.9,609.4,l),
(20.9,556.6,l),
(106.7,556.6,l),
(106.7,190.3,ls),
(106.7,55,o),
(170.5,-12.1,o),
(290.4,-12.1,cs)
);
}
);
vertWidth = 235.4;
width = 437.8;
}
);
note = t;
unicode = 116;
userData = {
KernOnName = t;
};
}
{
color = 4;
glyphname = u;
kernLeft = KO_u;
kernRight = KO_u;
layers = (
{
anchors = (
{
name = bottom;
pos = (381,0);
},
{
name = ogonek;
pos = (685,13);
},
{
name = top;
pos = (381,657);
},
{
name = topright;
pos = (735,657);
}
);
layerId = "9E010061-AAF6-435A-AC72-EA6F5DDC7760";
shapes = (
{
closed = 1;
nodes = (
(391,-12,o),
(464,18,o),
(502,84,c),
(512,84,l),
(535,0,l),
(670,0,l),
(670,657,l),
(493,657,l),
(493,347,ls),
(493,210,o),
(468,129,o),
(362,129,cs),
(293,129,o),
(262,178,o),
(262,271,cs),
(262,657,l),
(85,657,l),
(85,228,ls),
(85,63,o),
(177,-12,o),
(310,-12,cs)
);
}
);
vertWidth = 1538.9;
width = 761;
},
{
anchors = (
{
name = bottom;
pos = (344,0);
},
{
name = ogonek;
pos = (619,13);
},
{
name = top;
pos = (344,639);
},
{
name = topright;
pos = (661,639);
}
);
layerId = "953CDB83-177D-4B72-9B41-8425D0D02E2F";
shapes = (
{
closed = 1;
nodes = (
(417,-12,o),
(484,43,o),
(516,109,c),
(520,109,l),
(531,0,l),
(585,0,l),
(585,639,l),
(518,639,l),
(518,290,ls),
(518,129,o),
(452,46,o),
(317,46,cs),
(215,46,o),
(161,103,o),
(161,227,cs),
(161,639,l),
(91,639,l),
(91,221,ls),
(91,63,o),
(169,-12,o),
(309,-12,cs)
);
}
);
vertWidth = 873.4;
width = 689;
},
{
anchors = (
{
name = bottom;
pos = (362,0);
},
{
name = ogonek;
pos = (651,13);
},
{
name = top;
pos = (362,646);
},
{
name = topright;
pos = (696,646);
}
);
layerId = "C85E24C5-F5D5-436B-96A2-CB17661C75AE";
shapes = (
{
closed = 1;
nodes = (
(397,-12,o),
(473,20,o),
(508,88,c),
(515,88,l),
(531,0,l),
(626,0,l),
(626,646,l),
(507,646,l),
(507,316,ls),
(507,172,o),
(468,85,o),
(337,85,cs),
(250,85,o),
(209,138,o),
(209,240,cs),
(209,646,l),
(89,646,l),
(89,223,ls),
(89,59,o),
(172,-12,o),
(312,-12,cs)
);
}
);
vertWidth = 235.4;
width = 723;
}
);
note = u;
unicode = 117;
}
{
color = 4;
glyphname = v;
kernLeft = v;
kernRight = v;
layers = (
{
anchors = (
{
name = bottom;
pos = (249,0);
},
{
name = top;
pos = (249,493);
}
);
layerId = "9E010061-AAF6-435A-AC72-EA6F5DDC7760";
shapes = (
{
closed = 1;
nodes = (
(317,0,l),
(496,493,l),
(357,493,l),
(267,211,l),
(249,110,l),
(246,110,l),
(229,211,l),
(139,493,l),
(0,493,l),
(180,0,l)
);
}
);
vertWidth = 1156;
width = 498;
},
{
anchors = (
{
name = bottom;
pos = (204,0);
},
{
name = top;
pos = (204,480);
}
);
layerId = "953CDB83-177D-4B72-9B41-8425D0D02E2F";
shapes = (
{
closed = 1;
nodes = (
(231,0,l),
(408,480,l),
(354,480,l),
(241,162,l),
(205,51,l),
(202,51,l),
(167,162,l),
(54,480,l),
(0,480,l),
(176,0,l)
);
}
);
vertWidth = 656;
width = 407;
},
{
anchors = (
{
name = bottom;
pos = (226,0);
},
{
name = top;
pos = (226,485);
}
);
layerId = "C85E24C5-F5D5-436B-96A2-CB17661C75AE";
shapes = (
{
closed = 1;
nodes = (
(275,0,l),
(452,485,l),
(357,485,l),
(259,198,l),
(227,78,l),
(223,78,l),
(192,198,l),
(94,485,l),
(0,485,l),
(177,0,l)
);
}
);
vertWidth = 177;
width = 451;
}
);
note = v;
unicode = 118;
}
{
color = 4;
glyphname = w;
kernLeft = KO_w;
kernRight = KO_w;
layers = (
{
anchors = (
{
name = bottom;
pos = (496,0);
},
{
name = top;
pos = (496,657);
}
);
layerId = "9E010061-AAF6-435A-AC72-EA6F5DDC7760";
shapes = (
{
closed = 1;
nodes = (
(380,0,l),
(426,230,l),
(491,519,l),
(495,519,l),
(563,233,l),
(606,0,l),
(799,0,l),
(981,657,l),
(806,657,l),
(734,363,l),
(696,150,l),
(691,150,l),
(666,340,l),
(595,657,l),
(399,657,l),
(323,340,l),
(298,150,l),
(293,150,l),
(260,363,l),
(188,657,l),
(12,657,l),
(190,0,l)
);
}
);
vertWidth = 1538.9;
width = 993;
},
{
anchors = (
{
name = bottom;
pos = (426,0);
},
{
name = top;
pos = (426,639);
}
);
layerId = "953CDB83-177D-4B72-9B41-8425D0D02E2F";
shapes = (
{
closed = 1;
nodes = (
(262,0,l),
(391,416,l),
(426,557,l),
(430,557,l),
(468,417,l),
(592,0,l),
(668,0,l),
(835,639,l),
(766,639,l),
(667,245,l),
(629,80,l),
(627,80,l),
(585,235,l),
(466,639,l),
(395,639,l),
(271,234,l),
(230,80,l),
(227,80,l),
(188,245,l),
(87,639,l),
(14,639,l),
(188,0,l)
);
}
);
vertWidth = 873.4;
width = 850;
},
{
anchors = (
{
name = bottom;
pos = (462,0);
},
{
name = top;
pos = (462,646);
}
);
layerId = "C85E24C5-F5D5-436B-96A2-CB17661C75AE";
shapes = (
{
closed = 1;
nodes = (
(317,0,l),
(411,337,l),
(458,534,l),
(462,534,l),
(512,338,l),
(601,0,l),
(736,0,l),
(909,647,l),
(791,647,l),
(707,310,l),
(667,116,l),
(663,116,l),
(624,290,l),
(528,647,l),
(398,647,l),
(297,290,l),
(260,114,l),
(255,114,l),
(217,310,l),
(133,647,l),
(13,647,l),
(185,0,l)
);
}
);
vertWidth = 235.4;
width = 924;
}
);
note = w;
unicode = 119;
userData = {
KernOnName = w;
};
}
{
color = 4;
glyphname = x;
layers = (
{
anchors = (
{
name = bottom;
pos = (302,0);
},
{
name = top;
pos = (302,580);
}
);
layerId = "9E010061-AAF6-435A-AC72-EA6F5DDC7760";
shapes = (
{
closed = 1;
nodes = (
(186,0,l),
(299,200,l),
(415,0,l),
(591,0,l),
(403,294,l),
(586,580,l),
(406,580,l),
(299,393,l),
(196,580,l),
(20,580,l),
(197,294,l),
(10,0,l)
);
}
);
vertWidth = 1357.3098;
width = 601;
},
{
anchors = (
{
name = bottom;
pos = (257,0);
},
{
name = top;
pos = (257,563);
}
);
layerId = "953CDB83-177D-4B72-9B41-8425D0D02E2F";
shapes = (
{
closed = 1;
nodes = (
(90,0,l),
(256,248,l),
(419,0,l),
(491,0,l),
(291,290,l),
(477,563,l),
(409,563,l),
(256,330,l),
(100,563,l),
(29,563,l),
(219,290,l),
(22,0,l)
);
}
);
vertWidth = 770.3388;
width = 513;
},
{
anchors = (
{
name = bottom;
pos = (275,0);
},
{
name = top;
pos = (275,570);
}
);
layerId = "C85E24C5-F5D5-436B-96A2-CB17661C75AE";
shapes = (
{
closed = 1;
nodes = (
(133,0,l),
(275,222,l),
(416,0,l),
(535,0,l),
(339,291,l),
(525,570,l),
(407,570,l),
(275,360,l),
(142,570,l),
(23,570,l),
(209,291,l),
(16,0,l)
);
}
);
vertWidth = 207.6228;
width = 551;
}
);
note = x;
unicode = 120;
userData = {
KernOnName = x;
};
}
{
color = 4;
glyphname = y;
kernLeft = KO_y;
kernRight = KO_y;
layers = (
{
anchors = (
{
name = bottom;
pos = (331.1,0);
},
{
name = top;
pos = (331.1,656.7);
}
);
layerId = "9E010061-AAF6-435A-AC72-EA6F5DDC7760";
shapes = (
{
closed = 1;
nodes = (
(259.6,-287.1,o),
(349.8,-210.1,o),
(393.8,-84.7,cs),
(660,656.7,l),
(470.8,656.7,l),
(355.3,286,l),
(333.3,170.5,l),
(328.9,170.5,l),
(311.3,286,l),
(194.7,656.7,l),
(0,656.7,l),
(249.7,4.4,l),
(247.5,-7.7,o),
(243.1,-18.7,o),
(240.9,-30.8,cs),
(223.3,-95.7,o),
(178.2,-146.3,o),
(108.9,-146.3,cs),
(82.5,-146.3,o),
(57.2,-141.9,o),
(41.8,-138.6,c),
(41.8,-278.3,l),
(62.7,-283.8,o),
(90.2,-287.1,o),
(128.7,-287.1,cs)
);
}
);
vertWidth = 1538.9;
width = 663.3;
},
{
anchors = (
{
name = bottom;
pos = (271.7,0);
},
{
name = top;
pos = (271.7,639.1);
}
);
layerId = "953CDB83-177D-4B72-9B41-8425D0D02E2F";
shapes = (
{
closed = 1;
nodes = (
(177.1,-289.3,o),
(227.7,-227.7,o),
(268.4,-114.4,cs),
(544.5,639.1,l),
(470.8,639.1,l),
(330,240.9,l),
(277.2,73.7,l),
(272.8,73.7,l),
(216.7,242,l),
(73.7,639.1,l),
(1.1,639.1,l),
(240.9,2.2,l),
(227.7,-33,o),
(215.6,-70.4,o),
(202.4,-106.7,cs),
(170.5,-188.1,o),
(135.3,-233.2,o),
(69.3,-233.2,cs),
(44,-233.2,o),
(20.9,-227.7,o),
(4.4,-222.2,c),
(4.4,-278.3,l),
(24.2,-284.9,o),
(46.2,-289.3,o),
(77,-289.3,cs)
);
}
);
vertWidth = 873.4;
width = 541.2;
},
{
anchors = (
{
name = bottom;
pos = (300.3,0);
},
{
name = top;
pos = (300.3,645.7);
}
);
layerId = "C85E24C5-F5D5-436B-96A2-CB17661C75AE";
shapes = (
{
closed = 1;
nodes = (
(221.1,-289.3,o),
(292.6,-211.2,o),
(335.5,-91.3,cs),
(602.8,645.7,l),
(475.2,645.7,l),
(349.8,275,l),
(305.8,115.5,l),
(302.5,115.5,l),
(259.6,275,l),
(128.7,645.7,l),
(1.1,645.7,l),
(248.6,0,l),
(239.8,-25.3,o),
(232.1,-51.7,o),
(222.2,-77,cs),
(198,-145.2,o),
(157.3,-191.4,o),
(88,-191.4,cs),
(61.6,-191.4,o),
(37.4,-189.2,o),
(19.8,-184.8,c),
(19.8,-278.3,l),
(41.8,-283.8,o),
(67.1,-289.3,o),
(103.4,-289.3,cs)
);
}
);
vertWidth = 235.4;
width = 601.7;
}
);
note = y;
unicode = 121;
}
{
glyphname = z;
kernLeft = z;
layers = (
{
layerId = "9E010061-AAF6-435A-AC72-EA6F5DDC7760";
shapes = (
{
closed = 1;
nodes = (
(180.281,102.035,l),
(390.316,406.097,l),
(390.316,492.984,l),
(35.357,492.984,l),
(35.357,390.817,l),
(238.224,390.817,l),
(22.641,78.33,l),
(22.641,0,l),
(397.372,0,l),
(397.372,102.035,l)
);
}
);
vertWidth = 1156;
width = 422.54702;
},
{
layerId = "953CDB83-177D-4B72-9B41-8425D0D02E2F";
shapes = (
{
closed = 1;
nodes = (
(94.972,41.858,l),
(362.483,444.218,l),
(362.483,479.815,l),
(53.513,479.815,l),
(53.513,438.897,l),
(302.233,438.897,l),
(34.402,33.776,l),
(34.402,0,l),
(364.662,0,l),
(364.662,41.858,l)
);
}
);
vertWidth = 656;
width = 399.7286;
},
{
layerId = "C85E24C5-F5D5-436B-96A2-CB17661C75AE";
shapes = (
{
closed = 1;
nodes = (
(134.437,69.265,l),
(372.241,422.244,l),
(372.241,485.205,l),
(45.278,485.205,l),
(45.278,416.713,l),
(272.22,416.713,l),
(30.256,56.749,l),
(30.256,0,l),
(378.73,0,l),
(378.73,69.265,l)
);
}
);
vertWidth = 177;
width = 408.96024;
}
);
note = z;
unicode = 122;
}
{
glyphname = braceleft;
kernRight = KO_braceleft;
layers = (
{
layerId = "9E010061-AAF6-435A-AC72-EA6F5DDC7760";
shapes = (
{
closed = 1;
nodes = (
(360,-49,l),
(310,-46,o),
(280,-33,o),
(280,23,cs),
(280,177,ls),
(280,243,o),
(237,282,o),
(162,291,c),
(162,297,l),
(239,308,o),
(280,347,o),
(280,411,cs),
(280,565,ls),
(280,622,o),
(310,639,o),
(360,638,c),
(360,757,l),
(194,757,o),
(140,725,o),
(140,613,cs),
(140,448,ls),
(140,386,o),
(99,357,o),
(15,357,c),
(15,231,l),
(95,231,o),
(140,205,o),
(140,139,cs),
(140,-26,ls),
(140,-162,o),
(243,-167,o),
(360,-167,c)
);
}
);
vertWidth = 1357.3098;
width = 401;
},
{
layerId = "953CDB83-177D-4B72-9B41-8425D0D02E2F";
shapes = (
{
closed = 1;
nodes = (
(333,-111,l),
(252,-110,o),
(212,-78,o),
(212,-4,cs),
(212,163,ls),
(212,235,o),
(183,281,o),
(113,292,c),
(113,297,l),
(181,311,o),
(212,356,o),
(212,428,cs),
(212,592,ls),
(212,668,o),
(253,699,o),
(333,700,c),
(333,757,l),
(212,757,o),
(146,699,o),
(146,599,cs),
(146,433,ls),
(146,355,o),
(111,323,o),
(27,323,c),
(27,268,l),
(110,268,o),
(146,236,o),
(146,156,cs),
(146,-11,ls),
(146,-113,o),
(212,-166,o),
(333,-167,c)
);
}
);
vertWidth = 770.3388;
width = 368;
},
{
layerId = "C85E24C5-F5D5-436B-96A2-CB17661C75AE";
shapes = (
{
closed = 1;
nodes = (
(356,-79,l),
(289,-77,o),
(251,-52,o),
(251,12,cs),
(251,167,ls),
(251,237,o),
(214,280,o),
(140,292,c),
(140,298,l),
(213,312,o),
(251,355,o),
(251,424,cs),
(251,576,ls),
(251,643,o),
(291,668,o),
(356,670,c),
(356,757,l),
(219,757,o),
(149,705,o),
(149,595,cs),
(149,437,ls),
(149,368,o),
(107,340,o),
(23,340,c),
(23,250,l),
(105,250,o),
(149,223,o),
(149,153,cs),
(149,-6,ls),
(149,-135,o),
(236,-164,o),
(356,-167,c)
);
}
);
vertWidth = 207.6228;
width = 390;
}
);
note = braceleft;
unicode = 123;
userData = {
KernOnSpecialSpacing = {
R = parenthesis;
};
};
}
{
glyphname = bar;
layers = (
{
layerId = "9E010061-AAF6-435A-AC72-EA6F5DDC7760";
shapes = (
{
closed = 1;
nodes = (
(285,-205,l),
(285,683,l),
(191,683,l),
(191,-205,l),
(191,-205,l)
);
}
);
vertWidth = 1156;
width = 477;
},
{
layerId = "953CDB83-177D-4B72-9B41-8425D0D02E2F";
shapes = (
{
closed = 1;
nodes = (
(256,-222,l),
(256,687,l),
(212,687,l),
(212,-222,l),
(212,-222,l)
);
}
);
vertWidth = 656;
width = 471;
},
{
layerId = "C85E24C5-F5D5-436B-96A2-CB17661C75AE";
shapes = (
{
closed = 1;
nodes = (
(273,-215,l),
(273,686,l),
(203,686,l),
(203,-215,l),
(203,-215,l)
);
}
);
vertWidth = 177;
width = 477;
}
);
note = bar;
unicode = 124;
}
{
glyphname = braceright;
kernLeft = parenright;
layers = (
{
layerId = "9E010061-AAF6-435A-AC72-EA6F5DDC7760";
shapes = (
{
closed = 1;
nodes = (
(113.406,-142.786,o),
(194.788,-117.068,o),
(223.69,-64.96,o),
(223.69,-21.49,qs),
(223.69,117.437,ls),
(223.69,146.666,o),
(248.386,181.423,o),
(297.269,196.834,o),
(331.667,196.834,q),
(331.667,303.8,l),
(297.269,303.8,o),
(248.386,319.461,o),
(223.69,355.138,o),
(223.69,381.777,qs),
(223.69,522.623,ls),
(223.69,565.844,o),
(194.041,619.371,o),
(113.542,644.84,o),
(35.755,644.84,q),
(35.755,543.227,l),
(56.584,543.227,o),
(88.369,532.747,o),
(104.143,506.856,o),
(104.143,482.059,qs),
(104.143,350.327,ls),
(104.143,308.7,o),
(157.165,260.201,o),
(204.793,253.33,q),
(204.793,247.803,l),
(157.165,241.853,o),
(104.143,193.354,o),
(104.143,151.727,qs),
(104.143,19.746,ls),
(104.143,-5.051,o),
(88.742,-30.693,o),
(56.957,-40.252,o),
(35.755,-41.173,q),
(35.755,-142.786,l)
);
}
);
vertWidth = 1156;
width = 341.16488;
},
{
layerId = "953CDB83-177D-4B72-9B41-8425D0D02E2F";
shapes = (
{
closed = 1;
nodes = (
(79.309,-142.786,o),
(150.479,-112.401,o),
(188.998,-53.039,o),
(188.998,-9.315,qs),
(188.998,134.227,ls),
(188.998,167.057,o),
(211.539,208.66,o),
(256.3,227.672,o),
(290.698,227.672,q),
(290.698,275.296,l),
(256.3,275.296,o),
(211.539,293.391,o),
(188.998,335.103,o),
(188.998,369.655,qs),
(188.998,510.448,ls),
(188.998,555.089,o),
(151.513,614.349,o),
(81.225,644.84,o),
(28.98,644.84,q),
(28.98,597.447,l),
(64.11,597.447,o),
(110.384,577.532,o),
(133.839,537.794,o),
(133.839,504.274,qs),
(133.839,363.617,ls),
(133.839,317.678,o),
(173.434,260.912,o),
(217.47,252.519,q),
(217.47,248.614,l),
(173.434,241.142,o),
(133.839,184.376,o),
(133.839,138.437,qs),
(133.839,-3.737,ls),
(133.839,-35.634,o),
(109.508,-75.478,o),
(63.952,-94.471,o),
(28.98,-95.393,q),
(28.98,-142.786,l)
);
}
);
vertWidth = 656;
width = 313.40356;
},
{
layerId = "C85E24C5-F5D5-436B-96A2-CB17661C75AE";
shapes = (
{
closed = 1;
nodes = (
(88.406,-142.786,o),
(166.788,-113.068,o),
(205.69,-51.96,o),
(205.69,-5.49,qs),
(205.69,130.437,ls),
(205.69,160.666,o),
(230.386,196.423,o),
(278.269,212.834,o),
(312.667,212.834,q),
(312.667,289.8,l),
(278.269,289.8,o),
(230.386,305.461,o),
(205.69,342.138,o),
(205.69,372.777,qs),
(205.69,506.623,ls),
(205.69,553.844,o),
(168.041,614.371,o),
(90.542,644.84,o),
(29.755,644.84,q),
(29.755,570.227,l),
(58.584,570.227,o),
(97.369,553.747,o),
(118.143,520.856,o),
(118.143,492.059,qs),
(118.143,360.327,ls),
(118.143,315.7,o),
(166.165,262.201,o),
(213.793,253.33,q),
(213.793,247.803,l),
(166.165,239.853,o),
(118.143,186.354,o),
(118.143,141.727,qs),
(118.143,10.746,ls),
(118.143,-18.051,o),
(96.742,-51.693,o),
(57.957,-67.252,o),
(29.755,-68.173,q),
(29.755,-142.786,l)
);
}
);
vertWidth = 177;
width = 332.16488;
}
);
note = braceright;
unicode = 125;
}
{
glyphname = asciitilde;
layers = (
{
layerId = "9E010061-AAF6-435A-AC72-EA6F5DDC7760";
shapes = (
{
closed = 1;
nodes = (
(77,319,o),
(122,346,o),
(158,346,cs),
(190,346,o),
(221,340,o),
(273,318,cs),
(337,290,o),
(370,285,o),
(410,285,cs),
(460,285,o),
(503,302,o),
(536,341,c),
(536,464,l),
(503,429,o),
(460,401,o),
(420,401,cs),
(391,401,o),
(358,407,o),
(308,429,cs),
(244,457,o),
(209,464,o),
(170,464,cs),
(118,464,o),
(77,444,o),
(42,407,c),
(42,284,l)
);
}
);
vertWidth = 1357.3098;
width = 582;
},
{
layerId = "953CDB83-177D-4B72-9B41-8425D0D02E2F";
shapes = (
{
closed = 1;
nodes = (
(88,356,o),
(132,378,o),
(170,378,cs),
(206,378,o),
(235,370,o),
(279,350,cs),
(331,326,o),
(365,316,o),
(408,316,cs),
(455,316,o),
(496,337,o),
(527,370,c),
(527,430,l),
(491,391,o),
(447,370,o),
(410,370,cs),
(376,370,o),
(347,380,o),
(303,401,cs),
(251,425,o),
(221,433,o),
(174,433,cs),
(127,433,o),
(85,414,o),
(52,379,c),
(52,318,l)
);
}
);
vertWidth = 770.3388;
width = 581;
},
{
layerId = "C85E24C5-F5D5-436B-96A2-CB17661C75AE";
shapes = (
{
closed = 1;
nodes = (
(83,336,o),
(125,363,o),
(164,363,cs),
(194,363,o),
(223,357,o),
(274,335,cs),
(335,308,o),
(369,301,o),
(408,301,cs),
(457,301,o),
(498,322,o),
(532,358,c),
(532,449,l),
(498,414,o),
(454,386,o),
(415,386,cs),
(385,386,o),
(356,393,o),
(307,415,cs),
(244,444,o),
(212,449,o),
(173,449,cs),
(122,449,o),
(83,429,o),
(49,393,c),
(49,301,l)
);
}
);
vertWidth = 207.6228;
width = 582;
}
);
note = asciitilde;
unicode = 126;
userData = {
KernOnSpecialSpacing = {
L = math;
R = math;
};
};
}
{
glyphname = exclamdown;
layers = (
{
layerId = "9E010061-AAF6-435A-AC72-EA6F5DDC7760";
shapes = (
{
closed = 1;
nodes = (
(236,-191,l),
(212,311,l),
(78,311,l),
(55,-191,l)
);
},
{
closed = 1;
nodes = (
(198,401,o),
(237,424,o),
(237,491,cs),
(237,553,o),
(196,580,o),
(146,580,cs),
(97,580,o),
(56,553,o),
(56,488,cs),
(56,425,o),
(96,401,o),
(147,401,cs)
);
}
);
vertWidth = 1357.3098;
width = 293;
},
{
layerId = "953CDB83-177D-4B72-9B41-8425D0D02E2F";
shapes = (
{
closed = 1;
nodes = (
(166,-195,l),
(151,360,l),
(103,360,l),
(86,-195,l)
);
},
{
closed = 1;
nodes = (
(157,464,o),
(175,482,o),
(175,518,cs),
(175,556,o),
(157,574,o),
(128,574,cs),
(97,574,o),
(78,556,o),
(78,518,cs),
(78,482,o),
(97,464,o),
(128,464,cs)
);
}
);
vertWidth = 770.3388;
width = 253;
},
{
layerId = "C85E24C5-F5D5-436B-96A2-CB17661C75AE";
shapes = (
{
closed = 1;
nodes = (
(71,-193,l),
(203,-193,l),
(178,340,l),
(97,340,l)
);
},
{
closed = 1;
nodes = (
(178,427,o),
(211,447,o),
(211,503,cs),
(211,556,o),
(178,580,o),
(139,580,cs),
(101,580,o),
(68,556,o),
(68,502,cs),
(68,447,o),
(101,427,o),
(139,427,cs)
);
}
);
vertWidth = 207.6228;
width = 279;
}
);
note = exclamdown;
unicode = 161;
userData = {
KernOnSpecialSpacing = {
R = "spaced-off";
};
};
}
{
color = 6;
glyphname = cent;
layers = (
{
layerId = "9E010061-AAF6-435A-AC72-EA6F5DDC7760";
shapes = (
{
closed = 1;
nodes = (
(418,-12,l),
(418,99,l),
(470,102,o),
(519,114,o),
(565,140,c),
(565,286,l),
(506,260,o),
(461,242,o),
(388,242,cs),
(306,242,o),
(261,306,o),
(261,437,cs),
(261,567,o),
(303,635,o),
(387,635,cs),
(437,635,o),
(480,619,o),
(534,597,c),
(587,735,l),
(541,755,o),
(491,774,o),
(418,778,c),
(418,869,l),
(315,869,l),
(315,773,l),
(140,746,o),
(80,617,o),
(80,436,cs),
(80,228,o),
(167,127,o),
(315,103,c),
(315,-12,l)
);
}
);
vertWidth = 1538.9;
width = 660;
},
{
layerId = "953CDB83-177D-4B72-9B41-8425D0D02E2F";
shapes = (
{
closed = 1;
nodes = (
(397,-12,l),
(397,106,l),
(457,109,o),
(502,121,o),
(541,141,c),
(541,201,l),
(495,182,o),
(444,167,o),
(382,167,cs),
(239,167,o),
(172,271,o),
(172,436,cs),
(172,607,o),
(253,711,o),
(393,711,cs),
(437,711,o),
(487,700,o),
(531,680,c),
(549,740,l),
(507,756,o),
(458,769,o),
(398,769,c),
(398,869,l),
(343,869,l),
(343,767,l),
(195,747,o),
(101,634,o),
(101,436,cs),
(101,234,o),
(186,125,o),
(343,108,c),
(343,-12,l)
);
}
);
vertWidth = 873.4;
width = 659;
},
{
layerId = "C85E24C5-F5D5-436B-96A2-CB17661C75AE";
shapes = (
{
closed = 1;
nodes = (
(407,-12,l),
(407,102,l),
(466,107,o),
(509,120,o),
(552,141,c),
(552,242,l),
(501,221,o),
(455,205,o),
(386,205,cs),
(275,205,o),
(218,279,o),
(218,437,cs),
(218,594,o),
(275,674,o),
(391,674,cs),
(433,674,o),
(486,659,o),
(531,641,c),
(564,739,l),
(525,756,o),
(471,772,o),
(408,773,c),
(408,869,l),
(326,869,l),
(326,769,l),
(185,747,o),
(97,647,o),
(97,436,cs),
(97,264,o),
(156,132,o),
(326,108,c),
(326,-12,l)
);
}
);
vertWidth = 235.4;
width = 660;
}
);
note = cent;
unicode = 162;
userData = {
KernOnSpecialSpacing = {
L = symbols;
R = symbols;
};
};
}
{
glyphname = sterling;
layers = (
{
layerId = "9E010061-AAF6-435A-AC72-EA6F5DDC7760";
shapes = (
{
closed = 1;
nodes = (
(160.413,615.76,o),
(109.479,536.138,o),
(109.479,470.458,qs),
(109.479,382.336,l),
(35.426,382.336,l),
(35.426,287.149,l),
(109.479,287.149,l),
(109.479,222.303,ls),
(109.479,187.83,o),
(93.124,145.597,o),
(59.497,118.227,o),
(35.058,108.616,q),
(35.058,0,l),
(478.738,0,l),
(478.738,113.222,l),
(176.829,113.222,l),
(192.705,121.247,o),
(222.325,148.617,o),
(241.361,191.514,o),
(241.361,223.225,qs),
(241.361,287.149,l),
(398.031,287.149,l),
(398.031,382.336,l),
(241.361,382.336,l),
(241.361,469.413,ls),
(241.361,511.637,o),
(281.385,545.436,o),
(307.887,545.436,qs),
(333.174,545.436,o),
(392.379,529.519,o),
(421.117,516.49,q),
(460.473,617.47,l),
(427.325,633.13,o),
(342.619,653.264,o),
(296.13,653.264,qs),
(245.231,653.264,o)
);
}
);
vertWidth = 1156;
width = 495.684;
},
{
layerId = "953CDB83-177D-4B72-9B41-8425D0D02E2F";
shapes = (
{
closed = 1;
nodes = (
(165.857,611.625,o),
(126.793,532.466,o),
(126.793,474.6,qs),
(126.793,336.702,l),
(38.892,336.702,l),
(38.892,295.72,l),
(126.793,295.72,l),
(126.793,181.113,ls),
(126.793,139.596,o),
(102.985,83.275,o),
(60.985,49.17,o),
(31.316,43.694,q),
(31.316,0,l),
(455.459,0,l),
(455.459,46.464,l),
(114.554,46.464,l),
(132.056,57.551,o),
(160.97,89.821,o),
(177.675,143.28,o),
(177.675,182.034,qs),
(177.675,295.72,l),
(351.827,295.72,l),
(351.827,336.702,l),
(177.675,336.702,l),
(177.675,468.039,ls),
(177.675,541.038,o),
(236.316,608.522,o),
(293.197,608.522,qs),
(328.619,608.522,o),
(388.883,590.916,o),
(415.29,578.959,q),
(433.591,620.834,l),
(406.025,633.74,o),
(336.792,652.191,o),
(292.388,652.191,qs),
(241.137,652.191,o)
);
}
);
vertWidth = 656;
width = 494.87119;
},
{
layerId = "C85E24C5-F5D5-436B-96A2-CB17661C75AE";
shapes = (
{
closed = 1;
nodes = (
(158.703,612.937,o),
(113.835,535.711,o),
(113.835,477.968,qs),
(113.835,355.163,l),
(32.705,355.163,l),
(32.705,289.707,l),
(113.835,289.707,l),
(113.835,199.552,ls),
(113.835,161.135,o),
(92.709,111.016,o),
(55.765,81.301,o),
(29.937,74.514,q),
(29.937,0,l),
(465.879,0,l),
(465.879,78.907,l),
(141.473,78.907,l),
(157.539,88.85,o),
(185.514,118.351,o),
(202.717,164.82,o),
(202.717,200.473,qs),
(202.717,289.707,l),
(373.135,289.707,l),
(373.135,355.163,l),
(202.717,355.163,l),
(202.717,471.596,ls),
(202.717,529.113,o),
(251.934,579.324,o),
(295.245,579.324,qs),
(327.958,579.324,o),
(389.629,559.306,o),
(416.534,547.182,q),
(446.414,616.299,l),
(415.477,631.639,o),
(338.036,652.358,o),
(291.009,652.358,qs),
(239.288,652.358,o)
);
}
);
vertWidth = 177;
width = 495.58949;
}
);
note = sterling;
unicode = 163;
}
{
glyphname = currency;
layers = (
{
layerId = "9E010061-AAF6-435A-AC72-EA6F5DDC7760";
shapes = (
{
closed = 1;
nodes = (
(377.8,222.2,o),
(418.5,235.4,o),
(451.5,258.5,c),
(564.8,144.1,l),
(619.8,200.2,l),
(506.5,313.5,l),
(529.6,346.5,o),
(542.8,386.1,o),
(542.8,430.1,cs),
(542.8,473,o),
(529.6,512.6,o),
(506.5,545.6,c),
(619.8,658.9,l),
(564.8,715,l),
(451.5,600.6,l),
(418.5,622.6,o),
(377.8,635.8,o),
(334.9,635.8,cs),
(292,635.8,o),
(251.3,622.6,o),
(218.3,600.6,c),
(105,715,l),
(50,658.9,l),
(163.3,545.6,l),
(140.2,512.6,o),
(127,473,o),
(127,430.1,cs),
(127,386.1,o),
(140.2,346.5,o),
(163.3,313.5,c),
(50,200.2,l),
(105,144.1,l),
(218.3,258.5,l),
(251.3,235.4,o),
(292,222.2,o),
(334.9,222.2,cs)
);
},
{
closed = 1;
nodes = (
(263.4,299.2,o),
(204,357.5,o),
(204,430.1,cs),
(204,500.5,o),
(263.4,558.8,o),
(334.9,558.8,cs),
(406.4,558.8,o),
(465.8,500.5,o),
(465.8,430.1,cs),
(465.8,357.5,o),
(406.4,299.2,o),
(334.9,299.2,cs)
);
}
);
width = 669.8;
},
{
layerId = "C85E24C5-F5D5-436B-96A2-CB17661C75AE";
shapes = (
{
closed = 1;
nodes = (
(377.8,222.2,o),
(418.5,235.4,o),
(451.5,258.5,c),
(564.8,144.1,l),
(619.8,200.2,l),
(506.5,313.5,l),
(529.6,346.5,o),
(542.8,386.1,o),
(542.8,430.1,cs),
(542.8,473,o),
(529.6,512.6,o),
(506.5,545.6,c),
(619.8,658.9,l),
(564.8,715,l),
(451.5,600.6,l),
(418.5,622.6,o),
(377.8,635.8,o),
(334.9,635.8,cs),
(292,635.8,o),
(251.3,622.6,o),
(218.3,600.6,c),
(105,715,l),
(50,658.9,l),
(163.3,545.6,l),
(140.2,512.6,o),
(127,473,o),
(127,430.1,cs),
(127,386.1,o),
(140.2,346.5,o),
(163.3,313.5,c),
(50,200.2,l),
(105,144.1,l),
(218.3,258.5,l),
(251.3,235.4,o),
(292,222.2,o),
(334.9,222.2,cs)
);
},
{
closed = 1;
nodes = (
(263.4,299.2,o),
(204,357.5,o),
(204,430.1,cs),
(204,500.5,o),
(263.4,558.8,o),
(334.9,558.8,cs),
(406.4,558.8,o),
(465.8,500.5,o),
(465.8,430.1,cs),
(465.8,357.5,o),
(406.4,299.2,o),
(334.9,299.2,cs)
);
}
);
width = 669.8;
},
{
layerId = "953CDB83-177D-4B72-9B41-8425D0D02E2F";
shapes = (
{
closed = 1;
nodes = (
(373.4,228.8,o),
(414.1,243.1,o),
(447.1,267.3,c),
(564.8,149.6,l),
(608.8,194.7,l),
(491.1,312.4,l),
(515.3,345.4,o),
(529.6,386.1,o),
(529.6,430.1,cs),
(529.6,473,o),
(515.3,513.7,o),
(491.1,546.7,c),
(608.8,664.4,l),
(564.8,709.5,l),
(447.1,590.7,l),
(414.1,614.9,o),
(373.4,629.2,o),
(329.4,629.2,cs),
(286.5,629.2,o),
(245.8,614.9,o),
(212.8,590.7,c),
(94,709.5,l),
(50,664.4,l),
(167.7,546.7,l),
(143.5,513.7,o),
(130.3,473,o),
(130.3,430.1,cs),
(130.3,386.1,o),
(144.6,345.4,o),
(167.7,312.4,c),
(50,194.7,l),
(94,149.6,l),
(212.8,267.3,l),
(245.8,243.1,o),
(286.5,228.8,o),
(329.4,228.8,cs)
);
},
{
closed = 1;
nodes = (
(253.5,292.6,o),
(191.9,354.2,o),
(191.9,430.1,cs),
(191.9,504.9,o),
(253.5,565.4,o),
(329.4,565.4,cs),
(405.3,565.4,o),
(466.9,504.9,o),
(466.9,430.1,cs),
(466.9,354.2,o),
(405.3,292.6,o),
(329.4,292.6,cs)
);
}
);
width = 658.8;
}
);
metricLeft = "=50";
metricRight = "=|";
unicode = 164;
}
{
glyphname = yen;
layers = (
{
layerId = "9E010061-AAF6-435A-AC72-EA6F5DDC7760";
shapes = (
{
closed = 1;
nodes = (
(1.473,644.84,l),
(159.17,315.193,l),
(81.915,315.193,l),
(81.915,237.527,l),
(183.866,237.527,l),
(183.866,176.215,l),
(81.915,176.215,l),
(81.915,98.55,l),
(183.866,98.55,l),
(183.866,0,l),
(308.29,0,l),
(308.29,98.55,l),
(410.241,98.55,l),
(410.241,176.215,l),
(308.29,176.215,l),
(308.29,237.527,l),
(410.241,237.527,l),
(410.241,315.193,l),
(330.083,315.193,l),
(491.565,644.84,l),
(355.017,644.84,l),
(246.078,378.404,l),
(138.903,644.84,l)
);
}
);
vertWidth = 1156;
width = 495.684;
},
{
layerId = "953CDB83-177D-4B72-9B41-8425D0D02E2F";
shapes = (
{
closed = 1;
nodes = (
(16.486,644.84,l),
(204.885,299.269,l),
(80.857,299.269,l),
(80.857,258.042,l),
(221.453,258.042,l),
(221.453,171.316,l),
(80.857,171.316,l),
(80.857,131.007,l),
(221.453,131.007,l),
(221.453,0,l),
(271.516,0,l),
(271.516,131.007,l),
(412.112,131.007,l),
(412.112,171.316,l),
(271.516,171.316,l),
(271.516,258.042,l),
(412.112,258.042,l),
(412.112,299.269,l),
(287.159,299.269,l),
(476.552,644.84,l),
(421.356,644.84,l),
(246.078,316.23,l),
(71.751,644.84,l)
);
}
);
vertWidth = 656;
width = 494.87119;
},
{
layerId = "C85E24C5-F5D5-436B-96A2-CB17661C75AE";
shapes = (
{
closed = 1;
nodes = (
(9.466,644.84,l),
(179.324,307.093,l),
(79.449,307.093,l),
(79.449,246.16,l),
(203.075,246.16,l),
(203.075,174.084,l),
(79.449,174.084,l),
(79.449,113.257,l),
(203.075,113.257,l),
(203.075,0,l),
(289.175,0,l),
(289.175,113.257,l),
(412.802,113.257,l),
(412.802,174.084,l),
(289.175,174.084,l),
(289.175,246.16,l),
(412.802,246.16,l),
(412.802,307.093,l),
(311.034,307.093,l),
(483.572,644.84,l),
(390.845,644.84,l),
(246.078,339.936,l),
(102.98,644.84,l)
);
}
);
vertWidth = 177;
width = 495.58949;
}
);
note = yen;
unicode = 165;
}
{
glyphname = brokenbar;
layers = (
{
layerId = "9E010061-AAF6-435A-AC72-EA6F5DDC7760";
shapes = (
{
closed = 1;
nodes = (
(216,-241,l),
(216,229,l),
(106,229,l),
(106,-241,l)
);
},
{
closed = 1;
nodes = (
(216,347,l),
(216,802,l),
(106,802,l),
(106,347,l)
);
}
);
width = 322;
},
{
layerId = "C85E24C5-F5D5-436B-96A2-CB17661C75AE";
shapes = (
{
closed = 1;
nodes = (
(188,-241,l),
(188,229,l),
(106,229,l),
(106,-241,l)
);
},
{
closed = 1;
nodes = (
(188,347,l),
(188,802,l),
(106,802,l),
(106,347,l)
);
}
);
width = 294;
},
{
layerId = "953CDB83-177D-4B72-9B41-8425D0D02E2F";
shapes = (
{
closed = 1;
nodes = (
(168,-241,l),
(168,229,l),
(117,229,l),
(117,-241,l)
);
},
{
closed = 1;
nodes = (
(168,347,l),
(168,802,l),
(117,802,l),
(117,347,l)
);
}
);
width = 285;
}
);
metricLeft = "=bar";
metricRight = "=|";
unicode = 166;
}
{
glyphname = section;
layers = (
{
layerId = "9E010061-AAF6-435A-AC72-EA6F5DDC7760";
shapes = (
{
closed = 1;
nodes = (
(81.735,259.247,o),
(142.961,220.423,o),
(185.665,202,qs),
(222.417,185.551,o),
(257.774,162.131,o),
(271.372,140.421,o),
(271.372,124.894,qs),
(271.372,104.238,o),
(237.154,72.794,o),
(191.359,72.794,qs),
(170.337,72.794,o),
(118.188,84.769,o),
(66.261,105.567,o),
(44.579,116.755,q),
(44.579,25.927,l),
(74.199,8.946,o),
(146.523,-8.69,o),
(192.387,-8.69,qs),
(276.913,-8.69,o),
(376.579,67.646,o),
(376.579,133.45,qs),
(376.579,165.427,o),
(350.779,212.275,o),
(325.347,229.778,q),
(348.904,246.492,o),
(376.323,299.39,o),
(376.323,343.342,qs),
(376.323,380.323,o),
(342.807,434.018,o),
(283.601,475.738,o),
(242.918,493.241,qs),
(213.11,506.527,o),
(174.851,528.237,o),
(155.704,551.789,o),
(155.704,565.474,qs),
(155.704,587.051,o),
(185.768,606.387,o),
(219.215,606.387,qs),
(250.676,606.387,o),
(311.166,584.801,o),
(338.876,569.663,q),
(374.961,653.387,l),
(338.91,670.235,o),
(264.163,690.9,o),
(221.091,690.9,qs),
(145.641,690.9,o),
(49.983,621.012,o),
(49.983,563.632,qs),
(49.983,530.735,o),
(78.686,479.936,o),
(106.396,462.433,q),
(83.096,446.64,o),
(50.496,391.368,o),
(50.496,353.342,qs),
(50.496,313.73,o)
);
},
{
closed = 1;
nodes = (
(169.379,418.073,o),
(182.942,424.521,q),
(221.57,409.915,o),
(263.212,382.156,o),
(278.171,350.312,o),
(278.171,332.287,qs),
(278.171,309.267,o),
(259.718,278.877,o),
(247.773,268.088,q),
(242.661,271.241,ls),
(212.847,289.631,o),
(167.281,313.74,o),
(147.766,344.662,o),
(147.766,362.554,qs),
(147.766,384.919,o)
);
}
);
vertWidth = 1156;
width = 416.71433;
},
{
layerId = "953CDB83-177D-4B72-9B41-8425D0D02E2F";
shapes = (
{
closed = 1;
nodes = (
(99.186,265.372,o),
(163.556,233.13,o),
(205.34,217.461,qs),
(248.164,202.694,o),
(301.678,175.904,o),
(327.36,144.55,o),
(327.36,119.686,qs),
(327.36,85.56,o),
(270.569,38.5,o),
(200.33,38.5,qs),
(174.646,38.5,o),
(121.439,47.721,o),
(73.822,64.23,o),
(53.658,74.345,q),
(53.658,26.691,l),
(79.321,14.763,o),
(152.458,-2.718,o),
(198.322,-2.718,qs),
(285.071,-2.718,o),
(376.609,64.429,o),
(376.609,123.344,qs),
(376.609,160.219,o),
(338.94,207.222,o),
(308.033,222.888,q),
(336.819,240.367,o),
(379.144,299.39,o),
(379.144,344.568,qs),
(379.144,384.149,o),
(341.563,433.864,o),
(276.424,468.848,o),
(235.495,482.679,qs),
(196.119,497.5,o),
(143.307,520.59,o),
(116.492,551.032,o),
(116.492,574.053,qs),
(116.492,609.101,o),
(170.403,646.043,o),
(226.668,646.043,qs),
(264.201,646.043,o),
(326.424,631.346,o),
(354.026,618.507,q),
(370.329,659.667,l),
(341.026,672.534,o),
(274.084,688.146,o),
(229.601,688.146,qs),
(152.389,688.146,o),
(67.434,626.528,o),
(67.434,573.129,qs),
(67.434,533.496,o),
(109.28,487.442,o),
(143.385,470.857,q),
(110.439,457.055,o),
(63.991,401.783,o),
(63.991,356.559,qs),
(63.991,316.029,o)
);
},
{
closed = 1;
nodes = (
(156.344,443.339,o),
(189.337,452.542,q),
(240.784,437.782,o),
(304.079,406.343,o),
(333.699,366.692,o),
(333.699,339.023,qs),
(333.699,303.905,o),
(294.054,254.991,o),
(267.34,241.139,q),
(233.153,253.173,ls),
(192.624,267.437,o),
(137.255,295.678,o),
(109.366,332.571,o),
(109.366,361.18,qs),
(109.366,398.089,o)
);
}
);
vertWidth = 656;
width = 445.35988;
},
{
layerId = "C85E24C5-F5D5-436B-96A2-CB17661C75AE";
shapes = (
{
closed = 1;
nodes = (
(90.012,263.083,o),
(153.165,225.806,o),
(197.324,207.702,qs),
(241.03,190.668,o),
(286.308,163.733,o),
(302.873,138.558,o),
(302.873,121.164,qs),
(302.873,95.818,o),
(257.44,57.873,o),
(197.869,57.873,qs),
(173.181,57.873,o),
(118.566,69.528,o),
(69.483,86.703,o),
(49.54,96.985,q),
(49.54,25.234,l),
(77.138,11.184,o),
(149.556,-5.652,o),
(195.42,-5.652,qs),
(283.329,-5.652,o),
(382.05,64.929,o),
(382.05,127.59,qs),
(382.05,161.697,o),
(350.183,209.344,o),
(320.991,226.634,q),
(345.937,242.656,o),
(382.898,299.39,o),
(382.898,345.046,qs),
(382.898,381.549,o),
(348.91,433.219,o),
(286.672,472.594,o),
(243.617,489.67,qs),
(204.106,506.258,o),
(157.125,530.472,o),
(136.306,557.168,o),
(136.306,572.72,qs),
(136.306,598.987,o),
(176.953,625.837,o),
(223.987,625.837,qs),
(262.401,625.837,o),
(321.531,607.394,o),
(350.79,594.866,q),
(376.766,658.022,l),
(343.842,672.845,o),
(274.688,690.58,o),
(228.328,690.58,qs),
(148.769,690.58,o),
(58.26,626.339,o),
(58.26,570.984,qs),
(58.26,535.742,o),
(92.396,486.275,o),
(122.412,468.879,q),
(96.428,454.098,o),
(56.751,398.826,o),
(56.751,356.059,qs),
(56.751,316.341,o)
);
},
{
closed = 1;
nodes = (
(162.396,432.725,o),
(185.248,439.494,q),
(233.957,424.089,o),
(288.269,391.216,o),
(310.4,356.122,o),
(310.4,334.632,qs),
(310.4,304.738,o),
(278.549,266.728,o),
(260.982,254.021,q),
(243.898,261.33,ls),
(203.007,278.827,o),
(151.294,308.516,o),
(128.462,342.475,o),
(128.462,364.737,qs),
(128.462,392.698,o)
);
}
);
vertWidth = 177;
width = 434.88349;
}
);
note = section;
unicode = 167;
}
{
glyphname = dieresis;
layers = (
{
layerId = "9E010061-AAF6-435A-AC72-EA6F5DDC7760";
shapes = (
{
closed = 1;
nodes = (
(563,813,o),
(604,838,o),
(604,894,cs),
(604,952,o),
(563,975,o),
(518,975,cs),
(474,975,o),
(436,952,o),
(436,893,cs),
(436,838,o),
(474,813,o),
(518,813,cs)
);
},
{
closed = 1;
nodes = (
(309,813,o),
(348,838,o),
(348,894,cs),
(348,952,o),
(309,975,o),
(264,975,cs),
(217,975,o),
(182,952,o),
(182,893,cs),
(182,838,o),
(217,813,o),
(264,813,cs)
);
}
);
vertWidth = 1538.9;
width = 787;
},
{
layerId = "953CDB83-177D-4B72-9B41-8425D0D02E2F";
shapes = (
{
closed = 1;
nodes = (
(527,835,o),
(540,854,o),
(540,887,cs),
(540,919,o),
(527,936,o),
(495,936,cs),
(469,936,o),
(452,919,o),
(452,887,cs),
(452,854,o),
(469,835,o),
(495,835,cs)
);
},
{
closed = 1;
nodes = (
(285,835,o),
(298,854,o),
(298,887,cs),
(298,919,o),
(285,936,o),
(254,936,cs),
(224,936,o),
(210,919,o),
(210,887,cs),
(210,854,o),
(224,835,o),
(254,835,cs)
);
}
);
vertWidth = 873.4;
width = 755;
},
{
layerId = "C85E24C5-F5D5-436B-96A2-CB17661C75AE";
shapes = (
{
closed = 1;
nodes = (
(538,823,o),
(565,845,o),
(565,889,cs),
(565,934,o),
(538,953,o),
(501,953,cs),
(469,953,o),
(441,934,o),
(441,889,cs),
(441,845,o),
(469,823,o),
(501,823,cs)
);
},
{
closed = 1;
nodes = (
(292,823,o),
(319,845,o),
(319,889,cs),
(319,934,o),
(292,953,o),
(257,953,cs),
(222,953,o),
(195,934,o),
(195,889,cs),
(195,845,o),
(222,823,o),
(257,823,cs)
);
}
);
vertWidth = 235.4;
width = 762;
}
);
note = dieresis;
unicode = 168;
}
{
glyphname = copyright;
layers = (
{
layerId = "9E010061-AAF6-435A-AC72-EA6F5DDC7760";
shapes = (
{
closed = 1;
nodes = (
(446.292,128.569,o),
(466.578,137.781,q),
(466.578,199.9,l),
(445.41,190.688,o),
(396.018,178.713,o),
(375.732,178.713,qs),
(319.284,178.713,o),
(269.892,253.33,o),
(269.892,322.42,qs),
(269.892,388.746,o),
(325.458,465.206,o),
(376.614,465.206,qs),
(395.136,465.206,o),
(435.708,453.23,o),
(456.876,441.255,q),
(482.454,501.665,l),
(457.758,514.561,o),
(403.074,528.379,o),
(375.732,528.379,qs),
(317.888,528.379,o),
(238.251,474.817,o),
(196.54,382.431,o),
(196.54,322.42,qs),
(196.54,229.113,o),
(283.233,115.672,o),
(372.204,115.672,qs),
(403.074,115.672,o)
);
},
{
closed = 1;
nodes = (
(544.194,39.612,o),
(629.748,128.968,o),
(676.494,249.645,o),
(676.494,322.42,qs),
(676.494,394.274,o),
(627.102,515.872,o),
(539.784,605.228,o),
(425.124,653.131,o),
(359.856,653.131,qs),
(292.456,653.131,o),
(176.914,602.066,o),
(90.221,511.788,o),
(42.336,391.111,o),
(42.336,322.42,qs),
(42.336,249.645,o),
(89.082,128.968,o),
(174.636,39.612,o),
(290.178,-9.212,o),
(359.856,-9.212,qs),
(428.652,-9.212,o)
);
},
{
closed = 1;
nodes = (
(208.555,89.1,o),
(140.529,162.397,o),
(101.721,262.409,o),
(101.721,322.42,qs),
(101.721,380.978,o),
(141.411,483.231,o),
(210.833,556.528,o),
(304.179,596.795,o),
(359.856,596.795,qs),
(413.769,596.795,o),
(507.115,554.819,o),
(576.537,478.492,o),
(616.227,379.269,o),
(616.227,322.42,qs),
(616.227,262.941,o),
(575.655,161.742,o),
(504.983,89.499,o),
(412.262,48.966,o),
(359.856,48.966,qs),
(303.04,48.966,o)
);
}
);
vertWidth = 1156;
width = 719.712;
},
{
layerId = "953CDB83-177D-4B72-9B41-8425D0D02E2F";
shapes = (
{
closed = 1;
nodes = (
(449.543,135.459,o),
(470.642,144.671,q),
(470.642,185.21,l),
(447.036,175.08,o),
(400.895,165.859,o),
(375.732,165.859,qs),
(315.22,165.859,o),
(247.946,245.067,o),
(247.946,322.42,qs),
(247.946,394.255,o),
(318.956,478.978,o),
(377.427,478.978,qs),
(402.451,478.978,o),
(446.274,467.003,o),
(466.63,455.945,q),
(484.892,494.621,l),
(461.822,506.599,o),
(409.576,519.499,o),
(377.358,519.499,qs),
(322.657,519.499,o),
(242.56,470.682,o),
(200.389,381.359,o),
(200.389,322.42,qs),
(200.389,228.503,o),
(290.794,124.398,o),
(373.83,124.398,qs),
(403.887,124.398,o)
);
},
{
closed = 1;
nodes = (
(541.756,41.448,o),
(628.122,131.722,o),
(676.494,251.482,o),
(676.494,322.42,qs),
(676.494,390.601,o),
(627.915,510.363,o),
(541.41,601.556,o),
(426.75,652.213,o),
(359.856,652.213,qs),
(291.751,652.213,o),
(177.021,604.365,o),
(90.681,515.005,o),
(42.336,393.41,o),
(42.336,322.42,qs),
(42.336,251.482,o),
(89.082,131.722,o),
(174.636,41.448,o),
(290.178,-8.294,o),
(359.856,-8.294,qs),
(427.026,-8.294,o)
);
},
{
closed = 1;
nodes = (
(194.599,73.639,o),
(119.827,154.743,o),
(79.393,261.645,o),
(79.393,322.42,qs),
(79.393,385.113,o),
(121.522,491.957,o),
(196.985,572.144,o),
(299.057,617.31,o),
(359.856,617.31,qs),
(419.704,617.31,o),
(522.589,570.28,o),
(597.239,489.209,o),
(639.368,382.331,o),
(639.368,322.42,qs),
(639.368,259.724,o),
(596.357,153.78,o),
(519.751,72.657,o),
(417.844,27.533,o),
(359.856,27.533,qs),
(297.458,27.533,o)
);
}
);
vertWidth = 656;
width = 719.712;
},
{
layerId = "C85E24C5-F5D5-436B-96A2-CB17661C75AE";
shapes = (
{
closed = 1;
nodes = (
(446.67,131.713,o),
(467.051,140.925,q),
(467.051,198.192,l),
(445.599,188.873,o),
(396.585,177.218,o),
(375.732,177.218,qs),
(318.811,177.218,o),
(267.34,252.369,o),
(267.34,322.42,qs),
(267.34,389.387,o),
(324.702,466.807,o),
(376.709,466.807,qs),
(395.987,466.807,o),
(436.937,454.832,o),
(458.01,442.963,q),
(482.738,497.722,l),
(458.231,510.512,o),
(403.83,524.223,o),
(375.921,524.223,qs),
(320.005,524.223,o),
(241.095,471.993,o),
(200.112,381.525,o),
(200.112,322.42,qs),
(200.112,230.604,o),
(286.455,119.03,o),
(372.393,119.03,qs),
(403.169,119.03,o)
);
},
{
closed = 1;
nodes = (
(543.91,39.825,o),
(629.559,129.288,o),
(676.494,249.859,o),
(676.494,322.42,qs),
(676.494,393.847,o),
(627.197,515.231,o),
(539.973,604.801,o),
(425.313,653.024,o),
(359.856,653.024,qs),
(290.812,653.024,o),
(175.364,604.676,o),
(89.493,514.505,o),
(42.336,393.721,o),
(42.336,322.42,qs),
(42.336,249.859,o),
(89.082,129.288,o),
(174.636,39.825,o),
(290.178,-9.105,o),
(359.856,-9.105,qs),
(428.463,-9.105,o)
);
},
{
closed = 1;
nodes = (
(203.027,83.397,o),
(131.874,159.945,o),
(92.877,263.101,o),
(92.877,322.42,qs),
(92.877,383.802,o),
(132.851,486.589,o),
(203.756,563.03,o),
(301.24,605.428,o),
(359.856,605.428,qs),
(416.802,605.428,o),
(514.381,560.522,o),
(585.192,482.862,o),
(625.165,381.187,o),
(625.165,322.42,qs),
(625.165,260.224,o),
(584.31,157.692,o),
(510.605,81.293,o),
(414.473,40.226,o),
(359.856,40.226,qs),
(300.829,40.226,o)
);
}
);
vertWidth = 177;
width = 719.712;
}
);
note = copyright;
unicode = 169;
}
{
color = 4;
glyphname = ordfeminine;
layers = (
{
layerId = "9E010061-AAF6-435A-AC72-EA6F5DDC7760";
shapes = (
{
closed = 1;
nodes = (
(192,390,o),
(235,413,o),
(264,454,c),
(279,395,l),
(347,395,l),
(347,625,ls),
(347,710,o),
(301,765,o),
(205,765,cs),
(139,765,o),
(87,745,o),
(41,722,c),
(75,655,l),
(113,672,o),
(155,684,o),
(183,684,cs),
(225,684,o),
(245,667,o),
(245,633,cs),
(245,625,l),
(196,622,ls),
(104,617,o),
(23,598,o),
(23,505,cs),
(23,423,o),
(73,390,o),
(144,390,cs)
);
},
{
closed = 1;
nodes = (
(142,467,o),
(127,479,o),
(127,507,cs),
(127,530,o),
(138,554,o),
(197,560,cs),
(245,563,l),
(245,544,ls),
(245,500,o),
(212,467,o),
(166,467,cs)
);
}
);
vertWidth = 1357.3098;
width = 390;
},
{
layerId = "953CDB83-177D-4B72-9B41-8425D0D02E2F";
shapes = (
{
closed = 1;
nodes = (
(192,414,o),
(225,437,o),
(249,465,c),
(257,419,l),
(294,419,l),
(294,653,ls),
(294,728,o),
(255,765,o),
(176,765,cs),
(134,765,o),
(90,754,o),
(59,736,c),
(75,698,l),
(107,716,o),
(138,725,o),
(174,725,cs),
(217,725,o),
(248,704,o),
(248,652,cs),
(248,624,l),
(195,621,ls),
(89,617,o),
(37,585,o),
(37,513,cs),
(37,449,o),
(74,414,o),
(141,414,cs)
);
},
{
closed = 1;
nodes = (
(108,455,o),
(85,474,o),
(85,513,cs),
(85,559,o),
(116,581,o),
(200,585,cs),
(248,586,l),
(248,554,ls),
(248,493,o),
(219,455,o),
(149,455,cs)
);
}
);
vertWidth = 770.3388;
width = 346;
},
{
layerId = "C85E24C5-F5D5-436B-96A2-CB17661C75AE";
shapes = (
{
closed = 1;
nodes = (
(191,403,o),
(229,424,o),
(255,457,c),
(268,409,l),
(320,409,l),
(320,641,ls),
(320,726,o),
(275,765,o),
(185,765,cs),
(135,765,o),
(88,751,o),
(50,731,c),
(75,678,l),
(108,695,o),
(145,707,o),
(178,707,cs),
(220,707,o),
(249,688,o),
(249,644,cs),
(249,624,l),
(194,622,ls),
(86,617,o),
(30,585,o),
(30,509,cs),
(30,433,o),
(77,403,o),
(139,403,cs)
);
},
{
closed = 1;
nodes = (
(123,463,o),
(105,476,o),
(105,509,cs),
(105,546,o),
(124,569,o),
(200,572,cs),
(249,574,l),
(249,551,ls),
(249,496,o),
(219,463,o),
(156,463,cs)
);
}
);
vertWidth = 207.6228;
width = 368;
}
);
note = ordfeminine;
unicode = 170;
userData = {
KernOnSpecialSpacing = {
L = superiors;
R = superiors;
};
};
}
{
color = 6;
glyphname = guillemetleft;
layers = (
{
layerId = "9E010061-AAF6-435A-AC72-EA6F5DDC7760";
shapes = (
{
closed = 1;
nodes = (
(388,127,l),
(233,330,l),
(388,535,l),
(257,606,l),
(45,337,l),
(45,322,l),
(257,53,l)
);
},
{
closed = 1;
nodes = (
(682,127,l),
(527,330,l),
(682,535,l),
(551,606,l),
(341,337,l),
(341,322,l),
(551,53,l)
);
}
);
vertWidth = 1538.9;
width = 733;
},
{
layerId = "953CDB83-177D-4B72-9B41-8425D0D02E2F";
shapes = (
{
closed = 1;
nodes = (
(495,114,l),
(336,325,l),
(495,535,l),
(443,567,l),
(255,333,l),
(255,317,l),
(443,84,l)
);
},
{
closed = 1;
nodes = (
(278,114,l),
(119,325,l),
(278,535,l),
(227,567,l),
(39,333,l),
(39,317,l),
(227,84,l)
);
}
);
vertWidth = 873.4;
width = 531;
},
{
layerId = "C85E24C5-F5D5-436B-96A2-CB17661C75AE";
shapes = (
{
closed = 1;
nodes = (
(583,116,l),
(422,321,l),
(583,526,l),
(494,576,l),
(293,328,l),
(293,311,l),
(494,64,l)
);
},
{
closed = 1;
nodes = (
(334,116,l),
(175,321,l),
(334,526,l),
(245,576,l),
(45,328,l),
(45,311,l),
(245,64,l)
);
}
);
vertWidth = 235.4;
width = 627;
}
);
note = guillemotleft;
unicode = 171;
userData = {
KernOnSpecialSpacing = {
L = quotes;
R = quotes;
};
};
}
{
glyphname = guillemotleft;
kernLeft = guillemotleft;
kernRight = guillemotleft;
layers = (
{
layerId = "9E010061-AAF6-435A-AC72-EA6F5DDC7760";
shapes = (
{
closed = 1;
nodes = (
(192.989,40.381,l),
(292.25,95.035,l),
(175.181,247.705,l),
(292.25,401.545,l),
(192.989,455.029,l),
(34.398,253.232,l),
(34.398,242.427,l)
);
},
{
closed = 1;
nodes = (
(413.83,40.381,l),
(511.835,95.035,l),
(396.396,247.705,l),
(511.835,401.545,l),
(413.83,455.029,l),
(255.986,253.232,l),
(255.986,242.427,l)
);
}
);
vertWidth = 1156;
width = 549.86353;
},
{
layerId = "953CDB83-177D-4B72-9B41-8425D0D02E2F";
shapes = (
{
closed = 1;
nodes = (
(169.537,62.697,l),
(209.438,85.702,l),
(89.341,244.407,l),
(209.438,402.304,l),
(169.537,426.116,l),
(29.37,249.934,l),
(29.37,237.962,l)
);
},
{
closed = 1;
nodes = (
(332.83,62.697,l),
(372.006,85.702,l),
(251.758,244.407,l),
(372.006,402.304,l),
(332.83,426.116,l),
(191.629,249.934,l),
(191.629,237.962,l)
);
}
);
vertWidth = 656;
width = 399.47936;
},
{
layerId = "C85E24C5-F5D5-436B-96A2-CB17661C75AE";
shapes = (
{
closed = 1;
nodes = (
(183.989,48.381,l),
(251.25,87.035,l),
(131.181,240.705,l),
(251.25,394.545,l),
(183.989,433.029,l),
(34.398,246.232,l),
(34.398,234.427,l)
);
},
{
closed = 1;
nodes = (
(370.83,48.381,l),
(437.835,87.035,l),
(317.396,240.705,l),
(437.835,394.545,l),
(370.83,433.029,l),
(219.986,246.232,l),
(219.986,234.427,l)
);
}
);
vertWidth = 177;
width = 470.86353;
}
);
note = guillemotleft;
unicode = 171;
}
{
color = 6;
glyphname = logicalnot;
layers = (
{
layerId = "9E010061-AAF6-435A-AC72-EA6F5DDC7760";
shapes = (
{
closed = 1;
nodes = (
(63,229,l),
(63,139.201,l),
(441.146,139.201,l),
(441.146,18,l),
(533,18,l),
(533,229,l)
);
}
);
width = 611;
},
{
layerId = "C85E24C5-F5D5-436B-96A2-CB17661C75AE";
shapes = (
{
closed = 1;
nodes = (
(63,229,l),
(63,139.201,l),
(441.146,139.201,l),
(441.146,18,l),
(533,18,l),
(533,229,l)
);
}
);
width = 616;
},
{
layerId = "953CDB83-177D-4B72-9B41-8425D0D02E2F";
shapes = (
{
closed = 1;
nodes = (
(63,229,l),
(63,139.201,l),
(441.146,139.201,l),
(441.146,18,l),
(533,18,l),
(533,229,l)
);
}
);
width = 619;
}
);
metricRight = H;
unicode = 172;
}
{
glyphname = softhyphen;
layers = (
{
layerId = "9E010061-AAF6-435A-AC72-EA6F5DDC7760";
shapes = (
{
closed = 1;
nodes = (
(481.854,355.314,l),
(443.96,365.862,o),
(394.499,376.41,o),
(339.967,376.41,cs),
(276.083,376.41,o),
(211.505,360.177,o),
(146.937,360.177,cs),
(104.428,360.177,o),
(68.304,366.085,o),
(19.507,377.902,c),
(-18.3,235.704,l),
(19.594,225.156,o),
(69.056,214.608,o),
(123.587,214.608,cs),
(187.472,214.608,o),
(252.049,230.841,o),
(316.616,230.841,cs),
(359.126,230.841,o),
(395.251,224.933,o),
(444.046,213.115,c)
);
}
);
width = 418.17149;
},
{
layerId = "C85E24C5-F5D5-436B-96A2-CB17661C75AE";
shapes = (
{
closed = 1;
nodes = (
(167.535,276.838,l),
(171.073,274.438,o),
(177.178,272.039,o),
(189.279,272.039,cs),
(203.694,272.039,o),
(221.482,279.12,o),
(237.163,279.12,cs),
(248.898,279.12,o),
(254.904,277.619,o),
(260.441,274.617,c),
(264.7,310.58,l),
(261.162,312.98,o),
(255.057,315.379,o),
(242.956,315.379,cs),
(228.541,315.379,o),
(210.753,308.298,o),
(195.071,308.298,cs),
(183.337,308.298,o),
(177.331,309.799,o),
(171.793,312.8,c)
);
}
);
width = 387.17149;
},
{
layerId = "953CDB83-177D-4B72-9B41-8425D0D02E2F";
shapes = (
{
closed = 1;
nodes = (
(88.3,269.602,l),
(100.303,266.866,o),
(116.432,264.557,o),
(136.53,264.557,cs),
(173.996,264.557,o),
(211.587,276.08,o),
(249.479,276.08,cs),
(270.642,276.08,o),
(286.837,274.22,o),
(302.481,270.814,c),
(312.358,311.412,l),
(300.355,314.148,o),
(284.225,316.457,o),
(264.128,316.457,cs),
(226.662,316.457,o),
(189.071,304.934,o),
(151.179,304.934,cs),
(130.015,304.934,o),
(113.82,306.794,o),
(98.176,310.2,c)
);
}
);
width = 356.46864;
}
);
unicode = 173;
}
{
color = 6;
glyphname = registered;
layers = (
{
layerId = "9E010061-AAF6-435A-AC72-EA6F5DDC7760";
shapes = (
{
closed = 1;
nodes = (
(723.8,-12.1,o),
(899.8,171.6,o),
(899.8,429,cs),
(899.8,685.3,o),
(713.9,869,o),
(479.6,869,cs),
(236.5,869,o),
(56.1,673.2,o),
(56.1,429,cs),
(56.1,171.6,o),
(233.2,-12.1,o),
(479.6,-12.1,cs)
);
},
{
closed = 1;
nodes = (
(272.8,64.9,o),
(135.3,222.2,o),
(135.3,429,cs),
(135.3,632.5,o),
(275,794.2,o),
(479.6,794.2,cs),
(677.6,794.2,o),
(819.5,623.7,o),
(819.5,429,cs),
(819.5,217.8,o),
(666.6,64.9,o),
(479.6,64.9,cs)
);
},
{
closed = 1;
nodes = (
(408.1,165,l),
(408.1,368.5,l),
(480.7,368.5,l),
(589.6,165,l),
(693,165,l),
(559.9,398.2,l),
(607.2,418,o),
(651.2,460.9,o),
(651.2,536.8,cs),
(651.2,640.2,o),
(594,696.3,o),
(468.6,696.3,cs),
(314.6,696.3,l),
(314.6,165,l)
);
},
{
closed = 1;
nodes = (
(408.1,614.9,l),
(464.2,614.9,ls),
(532.4,614.9,o),
(555.5,588.5,o),
(555.5,533.5,cs),
(555.5,484,o),
(525.8,447.7,o),
(466.4,447.7,cs),
(408.1,447.7,l)
);
}
);
vertWidth = 1538.9;
width = 958.1;
},
{
layerId = "953CDB83-177D-4B72-9B41-8425D0D02E2F";
shapes = (
{
closed = 1;
nodes = (
(716.1,-11,o),
(899.8,178.2,o),
(899.8,429,cs),
(899.8,672.1,o),
(717.2,867.9,o),
(479.6,867.9,cs),
(233.2,867.9,o),
(56.1,678.7,o),
(56.1,429,cs),
(56.1,178.2,o),
(233.2,-11,o),
(479.6,-11,cs)
);
},
{
closed = 1;
nodes = (
(258.5,37.4,o),
(105.6,213.4,o),
(105.6,429,cs),
(105.6,651.2,o),
(265.1,821.7,o),
(479.6,821.7,cs),
(690.8,821.7,o),
(850.3,642.4,o),
(850.3,429,cs),
(850.3,206.8,o),
(684.2,37.4,o),
(479.6,37.4,cs)
);
},
{
closed = 1;
nodes = (
(392.7,167.2,l),
(392.7,381.7,l),
(489.5,381.7,l),
(609.4,167.2,l),
(679.8,167.2,l),
(548.9,397.1,l),
(600.6,416.9,o),
(645.7,460.9,o),
(645.7,536.8,cs),
(645.7,640.2,o),
(584.1,688.6,o),
(473,688.6,cs),
(330,688.6,l),
(330,167.2,l)
);
},
{
closed = 1;
nodes = (
(391.6,633.6,l),
(469.7,633.6,ls),
(543.4,633.6,o),
(584.1,603.9,o),
(584.1,536.8,cs),
(584.1,468.6,o),
(537.9,431.2,o),
(469.7,431.2,cs),
(391.6,431.2,l)
);
}
);
vertWidth = 873.4;
width = 958.1;
},
{
layerId = "C85E24C5-F5D5-436B-96A2-CB17661C75AE";
shapes = (
{
closed = 1;
nodes = (
(722.7,-12.1,o),
(899.8,172.7,o),
(899.8,429,cs),
(899.8,684.2,o),
(713.9,869,o),
(479.6,869,cs),
(235.4,869,o),
(56.1,686.4,o),
(56.1,429,cs),
(56.1,172.7,o),
(233.2,-12.1,o),
(479.6,-12.1,cs)
);
},
{
closed = 1;
nodes = (
(266.2,52.8,o),
(124.3,221.1,o),
(124.3,429,cs),
(124.3,642.4,o),
(270.6,805.2,o),
(479.6,805.2,cs),
(679.8,805.2,o),
(831.6,635.8,o),
(831.6,429,cs),
(831.6,207.9,o),
(672.1,52.8,o),
(479.6,52.8,cs)
);
},
{
closed = 1;
nodes = (
(407,166.1,l),
(407,372.9,l),
(481.8,372.9,l),
(595.1,166.1,l),
(691.9,166.1,l),
(558.8,398.2,l),
(606.1,418,o),
(649,460.9,o),
(649,536.8,cs),
(649,640.2,o),
(591.8,691.9,o),
(468.6,691.9,cs),
(319,691.9,l),
(319,166.1,l)
);
},
{
closed = 1;
nodes = (
(405.9,616,l),
(466.4,616,ls),
(533.5,616,o),
(562.1,590.7,o),
(562.1,533.5,cs),
(562.1,482.9,o),
(526.9,445.5,o),
(466.4,445.5,cs),
(405.9,445.5,l)
);
}
);
vertWidth = 235.4;
width = 958.1;
}
);
note = registered;
unicode = 174;
userData = {
KernOnSpecialSpacing = {
L = superiors;
};
};
}
{
glyphname = macron;
layers = (
{
layerId = "9E010061-AAF6-435A-AC72-EA6F5DDC7760";
shapes = (
{
closed = 1;
nodes = (
(580,874,l),
(580,979,l),
(-4,979,l),
(-4,874,l)
);
}
);
vertWidth = 1357.3098;
width = 574;
},
{
layerId = "953CDB83-177D-4B72-9B41-8425D0D02E2F";
shapes = (
{
closed = 1;
nodes = (
(580,874,l),
(580,923,l),
(-4,923,l),
(-4,874,l)
);
}
);
vertWidth = 770.3388;
width = 574;
},
{
layerId = "C85E24C5-F5D5-436B-96A2-CB17661C75AE";
shapes = (
{
closed = 1;
nodes = (
(580,874,l),
(580,950,l),
(-4,950,l),
(-4,874,l)
);
}
);
vertWidth = 207.6228;
width = 574;
}
);
note = overscore;
unicode = 175;
}
{
glyphname = degree;
layers = (
{
layerId = "9E010061-AAF6-435A-AC72-EA6F5DDC7760";
shapes = (
{
closed = 1;
nodes = (
(276,350,o),
(336,411,o),
(336,502,cs),
(336,592,o),
(276,653,o),
(185,653,cs),
(98,653,o),
(32,593,o),
(32,502,cs),
(32,411,o),
(95,350,o),
(185,350,cs)
);
},
{
closed = 1;
nodes = (
(151,432,o),
(121,461,o),
(121,502,cs),
(121,545,o),
(151,572,o),
(185,572,cs),
(220,572,o),
(249,545,o),
(249,502,cs),
(249,461,o),
(220,432,o),
(185,432,cs)
);
}
);
vertWidth = 1156;
width = 369;
},
{
layerId = "953CDB83-177D-4B72-9B41-8425D0D02E2F";
shapes = (
{
closed = 1;
nodes = (
(262,387,o),
(316,440,o),
(316,521,cs),
(316,601,o),
(260,653,o),
(185,653,cs),
(106,653,o),
(54,600,o),
(54,521,cs),
(54,442,o),
(106,387,o),
(185,387,cs)
);
},
{
closed = 1;
nodes = (
(128,426,o),
(95,464,o),
(95,521,cs),
(95,579,o),
(128,617,o),
(185,617,cs),
(241,617,o),
(275,579,o),
(275,521,cs),
(275,464,o),
(242,426,o),
(185,426,cs)
);
}
);
vertWidth = 656;
width = 369;
},
{
layerId = "C85E24C5-F5D5-436B-96A2-CB17661C75AE";
shapes = (
{
closed = 1;
nodes = (
(269,371,o),
(325,428,o),
(325,512,cs),
(325,597,o),
(269,653,o),
(185,653,cs),
(102,653,o),
(44,598,o),
(44,512,cs),
(44,428,o),
(100,371,o),
(185,371,cs)
);
},
{
closed = 1;
nodes = (
(135,429,o),
(108,463,o),
(108,512,cs),
(108,563,o),
(135,596,o),
(186,596,cs),
(234,596,o),
(263,563,o),
(263,512,cs),
(263,463,o),
(236,429,o),
(186,429,cs)
);
}
);
vertWidth = 177;
width = 369;
}
);
note = degree;
unicode = 176;
}
